<?xml version="1.0" standalone="no"?>
<!DOCTYPE svg PUBLIC "-//W3C//DTD SVG 20010904//EN"
 "http://www.w3.org/TR/2001/REC-SVG-20010904/DTD/svg10.dtd">
<svg version="1.0" xmlns="http://www.w3.org/2000/svg"
 width="310.000000pt" height="310.000000pt" viewBox="0 0 310.000000 310.000000"
 preserveAspectRatio="xMidYMid meet">
<metadata>
Created by potrace 1.14, written by Peter Selinger 2001-2017
</metadata>
<g transform="translate(0.000000,310.000000) scale(0.100000,-0.100000)"
fill="#000000" stroke="none">
<path d="M1340 3088 c-243 -51 -324 -76 -460 -140 -418 -199 -743 -605 -838
-1048 -11 -52 -25 -119 -31 -148 -14 -69 -14 -335 0 -404 58 -288 95 -392 198
-573 211 -366 574 -638 976 -729 55 -13 127 -28 161 -35 77 -14 336 -14 406 0
241 49 330 76 468 141 418 199 743 605 838 1048 11 52 25 119 31 148 14 69 14
335 0 404 -58 288 -95 392 -198 573 -211 366 -574 638 -976 729 -55 13 -127
28 -161 35 -71 13 -350 13 -414 -1z m455 -193 c438 -85 796 -360 986 -759 88
-185 129 -371 129 -586 0 -215 -41 -401 -129 -586 -190 -399 -545 -672 -986
-760 -123 -24 -367 -24 -490 0 -575 114 -999 547 -1100 1123 -19 114 -19 332
0 446 68 385 276 706 598 920 175 117 389 192 627 221 65 8 285 -3 365 -19z"/>
<path d="M1425 2684 c-125 -14 -249 -51 -376 -114 -243 -120 -435 -324 -544
-576 -182 -421 -84 -922 246 -1253 153 -154 324 -248 548 -303 117 -28 370
-31 481 -4 145 34 290 90 290 111 0 21 -175 182 -234 215 -31 18 -56 34 -56
37 0 3 22 33 48 67 80 102 150 193 290 376 l134 175 -32 13 c-17 7 -30 18 -28
25 6 24 82 157 90 157 4 0 8 -48 8 -107 0 -111 13 -181 45 -243 18 -35 202
-230 217 -230 18 0 74 141 104 260 24 95 34 252 24 363 -24 259 -126 485 -303
673 -220 233 -476 350 -787 358 -69 2 -143 2 -165 0z m328 -474 c114 -29 229
-92 315 -174 39 -38 72 -72 72 -77 0 -5 -86 -164 -191 -354 -105 -190 -192
-354 -193 -363 -1 -13 12 -19 63 -27 36 -6 66 -15 68 -21 3 -9 -73 -178 -150
-334 -22 -45 -23 -45 -87 -53 -218 -28 -473 77 -618 255 -146 177 -202 442
-136 637 3 10 78 -58 219 -199 l214 -214 57 1 c115 3 272 109 354 239 52 83
70 133 70 198 l0 51 -210 210 c-115 115 -210 213 -210 216 0 13 96 27 190 28
64 0 120 -6 173 -19z"/>
</g>
</svg>
