<svg width="25" height="15" viewBox="0 0 25 15" fill="none" xmlns="http://www.w3.org/2000/svg">
<path fill-rule="evenodd" clip-rule="evenodd" d="M1.80288 1.17188C1.47098 1.17188 1.20192 1.43421 1.20192 1.75781V13.2422C1.20192 13.5658 1.47098 13.8281 1.80288 13.8281H23.1971C23.529 13.8281 23.7981 13.5658 23.7981 13.2422V1.75781C23.7981 1.43421 23.529 1.17188 23.1971 1.17188H1.80288ZM0 1.75781C0 0.786999 0.807179 0 1.80288 0H23.1971C24.1928 0 25 0.786999 25 1.75781V13.2422C25 14.213 24.1928 15 23.1971 15H1.80288C0.807179 15 0 14.213 0 13.2422V1.75781Z" fill="#5F5F5F"/>
<path d="M3.60571 11.4844V3.51562H6.00956L8.4134 6.44531L10.8173 3.51562H13.2211V11.4844H10.8173V6.91406L8.4134 9.84375L6.00956 6.91406V11.4844H3.60571ZM18.6298 11.4844L15.024 7.61719H17.4278V3.51562H19.8317V7.61719H22.2355L18.6298 11.4844Z" fill="#5F5F5F"/>
</svg>
