<svg width="1191" height="692" viewBox="0 0 1191 692" fill="none" xmlns="http://www.w3.org/2000/svg">
<path d="M58.2428 13.8817H196.758C221.257 13.8817 241.119 33.7427 241.119 58.2426V196.757C241.119 221.257 221.257 241.118 196.758 241.118H58.2428C33.7429 241.118 13.8818 221.257 13.8818 196.757V58.2426C13.8818 33.7427 33.7429 13.8817 58.2428 13.8817Z" fill="white"/>
<path fill-rule="evenodd" clip-rule="evenodd" d="M196.757 13.8817H58.2426C33.7427 13.8817 13.8817 33.7427 13.8817 58.2426V196.757C13.8817 221.257 33.7427 241.118 58.2426 241.118H196.757C221.257 241.118 241.118 221.257 241.118 196.757V58.2426C241.118 33.7427 221.257 13.8817 196.757 13.8817ZM58.2426 0C26.0761 0 0 26.0761 0 58.2426V196.757C0 228.924 26.0761 255 58.2426 255H196.757C228.924 255 255 228.924 255 196.757V58.2426C255 26.0761 228.924 0 196.757 0H58.2426Z" fill="black"/>
<path fill-rule="evenodd" clip-rule="evenodd" d="M174.728 39.2307H80.2722C57.6056 39.2307 39.2307 57.6056 39.2307 80.2722V174.728C39.2307 197.394 57.6056 215.769 80.2722 215.769H174.728C197.394 215.769 215.769 197.394 215.769 174.728V80.2722C215.769 57.6056 197.394 39.2307 174.728 39.2307ZM80.2722 34.4023C54.939 34.4023 34.4023 54.939 34.4023 80.2722V174.728C34.4023 200.061 54.939 220.598 80.2722 220.598H174.728C200.061 220.598 220.598 200.061 220.598 174.728V80.2722C220.598 54.939 200.061 34.4023 174.728 34.4023H80.2722Z" fill="black"/>
<path d="M129.136 165C127.856 165 126.736 164.52 125.776 163.56C124.816 162.6 124.336 161.448 124.336 160.104V101.544L117.328 104.52C116.24 104.968 115.216 105.192 114.256 105.192C112.848 105.192 111.664 104.744 110.704 103.848C109.808 102.952 109.36 101.8 109.36 100.392C109.36 99.368 109.616 98.44 110.128 97.608C110.64 96.776 111.44 96.168 112.528 95.784L127.504 90.408C127.824 90.28 128.144 90.184 128.464 90.12C128.784 90.056 129.072 90.024 129.328 90.024C130.8 90.024 131.952 90.504 132.784 91.464C133.68 92.36 134.128 93.544 134.128 95.016V160.104C134.128 161.448 133.648 162.6 132.688 163.56C131.728 164.52 130.544 165 129.136 165Z" fill="black"/>
<path d="M568.243 13.8817H706.758C731.257 13.8817 751.119 33.7427 751.119 58.2426V196.757C751.119 221.257 731.257 241.118 706.758 241.118H568.243C543.743 241.118 523.882 221.257 523.882 196.757V58.2426C523.882 33.7427 543.743 13.8817 568.243 13.8817Z" fill="white"/>
<path fill-rule="evenodd" clip-rule="evenodd" d="M706.757 13.8817H568.243C543.743 13.8817 523.882 33.7427 523.882 58.2426V196.757C523.882 221.257 543.743 241.118 568.243 241.118H706.757C731.257 241.118 751.118 221.257 751.118 196.757V58.2426C751.118 33.7427 731.257 13.8817 706.757 13.8817ZM568.243 0C536.076 0 510 26.0761 510 58.2426V196.757C510 228.924 536.076 255 568.243 255H706.757C738.924 255 765 228.924 765 196.757V58.2426C765 26.0761 738.924 0 706.757 0H568.243Z" fill="black"/>
<path fill-rule="evenodd" clip-rule="evenodd" d="M684.728 39.2307H590.272C567.606 39.2307 549.231 57.6056 549.231 80.2722V174.728C549.231 197.394 567.606 215.769 590.272 215.769H684.728C707.394 215.769 725.769 197.394 725.769 174.728V80.2722C725.769 57.6056 707.394 39.2307 684.728 39.2307ZM590.272 34.4023C564.939 34.4023 544.402 54.939 544.402 80.2722V174.728C544.402 200.061 564.939 220.598 590.272 220.598H684.728C710.061 220.598 730.598 200.061 730.598 174.728V80.2722C730.598 54.939 710.061 34.4023 684.728 34.4023H590.272Z" fill="black"/>
<path d="M634.952 165C630.152 165 625.896 164.008 622.184 162.024C618.472 159.976 615.56 157.224 613.448 153.768C611.336 150.248 610.28 146.312 610.28 141.96C610.28 140.488 610.696 139.304 611.528 138.408C612.424 137.448 613.48 136.968 614.696 136.968C615.976 136.968 617.032 137.448 617.864 138.408C618.696 139.304 619.112 140.488 619.112 141.96C619.112 144.584 619.784 147.016 621.128 149.256C622.472 151.432 624.296 153.192 626.6 154.536C628.904 155.816 631.496 156.456 634.376 156.456C638.6 156.456 641.992 155.304 644.552 153C647.176 150.632 648.488 147.336 648.488 143.112C648.488 140.424 647.912 138.024 646.76 135.912C645.608 133.736 644.04 132.008 642.056 130.728C640.072 129.448 637.832 128.808 635.336 128.808C633.928 128.808 632.744 128.328 631.784 127.368C630.888 126.408 630.44 125.224 630.44 123.816C630.44 122.408 630.888 121.256 631.784 120.36C632.744 119.4 633.928 118.92 635.336 118.92C637.128 118.92 638.856 118.472 640.52 117.576C642.184 116.616 643.56 115.368 644.648 113.832C645.736 112.232 646.28 110.44 646.28 108.456C646.28 105.64 645.256 103.272 643.208 101.352C641.16 99.432 638.536 98.472 635.336 98.472C632.904 98.472 630.664 98.952 628.616 99.912C626.632 100.872 625.032 102.152 623.816 103.752C622.664 105.352 622.088 107.144 622.088 109.128C622.088 110.6 621.672 111.848 620.84 112.872C620.008 113.832 618.952 114.312 617.672 114.312C616.456 114.312 615.4 113.864 614.504 112.968C613.672 112.008 613.256 110.824 613.256 109.416C613.256 105.704 614.216 102.376 616.136 99.432C618.056 96.488 620.68 94.184 624.008 92.52C627.336 90.792 631.048 89.928 635.144 89.928C638.92 89.928 642.312 90.76 645.32 92.424C648.392 94.024 650.792 96.232 652.52 99.048C654.312 101.8 655.208 104.936 655.208 108.456C655.208 110.952 654.632 113.16 653.48 115.08C652.392 117 650.984 118.664 649.256 120.072C647.528 121.416 645.704 122.536 643.784 123.432C647.176 124.584 649.928 126.152 652.04 128.136C654.152 130.056 655.688 132.296 656.648 134.856C657.672 137.416 658.184 140.2 658.184 143.208C658.184 147.368 657.128 151.112 655.016 154.44C652.904 157.704 650.088 160.296 646.568 162.216C643.048 164.072 639.176 165 634.952 165Z" fill="black"/>
<path d="M994.243 13.8817H1132.76C1157.26 13.8817 1177.12 33.7427 1177.12 58.2426V196.757C1177.12 221.257 1157.26 241.118 1132.76 241.118H994.243C969.743 241.118 949.882 221.257 949.882 196.757V58.2426C949.882 33.7427 969.743 13.8817 994.243 13.8817Z" fill="white"/>
<path fill-rule="evenodd" clip-rule="evenodd" d="M1132.76 13.8817H994.243C969.743 13.8817 949.882 33.7427 949.882 58.2426V196.757C949.882 221.257 969.743 241.118 994.243 241.118H1132.76C1157.26 241.118 1177.12 221.257 1177.12 196.757V58.2426C1177.12 33.7427 1157.26 13.8817 1132.76 13.8817ZM994.243 0C962.076 0 936 26.0761 936 58.2426V196.757C936 228.924 962.076 255 994.243 255H1132.76C1164.92 255 1191 228.924 1191 196.757V58.2426C1191 26.0761 1164.92 0 1132.76 0H994.243Z" fill="black"/>
<path fill-rule="evenodd" clip-rule="evenodd" d="M1110.73 39.2307H1016.27C993.606 39.2307 975.231 57.6056 975.231 80.2722V174.728C975.231 197.394 993.606 215.769 1016.27 215.769H1110.73C1133.39 215.769 1151.77 197.394 1151.77 174.728V80.2722C1151.77 57.6056 1133.39 39.2307 1110.73 39.2307ZM1016.27 34.4023C990.939 34.4023 970.402 54.939 970.402 80.2722V174.728C970.402 200.061 990.939 220.598 1016.27 220.598H1110.73C1136.06 220.598 1156.6 200.061 1156.6 174.728V80.2722C1156.6 54.939 1136.06 34.4023 1110.73 34.4023H1016.27Z" fill="black"/>
<path d="M1057.88 89.928C1062.3 89.928 1066.2 90.92 1069.59 92.904C1073.05 94.824 1075.74 97.512 1077.66 100.968C1079.58 104.36 1080.54 108.264 1080.54 112.68C1080.54 117.16 1079.58 121.128 1077.66 124.584C1075.74 127.976 1073.05 130.664 1069.59 132.648C1066.2 134.568 1062.3 135.528 1057.88 135.528C1053.46 135.528 1049.56 134.568 1046.17 132.648C1042.78 130.664 1040.12 127.976 1038.2 124.584C1036.28 121.128 1035.32 117.16 1035.32 112.68C1035.32 108.264 1036.28 104.36 1038.2 100.968C1040.12 97.512 1042.78 94.824 1046.17 92.904C1049.56 90.92 1053.46 89.928 1057.88 89.928ZM1057.98 98.568C1055.35 98.568 1053.02 99.176 1050.97 100.392C1048.98 101.544 1047.42 103.208 1046.26 105.384C1045.11 107.496 1044.54 109.928 1044.54 112.68C1044.54 115.496 1045.11 117.96 1046.26 120.072C1047.42 122.184 1048.98 123.848 1050.97 125.064C1053.02 126.28 1055.35 126.888 1057.98 126.888C1060.6 126.888 1062.9 126.28 1064.89 125.064C1066.94 123.848 1068.5 122.184 1069.59 120.072C1070.74 117.96 1071.32 115.496 1071.32 112.68C1071.32 109.928 1070.74 107.496 1069.59 105.384C1068.5 103.208 1066.94 101.544 1064.89 100.392C1062.9 99.176 1060.6 98.568 1057.98 98.568ZM1077.37 124.968L1055.1 162.12C1053.94 163.912 1052.47 164.808 1050.68 164.808C1049.34 164.808 1048.22 164.424 1047.32 163.656C1046.42 162.888 1045.85 161.928 1045.59 160.776C1045.4 159.624 1045.66 158.472 1046.36 157.32L1059.99 134.664L1077.37 124.968Z" fill="black"/>
<path d="M313.243 13.8817H451.758C476.257 13.8817 496.119 33.7427 496.119 58.2426V196.757C496.119 221.257 476.257 241.118 451.758 241.118H313.243C288.743 241.118 268.882 221.257 268.882 196.757V58.2426C268.882 33.7427 288.743 13.8817 313.243 13.8817Z" fill="white"/>
<path fill-rule="evenodd" clip-rule="evenodd" d="M451.757 13.8817H313.243C288.743 13.8817 268.882 33.7427 268.882 58.2426V196.757C268.882 221.257 288.743 241.118 313.243 241.118H451.757C476.257 241.118 496.118 221.257 496.118 196.757V58.2426C496.118 33.7427 476.257 13.8817 451.757 13.8817ZM313.243 0C281.076 0 255 26.0761 255 58.2426V196.757C255 228.924 281.076 255 313.243 255H451.757C483.924 255 510 228.924 510 196.757V58.2426C510 26.0761 483.924 0 451.757 0H313.243Z" fill="black"/>
<path fill-rule="evenodd" clip-rule="evenodd" d="M429.728 39.2307H335.272C312.606 39.2307 294.231 57.6056 294.231 80.2722V174.728C294.231 197.394 312.606 215.769 335.272 215.769H429.728C452.394 215.769 470.769 197.394 470.769 174.728V80.2722C470.769 57.6056 452.394 39.2307 429.728 39.2307ZM335.272 34.4023C309.939 34.4023 289.402 54.939 289.402 80.2722V174.728C289.402 200.061 309.939 220.598 335.272 220.598H429.728C455.061 220.598 475.598 200.061 475.598 174.728V80.2722C475.598 54.939 455.061 34.4023 429.728 34.4023H335.272Z" fill="black"/>
<path d="M367.136 165C365.728 165 364.544 164.52 363.584 163.56C362.688 162.6 362.24 161.448 362.24 160.104C362.24 158.696 362.688 157.544 363.584 156.648L390.848 124.776C392.768 122.536 394.24 120.424 395.264 118.44C396.352 116.456 396.896 114.568 396.896 112.776C396.896 109.96 396.416 107.528 395.456 105.48C394.496 103.432 393.12 101.864 391.328 100.776C389.536 99.624 387.392 99.048 384.896 99.048C382.464 99.048 380.256 99.688 378.272 100.968C376.352 102.184 374.816 103.848 373.664 105.96C372.576 108.008 372.032 110.28 372.032 112.776C372.032 114.056 371.552 115.176 370.592 116.136C369.696 117.096 368.544 117.576 367.136 117.576C365.792 117.576 364.64 117.096 363.68 116.136C362.72 115.176 362.24 114.056 362.24 112.776C362.24 108.424 363.232 104.552 365.216 101.16C367.2 97.704 369.888 94.984 373.28 93C376.736 91.016 380.608 90.024 384.896 90.024C389.248 90.024 393.024 90.952 396.224 92.808C399.424 94.664 401.888 97.288 403.616 100.68C405.408 104.072 406.304 108.104 406.304 112.776C406.304 114.824 405.856 116.904 404.96 119.016C404.128 121.128 403.04 123.144 401.696 125.064C400.416 126.984 399.104 128.712 397.76 130.248L375.776 155.208H402.656C404.064 155.208 405.248 155.72 406.208 156.744C407.168 157.704 407.648 158.824 407.648 160.104C407.648 161.448 407.168 162.6 406.208 163.56C405.248 164.52 404.064 165 402.656 165H367.136Z" fill="black"/>
<path d="M816.136 243.304C813.448 243.304 811.096 242.344 809.08 240.424C807.16 238.408 806.2 236.056 806.2 233.368C806.2 230.584 807.16 228.232 809.08 226.312C811.096 224.296 813.448 223.288 816.136 223.288C818.92 223.288 821.272 224.296 823.192 226.312C825.112 228.232 826.072 230.584 826.072 233.368C826.072 236.056 825.112 238.408 823.192 240.424C821.272 242.344 818.92 243.304 816.136 243.304ZM850.449 243.304C847.761 243.304 845.409 242.344 843.393 240.424C841.473 238.408 840.513 236.056 840.513 233.368C840.513 230.584 841.473 228.232 843.393 226.312C845.409 224.296 847.761 223.288 850.449 223.288C853.233 223.288 855.585 224.296 857.505 226.312C859.425 228.232 860.385 230.584 860.385 233.368C860.385 236.056 859.425 238.408 857.505 240.424C855.585 242.344 853.233 243.304 850.449 243.304ZM884.761 243.304C882.073 243.304 879.721 242.344 877.705 240.424C875.785 238.408 874.825 236.056 874.825 233.368C874.825 230.584 875.785 228.232 877.705 226.312C879.721 224.296 882.073 223.288 884.761 223.288C887.545 223.288 889.897 224.296 891.817 226.312C893.737 228.232 894.697 230.584 894.697 233.368C894.697 236.056 893.737 238.408 891.817 240.424C889.897 242.344 887.545 243.304 884.761 243.304Z" fill="black"/>
<rect x="157.5" y="390.5" width="450" height="219" rx="109.5" fill="white" stroke="black" stroke-width="21"/>
<path fill-rule="evenodd" clip-rule="evenodd" d="M884.917 308C818.669 308.109 751 310.789 751 546.339C751 652.414 836.269 692 890 692C943.731 692 1029 652.468 1029 546.339C1028.89 311.171 959.91 308.273 898.199 308.055L884.917 308ZM896.559 476.844V505.55C936.734 504.675 976.035 495.325 1013.42 477.883C1002.38 323.638 951.219 321.451 896.559 321.341V355.515C904.703 357.1 910.88 364.318 910.88 372.793V459.566C910.88 468.041 904.703 475.258 896.559 476.844ZM893.225 463.94C895.63 463.94 897.598 461.972 897.598 459.566V372.793C897.598 370.387 895.63 368.419 893.225 368.419H886.611C884.206 368.419 882.238 370.387 882.238 372.793V459.566C882.238 461.972 884.206 463.94 886.611 463.94H893.225ZM868.956 372.793C868.956 364.318 875.078 357.1 883.277 355.515V321.341C828.617 321.451 777.401 323.638 766.414 478.102C777.674 483.733 822.167 504.183 883.277 505.604V476.844C875.078 475.258 868.956 468.041 868.956 459.566V372.793Z" fill="black"/>
<path d="M883.277 355.515C875.078 357.1 868.956 364.318 868.956 372.793V459.566C868.956 468.041 875.078 475.258 883.277 476.844V505.604C822.167 504.183 777.674 483.733 766.414 478.102C777.401 323.638 828.617 321.451 883.277 321.341V355.515Z" fill="black"/>
<path d="M896.559 505.55V476.844C904.703 475.258 910.88 468.041 910.88 459.566V372.793C910.88 364.318 904.703 357.1 896.559 355.515V321.341C951.219 321.451 1002.38 323.638 1013.42 477.883C976.035 495.325 936.734 504.675 896.559 505.55Z" fill="black"/>
<path d="M897.598 459.566C897.598 461.972 895.63 463.94 893.225 463.94H886.611C884.206 463.94 882.238 461.972 882.238 459.566V372.793C882.238 370.387 884.206 368.419 886.611 368.419H893.225C895.63 368.419 897.598 370.387 897.598 372.793V459.566Z" fill="black"/>
<path d="M883.277 355.515C875.078 357.1 868.956 364.318 868.956 372.793V459.566C868.956 468.041 875.078 475.258 883.277 476.844V505.604C822.167 504.183 777.674 483.733 766.414 478.102C777.401 323.638 828.617 321.451 883.277 321.341V355.515Z" fill="white"/>
<path d="M896.559 505.55V476.844C904.703 475.258 910.88 468.041 910.88 459.566V372.793C910.88 364.318 904.703 357.1 896.559 355.515V321.341C951.219 321.451 1002.38 323.638 1013.42 477.883C976.035 495.325 936.734 504.675 896.559 505.55Z" fill="white"/>
<path d="M897.598 459.566C897.598 461.972 895.63 463.94 893.225 463.94H886.611C884.206 463.94 882.238 461.972 882.238 459.566V372.793C882.238 370.387 884.206 368.419 886.611 368.419H893.225C895.63 368.419 897.598 370.387 897.598 372.793V459.566Z" fill="#FF0000"/>
<path d="M893.225 480.94C905.024 480.94 914.598 471.355 914.598 459.566V372.793C914.598 361.003 905.024 351.419 893.225 351.419H886.611C874.812 351.419 865.238 361.003 865.238 372.793V459.566C865.238 471.355 874.812 480.94 886.611 480.94H893.225Z" stroke="#FF0000" stroke-opacity="0.33" stroke-width="34"/>
<path d="M290.08 546.72C283.456 546.72 277.504 545.328 272.224 542.544C267.04 539.664 262.912 535.488 259.84 530.016C256.864 524.544 255.376 517.824 255.376 509.856V474.432C255.376 472.32 256.048 470.592 257.392 469.248C258.832 467.808 260.608 467.088 262.72 467.088C264.832 467.088 266.56 467.808 267.904 469.248C269.344 470.592 270.064 472.32 270.064 474.432V509.856C270.064 515.232 271.072 519.696 273.088 523.248C275.104 526.704 277.84 529.296 281.296 531.024C284.752 532.656 288.64 533.472 292.96 533.472C297.088 533.472 300.736 532.656 303.904 531.024C307.168 529.392 309.76 527.184 311.68 524.4C313.6 521.616 314.56 518.496 314.56 515.04H323.632C323.632 520.992 322.144 526.368 319.168 531.168C316.288 535.968 312.304 539.76 307.216 542.544C302.224 545.328 296.512 546.72 290.08 546.72ZM321.904 546C319.792 546 318.016 545.328 316.576 543.984C315.232 542.544 314.56 540.768 314.56 538.656V474.432C314.56 472.224 315.232 470.448 316.576 469.104C318.016 467.76 319.792 467.088 321.904 467.088C324.112 467.088 325.888 467.76 327.232 469.104C328.576 470.448 329.248 472.224 329.248 474.432V538.656C329.248 540.768 328.576 542.544 327.232 543.984C325.888 545.328 324.112 546 321.904 546ZM384.636 467.376C386.076 467.376 387.372 467.76 388.524 468.528C389.676 469.296 390.588 470.496 391.26 472.128L420.924 536.496C421.788 538.416 421.884 540.144 421.212 541.68C420.54 543.12 419.388 544.224 417.756 544.992C415.644 545.952 413.82 546.192 412.284 545.712C410.748 545.232 409.452 544.032 408.396 542.112L381.324 480.624H388.668L360.732 542.112C359.868 543.936 358.572 545.136 356.844 545.712C355.212 546.192 353.388 545.952 351.372 544.992C349.548 544.128 348.252 542.976 347.484 541.536C346.812 540.096 346.956 538.416 347.916 536.496L377.724 472.128C379.164 468.96 381.468 467.376 384.636 467.376ZM472.752 546.72C466.128 546.72 460.176 545.328 454.896 542.544C449.712 539.664 445.584 535.488 442.512 530.016C439.536 524.544 438.048 517.824 438.048 509.856V474.432C438.048 472.32 438.72 470.592 440.064 469.248C441.504 467.808 443.28 467.088 445.392 467.088C447.504 467.088 449.232 467.808 450.576 469.248C452.016 470.592 452.736 472.32 452.736 474.432V509.856C452.736 515.232 453.744 519.696 455.76 523.248C457.776 526.704 460.512 529.296 463.968 531.024C467.424 532.656 471.312 533.472 475.632 533.472C479.76 533.472 483.408 532.656 486.576 531.024C489.84 529.392 492.432 527.184 494.352 524.4C496.272 521.616 497.232 518.496 497.232 515.04H506.304C506.304 520.992 504.816 526.368 501.84 531.168C498.96 535.968 494.976 539.76 489.888 542.544C484.896 545.328 479.184 546.72 472.752 546.72ZM504.576 546C502.464 546 500.688 545.328 499.248 543.984C497.904 542.544 497.232 540.768 497.232 538.656V474.432C497.232 472.224 497.904 470.448 499.248 469.104C500.688 467.76 502.464 467.088 504.576 467.088C506.784 467.088 508.56 467.76 509.904 469.104C511.248 470.448 511.92 472.224 511.92 474.432V538.656C511.92 540.768 511.248 542.544 509.904 543.984C508.56 545.328 506.784 546 504.576 546Z" fill="black"/>
<mask id="path-24-outside-1_209_98" maskUnits="userSpaceOnUse" x="914" y="351" width="60" height="130" fill="black">
<rect fill="white" x="914" y="351" width="60" height="130"/>
<path fill-rule="evenodd" clip-rule="evenodd" d="M946.249 475.975C944.882 477.342 942.666 477.342 941.299 475.975L919.025 453.701C917.658 452.334 917.658 450.118 919.025 448.751C920.392 447.384 922.608 447.384 923.975 448.751L940.274 465.05L940.274 366.95L923.975 383.249C922.608 384.616 920.392 384.616 919.025 383.249C917.658 381.882 917.658 379.666 919.025 378.299L941.299 356.025C942.666 354.658 944.882 354.658 946.249 356.025L968.523 378.299C969.889 379.666 969.889 381.882 968.523 383.249C967.156 384.616 964.94 384.616 963.573 383.249L947.274 366.95L947.274 465.05L963.573 448.751C964.94 447.384 967.156 447.384 968.523 448.751C969.889 450.118 969.889 452.334 968.523 453.701L946.249 475.975Z"/>
</mask>
<path fill-rule="evenodd" clip-rule="evenodd" d="M946.249 475.975C944.882 477.342 942.666 477.342 941.299 475.975L919.025 453.701C917.658 452.334 917.658 450.118 919.025 448.751C920.392 447.384 922.608 447.384 923.975 448.751L940.274 465.05L940.274 366.95L923.975 383.249C922.608 384.616 920.392 384.616 919.025 383.249C917.658 381.882 917.658 379.666 919.025 378.299L941.299 356.025C942.666 354.658 944.882 354.658 946.249 356.025L968.523 378.299C969.889 379.666 969.889 381.882 968.523 383.249C967.156 384.616 964.94 384.616 963.573 383.249L947.274 366.95L947.274 465.05L963.573 448.751C964.94 447.384 967.156 447.384 968.523 448.751C969.889 450.118 969.889 452.334 968.523 453.701L946.249 475.975Z" fill="#FF0000"/>
<path d="M941.299 475.975L938.471 478.803L938.471 478.803L941.299 475.975ZM946.249 475.975L949.077 478.803L949.077 478.803L946.249 475.975ZM919.025 453.701L916.197 456.529L919.025 453.701ZM923.975 448.751L926.803 445.923L923.975 448.751ZM940.274 465.05L937.445 467.879L944.274 474.707L944.274 465.05L940.274 465.05ZM940.274 366.95L944.274 366.95L944.274 357.293L937.445 364.121L940.274 366.95ZM923.975 383.249L926.803 386.077L926.803 386.077L923.975 383.249ZM919.025 383.249L916.197 386.077L916.197 386.077L919.025 383.249ZM919.025 378.299L916.197 375.471L916.197 375.471L919.025 378.299ZM941.299 356.025L938.471 353.197L938.471 353.197L941.299 356.025ZM946.249 356.025L949.077 353.197L949.077 353.197L946.249 356.025ZM968.523 378.299L971.351 375.471L971.351 375.471L968.523 378.299ZM968.523 383.249L971.351 386.077L971.351 386.077L968.523 383.249ZM963.573 383.249L960.744 386.077L960.744 386.077L963.573 383.249ZM947.274 366.95L950.102 364.121L943.274 357.293L943.274 366.95L947.274 366.95ZM947.274 465.05L943.274 465.05L943.274 474.707L950.102 467.879L947.274 465.05ZM968.523 453.701L971.351 456.529L968.523 453.701ZM938.471 478.803C941.399 481.732 946.148 481.732 949.077 478.803L943.42 473.146C943.616 472.951 943.932 472.951 944.127 473.146L938.471 478.803ZM916.197 456.529L938.471 478.803L944.127 473.146L921.854 450.873L916.197 456.529ZM916.197 445.923C913.268 448.852 913.268 453.601 916.197 456.529L921.854 450.873C922.049 451.068 922.049 451.384 921.854 451.58L916.197 445.923ZM926.803 445.923C923.874 442.994 919.126 442.994 916.197 445.923L921.854 451.58C921.658 451.775 921.342 451.775 921.146 451.58L926.803 445.923ZM943.102 462.222L926.803 445.923L921.146 451.58L937.445 467.879L943.102 462.222ZM936.274 366.95L936.274 465.05L944.274 465.05L944.274 366.95L936.274 366.95ZM926.803 386.077L943.102 369.778L937.445 364.121L921.146 380.42L926.803 386.077ZM916.197 386.077C919.126 389.006 923.874 389.006 926.803 386.077L921.146 380.42C921.342 380.225 921.658 380.225 921.854 380.42L916.197 386.077ZM916.197 375.471C913.268 378.399 913.268 383.148 916.197 386.077L921.854 380.42C922.049 380.616 922.049 380.932 921.854 381.127L916.197 375.471ZM938.471 353.197L916.197 375.471L921.854 381.127L944.127 358.854L938.471 353.197ZM949.077 353.197C946.148 350.268 941.399 350.268 938.471 353.197L944.127 358.854C943.932 359.049 943.616 359.049 943.42 358.854L949.077 353.197ZM971.351 375.471L949.077 353.197L943.42 358.854L965.694 381.127L971.351 375.471ZM971.351 386.077C974.28 383.148 974.28 378.399 971.351 375.471L965.694 381.127C965.499 380.932 965.499 380.616 965.694 380.42L971.351 386.077ZM960.744 386.077C963.673 389.006 968.422 389.006 971.351 386.077L965.694 380.42C965.889 380.225 966.206 380.225 966.401 380.42L960.744 386.077ZM944.445 369.778L960.744 386.077L966.401 380.42L950.102 364.121L944.445 369.778ZM951.274 465.05L951.274 366.95L943.274 366.95L943.274 465.05L951.274 465.05ZM960.744 445.923L944.445 462.222L950.102 467.879L966.401 451.58L960.744 445.923ZM971.351 445.923C968.422 442.994 963.673 442.994 960.744 445.923L966.401 451.58C966.206 451.775 965.889 451.775 965.694 451.58L971.351 445.923ZM971.351 456.529C974.28 453.601 974.28 448.852 971.351 445.923L965.694 451.58C965.499 451.384 965.499 451.068 965.694 450.873L971.351 456.529ZM949.077 478.803L971.351 456.529L965.694 450.873L943.42 473.146L949.077 478.803Z" fill="#FFABAB" mask="url(#path-24-outside-1_209_98)"/>
</svg>
