<svg width="255" height="255" viewBox="0 0 255 255" fill="none" xmlns="http://www.w3.org/2000/svg">
<path d="M58.2428 13.8816H196.758C221.257 13.8816 241.119 33.7427 241.119 58.2425V196.757C241.119 221.257 221.257 241.118 196.758 241.118H58.2428C33.7429 241.118 13.8818 221.257 13.8818 196.757V58.2425C13.8818 33.7427 33.7429 13.8816 58.2428 13.8816Z" fill="white"/>
<path fill-rule="evenodd" clip-rule="evenodd" d="M196.757 13.8817H58.2426C33.7427 13.8817 13.8817 33.7427 13.8817 58.2426V196.757C13.8817 221.257 33.7427 241.118 58.2426 241.118H196.757C221.257 241.118 241.118 221.257 241.118 196.757V58.2426C241.118 33.7427 221.257 13.8817 196.757 13.8817ZM58.2426 0C26.0761 0 0 26.0761 0 58.2426V196.757C0 228.924 26.0761 255 58.2426 255H196.757C228.924 255 255 228.924 255 196.757V58.2426C255 26.0761 228.924 0 196.757 0H58.2426Z" fill="black"/>
<path fill-rule="evenodd" clip-rule="evenodd" d="M174.728 39.2307H80.2722C57.6056 39.2307 39.2307 57.6056 39.2307 80.2722V174.728C39.2307 197.394 57.6056 215.769 80.2722 215.769H174.728C197.394 215.769 215.769 197.394 215.769 174.728V80.2722C215.769 57.6056 197.394 39.2307 174.728 39.2307ZM80.2722 34.4023C54.939 34.4023 34.4023 54.939 34.4023 80.2722V174.728C34.4023 200.061 54.939 220.598 80.2722 220.598H174.728C200.061 220.598 220.598 200.061 220.598 174.728V80.2722C220.598 54.939 200.061 34.4023 174.728 34.4023H80.2722Z" fill="black"/>
<path d="M80.968 153C79.624 153 78.592 152.424 77.872 151.272C77.152 150.12 77.08 148.896 77.656 147.6L97.888 99.288C98.608 97.608 99.784 96.768 101.416 96.768C103.144 96.768 104.32 97.608 104.944 99.288L125.248 147.744C125.776 149.088 125.68 150.312 124.96 151.416C124.288 152.472 123.256 153 121.864 153C121.144 153 120.448 152.808 119.776 152.424C119.152 151.992 118.696 151.416 118.408 150.696L100.552 106.344H102.568L84.424 150.696C84.088 151.464 83.584 152.04 82.912 152.424C82.288 152.808 81.64 153 80.968 153ZM84.784 140.616L87.664 134.424H115.888L118.768 140.616H84.784ZM142.465 153C140.353 153 138.481 152.424 136.849 151.272C135.217 150.12 133.945 148.56 133.033 146.592C132.121 144.576 131.665 142.272 131.665 139.68V100.368C131.665 99.312 132.001 98.448 132.673 97.776C133.345 97.104 134.209 96.768 135.265 96.768C136.321 96.768 137.185 97.104 137.857 97.776C138.529 98.448 138.865 99.312 138.865 100.368V139.68C138.865 141.456 139.201 142.92 139.873 144.072C140.545 145.224 141.409 145.8 142.465 145.8H144.265C145.225 145.8 145.993 146.136 146.569 146.808C147.193 147.48 147.505 148.344 147.505 149.4C147.505 150.456 147.049 151.32 146.137 151.992C145.225 152.664 144.049 153 142.609 153H142.465ZM169.019 153C166.619 153 164.459 152.4 162.539 151.2C160.619 149.952 159.107 148.272 158.003 146.16C156.899 144.048 156.347 141.672 156.347 139.032V104.688C156.347 103.632 156.683 102.768 157.355 102.096C158.027 101.424 158.891 101.088 159.947 101.088C161.003 101.088 161.867 101.424 162.539 102.096C163.211 102.768 163.547 103.632 163.547 104.688V139.032C163.547 140.952 164.075 142.56 165.131 143.856C166.187 145.152 167.483 145.8 169.019 145.8H171.467C172.331 145.8 173.051 146.136 173.627 146.808C174.251 147.48 174.563 148.344 174.563 149.4C174.563 150.456 174.155 151.32 173.339 151.992C172.571 152.664 171.563 153 170.315 153H169.019ZM153.035 121.248C152.027 121.248 151.211 120.96 150.587 120.384C149.963 119.808 149.651 119.088 149.651 118.224C149.651 117.264 149.963 116.496 150.587 115.92C151.211 115.344 152.027 115.056 153.035 115.056H169.667C170.675 115.056 171.491 115.344 172.115 115.92C172.739 116.496 173.051 117.264 173.051 118.224C173.051 119.088 172.739 119.808 172.115 120.384C171.491 120.96 170.675 121.248 169.667 121.248H153.035Z" fill="black"/>
</svg>
