<svg width="255" height="255" viewBox="0 0 255 255" fill="none" xmlns="http://www.w3.org/2000/svg">
<path d="M58.2428 13.8817H196.758C221.257 13.8817 241.119 33.7427 241.119 58.2426V196.757C241.119 221.257 221.257 241.118 196.758 241.118H58.2428C33.7429 241.118 13.8818 221.257 13.8818 196.757V58.2426C13.8818 33.7427 33.7429 13.8817 58.2428 13.8817Z" fill="white"/>
<path fill-rule="evenodd" clip-rule="evenodd" d="M196.757 13.8817H58.2426C33.7427 13.8817 13.8817 33.7427 13.8817 58.2426V196.757C13.8817 221.257 33.7427 241.118 58.2426 241.118H196.757C221.257 241.118 241.118 221.257 241.118 196.757V58.2426C241.118 33.7427 221.257 13.8817 196.757 13.8817ZM58.2426 0C26.0761 0 0 26.0761 0 58.2426V196.757C0 228.924 26.0761 255 58.2426 255H196.757C228.924 255 255 228.924 255 196.757V58.2426C255 26.0761 228.924 0 196.757 0H58.2426Z" fill="black"/>
<path fill-rule="evenodd" clip-rule="evenodd" d="M174.728 39.2307H80.2722C57.6056 39.2307 39.2307 57.6056 39.2307 80.2722V174.728C39.2307 197.394 57.6056 215.769 80.2722 215.769H174.728C197.394 215.769 215.769 197.394 215.769 174.728V80.2722C215.769 57.6056 197.394 39.2307 174.728 39.2307ZM80.2722 34.4023C54.939 34.4023 34.4023 54.939 34.4023 80.2722V174.728C34.4023 200.061 54.939 220.598 80.2722 220.598H174.728C200.061 220.598 220.598 200.061 220.598 174.728V80.2722C220.598 54.939 200.061 34.4023 174.728 34.4023H80.2722Z" fill="black"/>
<path d="M84.944 121C83.888 121 83 120.64 82.28 119.92C81.56 119.2 81.2 118.312 81.2 117.256V68.512C81.2 67.408 81.56 66.52 82.28 65.848C83 65.128 83.888 64.768 84.944 64.768H117.488C118.592 64.768 119.48 65.104 120.152 65.776C120.824 66.4 121.16 67.24 121.16 68.296C121.16 69.304 120.824 70.12 120.152 70.744C119.48 71.368 118.592 71.68 117.488 71.68H88.688V89.176H109.352C110.456 89.176 111.344 89.512 112.016 90.184C112.688 90.808 113.024 91.624 113.024 92.632C113.024 93.64 112.688 94.48 112.016 95.152C111.344 95.776 110.456 96.088 109.352 96.088H88.688V114.088H117.488C118.592 114.088 119.48 114.4 120.152 115.024C120.824 115.648 121.16 116.464 121.16 117.472C121.16 118.528 120.824 119.392 120.152 120.064C119.48 120.688 118.592 121 117.488 121H84.944Z" fill="black"/>
<path d="M151.36 188.432C149.888 188.432 148.48 188 147.136 187.136C146.528 186.752 146.144 186.256 145.984 185.648C145.856 185.04 145.968 184.464 146.32 183.92C146.672 183.344 147.168 183.008 147.808 182.912C148.448 182.784 149.12 182.912 149.824 183.296C150.048 183.424 150.304 183.536 150.592 183.632C150.88 183.696 151.136 183.728 151.36 183.728C152.224 183.728 153.104 183.328 154 182.528C154.928 181.696 155.744 180.544 156.448 179.072L169.648 152C170.352 150.592 171.392 150.192 172.768 150.8C174.144 151.408 174.48 152.432 173.776 153.872L160.576 180.992C159.424 183.328 158.064 185.152 156.496 186.464C154.928 187.776 153.216 188.432 151.36 188.432ZM158.368 180.416L142.336 154.112C141.568 152.8 141.872 151.744 143.248 150.944C144.592 150.176 145.664 150.464 146.464 151.808L161.488 177.968L158.368 180.416Z" fill="black"/>
</svg>
