<svg width="255" height="255" viewBox="0 0 255 255" fill="none" xmlns="http://www.w3.org/2000/svg">
<path d="M58.2428 13.8816H196.758C221.257 13.8816 241.119 33.7427 241.119 58.2425V196.757C241.119 221.257 221.257 241.118 196.758 241.118H58.2428C33.7429 241.118 13.8818 221.257 13.8818 196.757V58.2425C13.8818 33.7427 33.7429 13.8816 58.2428 13.8816Z" fill="white"/>
<path fill-rule="evenodd" clip-rule="evenodd" d="M196.757 13.8817H58.2426C33.7427 13.8817 13.8817 33.7427 13.8817 58.2426V196.757C13.8817 221.257 33.7427 241.118 58.2426 241.118H196.757C221.257 241.118 241.118 221.257 241.118 196.757V58.2426C241.118 33.7427 221.257 13.8817 196.757 13.8817ZM58.2426 0C26.0761 0 0 26.0761 0 58.2426V196.757C0 228.924 26.0761 255 58.2426 255H196.757C228.924 255 255 228.924 255 196.757V58.2426C255 26.0761 228.924 0 196.757 0H58.2426Z" fill="black"/>
<path fill-rule="evenodd" clip-rule="evenodd" d="M174.728 39.2307H80.2722C57.6056 39.2307 39.2307 57.6056 39.2307 80.2722V174.728C39.2307 197.394 57.6056 215.769 80.2722 215.769H174.728C197.394 215.769 215.769 197.394 215.769 174.728V80.2722C215.769 57.6056 197.394 39.2307 174.728 39.2307ZM80.2722 34.4023C54.939 34.4023 34.4023 54.939 34.4023 80.2722V174.728C34.4023 200.061 54.939 220.598 80.2722 220.598H174.728C200.061 220.598 220.598 200.061 220.598 174.728V80.2722C220.598 54.939 200.061 34.4023 174.728 34.4023H80.2722Z" fill="black"/>
<path d="M80.408 121C79.352 121 78.464 120.64 77.744 119.92C77.024 119.2 76.664 118.312 76.664 117.256V68.512C76.664 67.408 77.024 66.52 77.744 65.848C78.464 65.128 79.352 64.768 80.408 64.768H112.952C114.056 64.768 114.944 65.104 115.616 65.776C116.288 66.4 116.624 67.24 116.624 68.296C116.624 69.304 116.288 70.12 115.616 70.744C114.944 71.368 114.056 71.68 112.952 71.68H84.152V89.176H104.816C105.92 89.176 106.808 89.512 107.48 90.184C108.152 90.808 108.488 91.624 108.488 92.632C108.488 93.64 108.152 94.48 107.48 95.152C106.808 95.776 105.92 96.088 104.816 96.088H84.152V117.256C84.152 118.312 83.792 119.2 83.072 119.92C82.352 120.64 81.464 121 80.408 121Z" fill="black"/>
<path d="M145.312 188C144.416 188 143.728 187.616 143.248 186.848C142.768 186.08 142.72 185.264 143.104 184.4L156.592 152.192C157.072 151.072 157.856 150.512 158.944 150.512C160.096 150.512 160.88 151.072 161.296 152.192L174.832 184.496C175.184 185.392 175.12 186.208 174.64 186.944C174.192 187.648 173.504 188 172.576 188C172.096 188 171.632 187.872 171.184 187.616C170.768 187.328 170.464 186.944 170.272 186.464L158.368 156.896H159.712L147.616 186.464C147.392 186.976 147.056 187.36 146.608 187.616C146.192 187.872 145.76 188 145.312 188ZM147.856 179.744L149.776 175.616H168.592L170.512 179.744H147.856Z" fill="black"/>
</svg>
