<svg width="255" height="255" viewBox="0 0 255 255" fill="none" xmlns="http://www.w3.org/2000/svg">
<path d="M58.2428 13.8817H196.758C221.257 13.8817 241.119 33.7427 241.119 58.2426V196.757C241.119 221.257 221.257 241.118 196.758 241.118H58.2428C33.7429 241.118 13.8818 221.257 13.8818 196.757V58.2426C13.8818 33.7427 33.7429 13.8817 58.2428 13.8817Z" fill="white"/>
<path fill-rule="evenodd" clip-rule="evenodd" d="M196.757 13.8817H58.2426C33.7427 13.8817 13.8817 33.7427 13.8817 58.2426V196.757C13.8817 221.257 33.7427 241.118 58.2426 241.118H196.757C221.257 241.118 241.118 221.257 241.118 196.757V58.2426C241.118 33.7427 221.257 13.8817 196.757 13.8817ZM58.2426 0C26.0761 0 0 26.0761 0 58.2426V196.757C0 228.924 26.0761 255 58.2426 255H196.757C228.924 255 255 228.924 255 196.757V58.2426C255 26.0761 228.924 0 196.757 0H58.2426Z" fill="black"/>
<path fill-rule="evenodd" clip-rule="evenodd" d="M174.728 39.2307H80.2722C57.6056 39.2307 39.2307 57.6056 39.2307 80.2722V174.728C39.2307 197.394 57.6056 215.769 80.2722 215.769H174.728C197.394 215.769 215.769 197.394 215.769 174.728V80.2722C215.769 57.6056 197.394 39.2307 174.728 39.2307ZM80.2722 34.4023C54.939 34.4023 34.4023 54.939 34.4023 80.2722V174.728C34.4023 200.061 54.939 220.598 80.2722 220.598H174.728C200.061 220.598 220.598 200.061 220.598 174.728V80.2722C220.598 54.939 200.061 34.4023 174.728 34.4023H80.2722Z" fill="black"/>
<path d="M91.408 156C90.352 156 89.464 155.64 88.744 154.92C88.024 154.2 87.664 153.312 87.664 152.256V103.512C87.664 102.408 88.024 101.52 88.744 100.848C89.464 100.128 90.352 99.768 91.408 99.768H123.952C125.056 99.768 125.944 100.104 126.616 100.776C127.288 101.4 127.624 102.24 127.624 103.296C127.624 104.304 127.288 105.12 126.616 105.744C125.944 106.368 125.056 106.68 123.952 106.68H95.152V124.176H115.816C116.92 124.176 117.808 124.512 118.48 125.184C119.152 125.808 119.488 126.624 119.488 127.632C119.488 128.64 119.152 129.48 118.48 130.152C117.808 130.776 116.92 131.088 115.816 131.088H95.152V152.256C95.152 153.312 94.792 154.2 94.072 154.92C93.352 155.64 92.464 156 91.408 156ZM152.464 156C148.864 156 145.672 155.256 142.888 153.768C140.104 152.232 137.92 150.168 136.336 147.576C134.752 144.936 133.96 141.984 133.96 138.72C133.96 137.616 134.272 136.728 134.896 136.056C135.568 135.336 136.36 134.976 137.272 134.976C138.232 134.976 139.024 135.336 139.648 136.056C140.272 136.728 140.584 137.616 140.584 138.72C140.584 140.688 141.088 142.512 142.096 144.192C143.104 145.824 144.472 147.144 146.2 148.152C147.928 149.112 149.872 149.592 152.032 149.592C155.2 149.592 157.744 148.728 159.664 147C161.632 145.224 162.616 142.752 162.616 139.584C162.616 137.568 162.184 135.768 161.32 134.184C160.456 132.552 159.28 131.256 157.792 130.296C156.304 129.336 154.624 128.856 152.752 128.856C151.696 128.856 150.808 128.496 150.088 127.776C149.416 127.056 149.08 126.168 149.08 125.112C149.08 124.056 149.416 123.192 150.088 122.52C150.808 121.8 151.696 121.44 152.752 121.44C154.096 121.44 155.392 121.104 156.64 120.432C157.888 119.712 158.92 118.776 159.736 117.624C160.552 116.424 160.96 115.08 160.96 113.592C160.96 111.48 160.192 109.704 158.656 108.264C157.12 106.824 155.152 106.104 152.752 106.104C150.928 106.104 149.248 106.464 147.712 107.184C146.224 107.904 145.024 108.864 144.112 110.064C143.248 111.264 142.816 112.608 142.816 114.096C142.816 115.2 142.504 116.136 141.88 116.904C141.256 117.624 140.464 117.984 139.504 117.984C138.592 117.984 137.8 117.648 137.128 116.976C136.504 116.256 136.192 115.368 136.192 114.312C136.192 111.528 136.912 109.032 138.352 106.824C139.792 104.616 141.76 102.888 144.256 101.64C146.752 100.344 149.536 99.696 152.608 99.696C155.44 99.696 157.984 100.32 160.24 101.568C162.544 102.768 164.344 104.424 165.64 106.536C166.984 108.6 167.656 110.952 167.656 113.592C167.656 115.464 167.224 117.12 166.36 118.56C165.544 120 164.488 121.248 163.192 122.304C161.896 123.312 160.528 124.152 159.088 124.824C161.632 125.688 163.696 126.864 165.28 128.352C166.864 129.792 168.016 131.472 168.736 133.392C169.504 135.312 169.888 137.4 169.888 139.656C169.888 142.776 169.096 145.584 167.512 148.08C165.928 150.528 163.816 152.472 161.176 153.912C158.536 155.304 155.632 156 152.464 156Z" fill="black"/>
</svg>
