<svg width="255" height="255" viewBox="0 0 255 255" fill="none" xmlns="http://www.w3.org/2000/svg">
<path d="M58.2428 13.8817H196.758C221.257 13.8817 241.119 33.7427 241.119 58.2426V196.757C241.119 221.257 221.257 241.118 196.758 241.118H58.2428C33.7429 241.118 13.8818 221.257 13.8818 196.757V58.2426C13.8818 33.7427 33.7429 13.8817 58.2428 13.8817Z" fill="white"/>
<path fill-rule="evenodd" clip-rule="evenodd" d="M196.757 13.8817H58.2426C33.7427 13.8817 13.8817 33.7427 13.8817 58.2426V196.757C13.8817 221.257 33.7427 241.118 58.2426 241.118H196.757C221.257 241.118 241.118 221.257 241.118 196.757V58.2426C241.118 33.7427 221.257 13.8817 196.757 13.8817ZM58.2426 0C26.0761 0 0 26.0761 0 58.2426V196.757C0 228.924 26.0761 255 58.2426 255H196.757C228.924 255 255 228.924 255 196.757V58.2426C255 26.0761 228.924 0 196.757 0H58.2426Z" fill="black"/>
<path fill-rule="evenodd" clip-rule="evenodd" d="M174.728 39.2307H80.2722C57.6056 39.2307 39.2307 57.6056 39.2307 80.2722V174.728C39.2307 197.394 57.6056 215.769 80.2722 215.769H174.728C197.394 215.769 215.769 197.394 215.769 174.728V80.2722C215.769 57.6056 197.394 39.2307 174.728 39.2307ZM80.2722 34.4023C54.939 34.4023 34.4023 54.939 34.4023 80.2722V174.728C34.4023 200.061 54.939 220.598 80.2722 220.598H174.728C200.061 220.598 220.598 200.061 220.598 174.728V80.2722C220.598 54.939 200.061 34.4023 174.728 34.4023H80.2722Z" fill="black"/>
<path d="M91.408 156C90.352 156 89.464 155.64 88.744 154.92C88.024 154.2 87.664 153.312 87.664 152.256V103.512C87.664 102.408 88.024 101.52 88.744 100.848C89.464 100.128 90.352 99.768 91.408 99.768H123.952C125.056 99.768 125.944 100.104 126.616 100.776C127.288 101.4 127.624 102.24 127.624 103.296C127.624 104.304 127.288 105.12 126.616 105.744C125.944 106.368 125.056 106.68 123.952 106.68H95.152V124.176H115.816C116.92 124.176 117.808 124.512 118.48 125.184C119.152 125.808 119.488 126.624 119.488 127.632C119.488 128.64 119.152 129.48 118.48 130.152C117.808 130.776 116.92 131.088 115.816 131.088H95.152V152.256C95.152 153.312 94.792 154.2 94.072 154.92C93.352 155.64 92.464 156 91.408 156ZM162.544 156C161.584 156 160.768 155.64 160.096 154.92C159.424 154.2 159.088 153.336 159.088 152.328V143.256H135.112C134.008 143.256 133.144 142.92 132.52 142.248C131.896 141.576 131.536 140.808 131.44 139.944C131.392 139.032 131.632 138.216 132.16 137.496L159.736 101.352C160.12 100.872 160.552 100.488 161.032 100.2C161.56 99.912 162.136 99.768 162.76 99.768C163.768 99.768 164.584 100.128 165.208 100.848C165.832 101.568 166.144 102.456 166.144 103.512V136.632H170.464C171.472 136.632 172.336 136.872 173.056 137.352C173.776 137.832 174.136 138.696 174.136 139.944C174.136 140.856 173.776 141.648 173.056 142.32C172.336 142.944 171.472 143.256 170.464 143.256H166.144V152.328C166.144 153.336 165.808 154.2 165.136 154.92C164.464 155.64 163.6 156 162.544 156ZM139.432 138.648L137.488 136.632H159.088V106.968L161.32 109.848L139.432 138.648Z" fill="black"/>
</svg>
