<svg width="255" height="255" viewBox="0 0 255 255" fill="none" xmlns="http://www.w3.org/2000/svg">
<path d="M58.2428 13.8816H196.758C221.257 13.8816 241.119 33.7427 241.119 58.2425V196.757C241.119 221.257 221.257 241.118 196.758 241.118H58.2428C33.7429 241.118 13.8818 221.257 13.8818 196.757V58.2425C13.8818 33.7427 33.7429 13.8816 58.2428 13.8816Z" fill="white"/>
<path fill-rule="evenodd" clip-rule="evenodd" d="M196.757 13.8817H58.2426C33.7427 13.8817 13.8817 33.7427 13.8817 58.2426V196.757C13.8817 221.257 33.7427 241.118 58.2426 241.118H196.757C221.257 241.118 241.118 221.257 241.118 196.757V58.2426C241.118 33.7427 221.257 13.8817 196.757 13.8817ZM58.2426 0C26.0761 0 0 26.0761 0 58.2426V196.757C0 228.924 26.0761 255 58.2426 255H196.757C228.924 255 255 228.924 255 196.757V58.2426C255 26.0761 228.924 0 196.757 0H58.2426Z" fill="black"/>
<path fill-rule="evenodd" clip-rule="evenodd" d="M174.728 39.2307H80.2722C57.6056 39.2307 39.2307 57.6056 39.2307 80.2722V174.728C39.2307 197.394 57.6056 215.769 80.2722 215.769H174.728C197.394 215.769 215.769 197.394 215.769 174.728V80.2722C215.769 57.6056 197.394 39.2307 174.728 39.2307ZM80.2722 34.4023C54.939 34.4023 34.4023 54.939 34.4023 80.2722V174.728C34.4023 200.061 54.939 220.598 80.2722 220.598H174.728C200.061 220.598 220.598 200.061 220.598 174.728V80.2722C220.598 54.939 200.061 34.4023 174.728 34.4023H80.2722Z" fill="black"/>
<path d="M106.4 121.72C102.512 121.72 98.864 121 95.456 119.56C92.096 118.072 89.144 116.032 86.6 113.44C84.104 110.8 82.136 107.728 80.696 104.224C79.304 100.72 78.608 96.928 78.608 92.848C78.608 88.816 79.304 85.072 80.696 81.616C82.136 78.112 84.104 75.064 86.6 72.472C89.144 69.832 92.096 67.768 95.456 66.28C98.816 64.792 102.464 64.048 106.4 64.048C110.096 64.048 113.264 64.528 115.904 65.488C118.592 66.448 121.28 68.032 123.968 70.24C124.352 70.528 124.64 70.84 124.832 71.176C125.072 71.464 125.216 71.776 125.264 72.112C125.36 72.4 125.408 72.76 125.408 73.192C125.408 74.104 125.072 74.872 124.4 75.496C123.776 76.12 122.984 76.456 122.024 76.504C121.112 76.552 120.248 76.24 119.432 75.568C117.656 74.032 115.808 72.856 113.888 72.04C112.016 71.224 109.52 70.816 106.4 70.816C103.568 70.816 100.904 71.392 98.408 72.544C95.912 73.696 93.704 75.28 91.784 77.296C89.912 79.312 88.448 81.664 87.392 84.352C86.336 86.992 85.808 89.824 85.808 92.848C85.808 95.92 86.336 98.8 87.392 101.488C88.448 104.128 89.912 106.456 91.784 108.472C93.704 110.488 95.912 112.072 98.408 113.224C100.904 114.328 103.568 114.88 106.4 114.88C108.848 114.88 111.152 114.472 113.312 113.656C115.52 112.792 117.632 111.616 119.648 110.128C120.512 109.504 121.352 109.24 122.168 109.336C123.032 109.384 123.752 109.72 124.328 110.344C124.904 110.92 125.192 111.736 125.192 112.792C125.192 113.272 125.096 113.752 124.904 114.232C124.76 114.664 124.472 115.072 124.04 115.456C121.496 117.568 118.736 119.152 115.76 120.208C112.784 121.216 109.664 121.72 106.4 121.72ZM125.192 112.792L117.992 111.352V98.464H108.056C107 98.464 106.112 98.152 105.392 97.528C104.672 96.904 104.312 96.112 104.312 95.152C104.312 94.192 104.672 93.4 105.392 92.776C106.112 92.152 107 91.84 108.056 91.84H121.52C122.624 91.84 123.512 92.2 124.184 92.92C124.856 93.592 125.192 94.48 125.192 95.584V112.792Z" fill="black"/>
<path d="M149.296 188C148.592 188 148 187.76 147.52 187.28C147.04 186.8 146.8 186.208 146.8 185.504V153.008C146.8 152.272 147.04 151.68 147.52 151.232C148 150.752 148.592 150.512 149.296 150.512H174.832C175.568 150.512 176.16 150.752 176.608 151.232C177.088 151.68 177.328 152.272 177.328 153.008V185.504C177.328 186.208 177.088 186.8 176.608 187.28C176.16 187.76 175.568 188 174.832 188C174.128 188 173.536 187.76 173.056 187.28C172.576 186.8 172.336 186.208 172.336 185.504V154.928H151.792V185.504C151.792 186.208 151.552 186.8 151.072 187.28C150.624 187.76 150.032 188 149.296 188Z" fill="black"/>
</svg>
