<svg width="765" height="510" viewBox="0 0 765 510" fill="none" xmlns="http://www.w3.org/2000/svg">
<path d="M313.243 268.882H451.758C476.257 268.882 496.119 288.743 496.119 313.243V451.757C496.119 476.257 476.257 496.118 451.758 496.118H313.243C288.743 496.118 268.882 476.257 268.882 451.757V313.243C268.882 288.743 288.743 268.882 313.243 268.882Z" fill="white"/>
<path fill-rule="evenodd" clip-rule="evenodd" d="M451.757 268.882H313.243C288.743 268.882 268.882 288.743 268.882 313.243V451.757C268.882 476.257 288.743 496.118 313.243 496.118H451.757C476.257 496.118 496.118 476.257 496.118 451.757V313.243C496.118 288.743 476.257 268.882 451.757 268.882ZM313.243 255C281.076 255 255 281.076 255 313.243V451.757C255 483.924 281.076 510 313.243 510H451.757C483.924 510 510 483.924 510 451.757V313.243C510 281.076 483.924 255 451.757 255H313.243Z" fill="black"/>
<path fill-rule="evenodd" clip-rule="evenodd" d="M429.728 294.231H335.272C312.606 294.231 294.231 312.606 294.231 335.272V429.728C294.231 452.394 312.606 470.769 335.272 470.769H429.728C452.394 470.769 470.769 452.394 470.769 429.728V335.272C470.769 312.606 452.394 294.231 429.728 294.231ZM335.272 289.402C309.939 289.402 289.402 309.939 289.402 335.272V429.728C289.402 455.061 309.939 475.598 335.272 475.598H429.728C455.061 475.598 475.598 455.061 475.598 429.728V335.272C475.598 309.939 455.061 289.402 429.728 289.402H335.272Z" fill="black"/>
<path d="M354.056 376.72C350.984 376.72 348.056 376.24 345.272 375.28C342.488 374.32 340.064 372.976 338 371.248C335.936 369.52 334.424 367.528 333.464 365.272C332.984 364.264 332.984 363.328 333.464 362.464C333.992 361.6 334.856 361.048 336.056 360.808C336.92 360.616 337.76 360.76 338.576 361.24C339.44 361.672 340.088 362.344 340.52 363.256C341.096 364.456 342.032 365.56 343.328 366.568C344.672 367.576 346.28 368.392 348.152 369.016C350.024 369.64 351.992 369.952 354.056 369.952C356.36 369.952 358.472 369.592 360.392 368.872C362.36 368.152 363.944 367.12 365.144 365.776C366.344 364.384 366.944 362.68 366.944 360.664C366.944 358.12 365.936 355.84 363.92 353.824C361.952 351.808 358.688 350.56 354.128 350.08C348.176 349.504 343.496 347.752 340.088 344.824C336.68 341.896 334.976 338.272 334.976 333.952C334.976 330.784 335.864 328.096 337.64 325.888C339.416 323.68 341.816 322 344.84 320.848C347.912 319.696 351.32 319.12 355.064 319.12C357.992 319.12 360.536 319.528 362.696 320.344C364.904 321.16 366.824 322.288 368.456 323.728C370.088 325.168 371.504 326.872 372.704 328.84C373.376 329.896 373.64 330.904 373.496 331.864C373.4 332.776 372.944 333.496 372.128 334.024C371.216 334.6 370.232 334.72 369.176 334.384C368.12 334.048 367.328 333.424 366.8 332.512C366.032 331.12 365.096 329.944 363.992 328.984C362.888 328.024 361.592 327.28 360.104 326.752C358.616 326.176 356.864 325.888 354.848 325.888C351.296 325.84 348.32 326.512 345.92 327.904C343.52 329.248 342.32 331.336 342.32 334.168C342.32 335.608 342.68 337 343.4 338.344C344.168 339.64 345.536 340.768 347.504 341.728C349.52 342.688 352.4 343.36 356.144 343.744C361.856 344.32 366.296 346.072 369.464 349C372.68 351.88 374.288 355.696 374.288 360.448C374.288 363.184 373.712 365.56 372.56 367.576C371.456 369.592 369.944 371.296 368.024 372.688C366.152 374.032 363.992 375.04 361.544 375.712C359.144 376.384 356.648 376.72 354.056 376.72Z" fill="black"/>
<path d="M404.296 443C403.592 443 403 442.76 402.52 442.28C402.04 441.8 401.8 441.208 401.8 440.504V407.768C401.8 407.096 402.04 406.552 402.52 406.136C403 405.72 403.592 405.512 404.296 405.512C405.032 405.512 405.624 405.72 406.072 406.136C406.552 406.552 406.792 407.096 406.792 407.768V419.96H414.856C417.256 419.96 419.384 420.44 421.24 421.4C423.096 422.36 424.536 423.688 425.56 425.384C426.616 427.048 427.144 428.984 427.144 431.192C427.144 433.496 426.616 435.544 425.56 437.336C424.536 439.096 423.096 440.488 421.24 441.512C419.384 442.504 417.256 443 414.856 443H404.296ZM406.792 438.392H414.856C416.328 438.392 417.624 438.12 418.744 437.576C419.864 437.032 420.744 436.232 421.384 435.176C422.024 434.088 422.344 432.76 422.344 431.192C422.344 429.592 422.024 428.296 421.384 427.304C420.744 426.28 419.864 425.528 418.744 425.048C417.624 424.536 416.328 424.28 414.856 424.28H406.792V438.392ZM435.256 443C434.552 443 433.96 442.76 433.48 442.28C433 441.8 432.76 441.208 432.76 440.504V408.008C432.76 407.272 433 406.68 433.48 406.232C433.96 405.752 434.552 405.512 435.256 405.512C435.96 405.512 436.536 405.752 436.984 406.232C437.464 406.68 437.704 407.272 437.704 408.008V440.504C437.704 441.208 437.464 441.8 436.984 442.28C436.536 442.76 435.96 443 435.256 443Z" fill="black"/>
<path d="M254.243 13.8817H392.758C417.257 13.8817 437.119 33.7427 437.119 58.2426V196.757C437.119 221.257 417.257 241.118 392.758 241.118H254.243C229.743 241.118 209.882 221.257 209.882 196.757V58.2426C209.882 33.7427 229.743 13.8817 254.243 13.8817Z" fill="white"/>
<path fill-rule="evenodd" clip-rule="evenodd" d="M392.757 13.8817H254.243C229.743 13.8817 209.882 33.7427 209.882 58.2426V196.757C209.882 221.257 229.743 241.118 254.243 241.118H392.757C417.257 241.118 437.118 221.257 437.118 196.757V58.2426C437.118 33.7427 417.257 13.8817 392.757 13.8817ZM254.243 0C222.076 0 196 26.0761 196 58.2426V196.757C196 228.924 222.076 255 254.243 255H392.757C424.924 255 451 228.924 451 196.757V58.2426C451 26.0761 424.924 0 392.757 0H254.243Z" fill="black"/>
<path fill-rule="evenodd" clip-rule="evenodd" d="M370.728 39.2307H276.272C253.606 39.2307 235.231 57.6056 235.231 80.2722V174.728C235.231 197.394 253.606 215.769 276.272 215.769H370.728C393.394 215.769 411.769 197.394 411.769 174.728V80.2722C411.769 57.6056 393.394 39.2307 370.728 39.2307ZM276.272 34.4023C250.939 34.4023 230.402 54.939 230.402 80.2722V174.728C230.402 200.061 250.939 220.598 276.272 220.598H370.728C396.061 220.598 416.598 200.061 416.598 174.728V80.2722C416.598 54.939 396.061 34.4023 370.728 34.4023H276.272Z" fill="black"/>
<path d="M289.152 121C288.288 121 287.52 120.736 286.848 120.208C286.176 119.68 285.696 118.96 285.408 118.048L270.936 69.952C270.456 68.368 270.48 67.12 271.008 66.208C271.584 65.248 272.496 64.768 273.744 64.768C274.56 64.768 275.304 65.008 275.976 65.488C276.648 65.92 277.128 66.616 277.416 67.576L290.016 111.496H288.432L300.096 68.008C300.288 67.288 300.72 66.688 301.392 66.208C302.064 65.728 302.832 65.488 303.696 65.488C304.464 65.488 305.184 65.704 305.856 66.136C306.576 66.52 307.032 67.12 307.224 67.936L318.96 111.496H317.52L330.192 67.216C330.672 65.584 331.896 64.768 333.864 64.768C335.208 64.768 336.072 65.296 336.456 66.352C336.84 67.36 336.84 68.56 336.456 69.952L321.984 117.976C321.648 118.888 321.144 119.632 320.472 120.208C319.848 120.736 319.104 121 318.24 121C317.328 121 316.536 120.712 315.864 120.136C315.24 119.56 314.784 118.864 314.496 118.048L302.904 73.264H304.632L292.896 117.976C292.56 118.888 292.056 119.632 291.384 120.208C290.76 120.736 290.016 121 289.152 121Z" fill="black"/>
<path d="M375.824 196.544C375.12 196.544 374.528 196.304 374.048 195.824C373.568 195.344 373.328 194.752 373.328 194.048V188H345.296C344.592 188 344 187.76 343.52 187.28C343.04 186.8 342.8 186.208 342.8 185.504V153.008C342.8 152.272 343.04 151.68 343.52 151.232C344 150.752 344.592 150.512 345.296 150.512C346.032 150.512 346.624 150.752 347.072 151.232C347.552 151.68 347.792 152.272 347.792 153.008V183.584H368.336V153.008C368.336 152.272 368.576 151.68 369.056 151.232C369.536 150.752 370.128 150.512 370.832 150.512C371.568 150.512 372.16 150.752 372.608 151.232C373.088 151.68 373.328 152.272 373.328 153.008V183.584H375.824C376.56 183.584 377.152 183.824 377.6 184.304C378.08 184.752 378.32 185.344 378.32 186.08V194.048C378.32 194.752 378.08 195.344 377.6 195.824C377.152 196.304 376.56 196.544 375.824 196.544Z" fill="black"/>
<path d="M58.2427 261.882H196.757C221.257 261.882 241.118 281.743 241.118 306.243V444.757C241.118 469.257 221.257 489.118 196.757 489.118H58.2427C33.7428 489.118 13.8817 469.257 13.8817 444.757V306.243C13.8817 281.743 33.7428 261.882 58.2427 261.882Z" fill="white"/>
<path fill-rule="evenodd" clip-rule="evenodd" d="M196.757 261.882H58.2426C33.7427 261.882 13.8817 281.743 13.8817 306.243V444.757C13.8817 469.257 33.7427 489.118 58.2426 489.118H196.757C221.257 489.118 241.118 469.257 241.118 444.757V306.243C241.118 281.743 221.257 261.882 196.757 261.882ZM58.2426 248C26.0761 248 0 274.076 0 306.243V444.757C0 476.924 26.0761 503 58.2426 503H196.757C228.924 503 255 476.924 255 444.757V306.243C255 274.076 228.924 248 196.757 248H58.2426Z" fill="black"/>
<path fill-rule="evenodd" clip-rule="evenodd" d="M174.728 287.231H80.2722C57.6056 287.231 39.2307 305.606 39.2307 328.272V422.728C39.2307 445.394 57.6056 463.769 80.2722 463.769H174.728C197.394 463.769 215.769 445.394 215.769 422.728V328.272C215.769 305.606 197.394 287.231 174.728 287.231ZM80.2722 282.402C54.939 282.402 34.4023 302.939 34.4023 328.272V422.728C34.4023 448.061 54.939 468.598 80.2722 468.598H174.728C200.061 468.598 220.598 448.061 220.598 422.728V328.272C220.598 302.939 200.061 282.402 174.728 282.402H80.2722Z" fill="black"/>
<path d="M78.968 369C77.624 369 76.592 368.424 75.872 367.272C75.152 366.12 75.08 364.896 75.656 363.6L95.888 315.288C96.608 313.608 97.784 312.768 99.416 312.768C101.144 312.768 102.32 313.608 102.944 315.288L123.248 363.744C123.776 365.088 123.68 366.312 122.96 367.416C122.288 368.472 121.256 369 119.864 369C119.144 369 118.448 368.808 117.776 368.424C117.152 367.992 116.696 367.416 116.408 366.696L98.552 322.344H100.568L82.424 366.696C82.088 367.464 81.584 368.04 80.912 368.424C80.288 368.808 79.64 369 78.968 369ZM82.784 356.616L85.664 350.424H113.888L116.768 356.616H82.784Z" fill="black"/>
<path d="M163.168 431.68C160.512 431.68 158.08 431.328 155.872 430.624C153.664 429.92 151.744 428.928 150.112 427.648C148.512 426.336 147.264 424.8 146.368 423.04C145.504 421.28 145.072 419.344 145.072 417.232C145.072 415.12 145.504 413.2 146.368 411.472C147.264 409.712 148.512 408.192 150.112 406.912C151.744 405.6 153.664 404.592 155.872 403.888C158.08 403.184 160.512 402.832 163.168 402.832C165.824 402.832 168.256 403.184 170.464 403.888C172.672 404.592 174.576 405.6 176.176 406.912C177.808 408.192 179.056 409.712 179.92 411.472C180.816 413.2 181.264 415.12 181.264 417.232C181.264 419.344 180.816 421.28 179.92 423.04C179.056 424.8 177.808 426.336 176.176 427.648C174.576 428.928 172.672 429.92 170.464 430.624C168.256 431.328 165.824 431.68 163.168 431.68ZM163.168 427.648C165.76 427.648 168.048 427.216 170.032 426.352C172.048 425.488 173.616 424.272 174.736 422.704C175.888 421.136 176.464 419.312 176.464 417.232C176.464 415.152 175.888 413.344 174.736 411.808C173.616 410.24 172.048 409.024 170.032 408.16C168.048 407.296 165.76 406.864 163.168 406.864C160.576 406.864 158.272 407.296 156.256 408.16C154.272 409.024 152.704 410.24 151.552 411.808C150.432 413.344 149.872 415.152 149.872 417.232C149.872 419.312 150.432 421.136 151.552 422.704C152.704 424.272 154.272 425.488 156.256 426.352C158.272 427.216 160.576 427.648 163.168 427.648ZM163.264 436C162.56 436 161.968 435.76 161.488 435.28C161.008 434.8 160.768 434.208 160.768 433.504V430.768L161.008 428.752V405.904L160.768 404.416V401.008C160.768 400.272 161.008 399.68 161.488 399.232C161.968 398.752 162.56 398.512 163.264 398.512C164 398.512 164.592 398.752 165.04 399.232C165.52 399.68 165.76 400.272 165.76 401.008V404.464L165.52 405.904V428.752L165.76 430.384V433.504C165.76 434.208 165.52 434.8 165.04 435.28C164.592 435.76 164 436 163.264 436Z" fill="black"/>
<path d="M568.243 261.882H706.758C731.257 261.882 751.119 281.743 751.119 306.243V444.757C751.119 469.257 731.257 489.118 706.758 489.118H568.243C543.743 489.118 523.882 469.257 523.882 444.757V306.243C523.882 281.743 543.743 261.882 568.243 261.882Z" fill="white"/>
<path fill-rule="evenodd" clip-rule="evenodd" d="M706.757 261.882H568.243C543.743 261.882 523.882 281.743 523.882 306.243V444.757C523.882 469.257 543.743 489.118 568.243 489.118H706.757C731.257 489.118 751.118 469.257 751.118 444.757V306.243C751.118 281.743 731.257 261.882 706.757 261.882ZM568.243 248C536.076 248 510 274.076 510 306.243V444.757C510 476.924 536.076 503 568.243 503H706.757C738.924 503 765 476.924 765 444.757V306.243C765 274.076 738.924 248 706.757 248H568.243Z" fill="black"/>
<path fill-rule="evenodd" clip-rule="evenodd" d="M684.728 287.231H590.272C567.606 287.231 549.231 305.606 549.231 328.272V422.728C549.231 445.394 567.606 463.769 590.272 463.769H684.728C707.394 463.769 725.769 445.394 725.769 422.728V328.272C725.769 305.606 707.394 287.231 684.728 287.231ZM590.272 282.402C564.939 282.402 544.402 302.939 544.402 328.272V422.728C544.402 448.061 564.939 468.598 590.272 468.598H684.728C710.061 468.598 730.598 448.061 730.598 422.728V328.272C730.598 302.939 710.061 282.402 684.728 282.402H590.272Z" fill="black"/>
<path d="M594.944 369C593.888 369 593 368.64 592.28 367.92C591.56 367.2 591.2 366.312 591.2 365.256V316.512C591.2 315.408 591.56 314.52 592.28 313.848C593 313.128 593.888 312.768 594.944 312.768H607.976C612.104 312.768 615.848 313.464 619.208 314.856C622.616 316.2 625.568 318.144 628.064 320.688C630.56 323.184 632.48 326.136 633.824 329.544C635.168 332.952 635.84 336.72 635.84 340.848C635.84 344.976 635.168 348.768 633.824 352.224C632.48 355.632 630.56 358.608 628.064 361.152C625.568 363.648 622.616 365.592 619.208 366.984C615.848 368.328 612.104 369 607.976 369H594.944ZM598.688 362.376H607.976C612.008 362.376 615.56 361.464 618.632 359.64C621.752 357.768 624.2 355.224 625.976 352.008C627.752 348.744 628.64 345.024 628.64 340.848C628.64 336.624 627.752 332.904 625.976 329.688C624.2 326.472 621.752 323.952 618.632 322.128C615.56 320.304 612.008 319.392 607.976 319.392H598.688V362.376Z" fill="black"/>
<path d="M659.296 436C658.592 436 658 435.76 657.52 435.28C657.04 434.8 656.8 434.208 656.8 433.504V401.008C656.8 400.272 657.04 399.68 657.52 399.232C658 398.752 658.592 398.512 659.296 398.512H670.768C672.944 398.512 674.848 398.944 676.48 399.808C678.144 400.64 679.44 401.808 680.368 403.312C681.328 404.816 681.808 406.544 681.808 408.496C681.808 410.064 681.376 411.488 680.512 412.768C679.68 414.016 678.528 415.008 677.056 415.744C679.168 416.256 680.864 417.264 682.144 418.768C683.424 420.272 684.064 422.24 684.064 424.672C684.064 426.88 683.536 428.832 682.48 430.528C681.456 432.224 680.016 433.568 678.16 434.56C676.304 435.52 674.176 436 671.776 436H659.296ZM661.792 431.392H671.776C673.248 431.392 674.544 431.136 675.664 430.624C676.784 430.112 677.664 429.36 678.304 428.368C678.944 427.376 679.264 426.144 679.264 424.672C679.264 423.296 678.944 422.16 678.304 421.264C677.664 420.368 676.784 419.696 675.664 419.248C674.544 418.768 673.248 418.528 671.776 418.528H661.792V431.392ZM661.792 413.92H670.768C672.592 413.92 674.08 413.472 675.232 412.576C676.416 411.68 677.008 410.32 677.008 408.496C677.008 406.672 676.416 405.328 675.232 404.464C674.08 403.568 672.592 403.12 670.768 403.12H661.792V413.92Z" fill="black"/>
</svg>
