<svg width="255" height="255" viewBox="0 0 255 255" fill="none" xmlns="http://www.w3.org/2000/svg">
<path d="M58.2428 13.8816H196.758C221.257 13.8816 241.119 33.7427 241.119 58.2425V196.757C241.119 221.257 221.257 241.118 196.758 241.118H58.2428C33.7429 241.118 13.8818 221.257 13.8818 196.757V58.2425C13.8818 33.7427 33.7429 13.8816 58.2428 13.8816Z" fill="white"/>
<path fill-rule="evenodd" clip-rule="evenodd" d="M196.757 13.8817H58.2426C33.7427 13.8817 13.8817 33.7427 13.8817 58.2426V196.757C13.8817 221.257 33.7427 241.118 58.2426 241.118H196.757C221.257 241.118 241.118 221.257 241.118 196.757V58.2426C241.118 33.7427 221.257 13.8817 196.757 13.8817ZM58.2426 0C26.0761 0 0 26.0761 0 58.2426V196.757C0 228.924 26.0761 255 58.2426 255H196.757C228.924 255 255 228.924 255 196.757V58.2426C255 26.0761 228.924 0 196.757 0H58.2426Z" fill="black"/>
<path fill-rule="evenodd" clip-rule="evenodd" d="M174.728 39.2307H80.2722C57.6056 39.2307 39.2307 57.6056 39.2307 80.2722V174.728C39.2307 197.394 57.6056 215.769 80.2722 215.769H174.728C197.394 215.769 215.769 197.394 215.769 174.728V80.2722C215.769 57.6056 197.394 39.2307 174.728 39.2307ZM80.2722 34.4023C54.939 34.4023 34.4023 54.939 34.4023 80.2722V174.728C34.4023 200.061 54.939 220.598 80.2722 220.598H174.728C200.061 220.598 220.598 200.061 220.598 174.728V80.2722C220.598 54.939 200.061 34.4023 174.728 34.4023H80.2722Z" fill="black"/>
<path d="M80.984 121C79.88 121 79.04 120.664 78.464 119.992C77.888 119.272 77.6 118.456 77.6 117.544C77.6 116.584 77.888 115.72 78.464 114.952L96.608 90.76L99.848 87.88L116.408 65.848C117.08 65.128 117.968 64.768 119.072 64.768C120.08 64.768 120.872 65.08 121.448 65.704C122.024 66.328 122.336 67.096 122.384 68.008C122.432 68.92 122.168 69.808 121.592 70.672L104.096 94L101 96.736L83.576 119.92C82.856 120.64 81.992 121 80.984 121ZM118.64 121C118.016 121 117.464 120.904 116.984 120.712C116.552 120.472 116.144 120.112 115.76 119.632L98.984 96.376L96.32 94.144L79.4 70.672C78.824 69.904 78.584 69.064 78.68 68.152C78.776 67.24 79.112 66.448 79.688 65.776C80.312 65.104 81.128 64.768 82.136 64.768C83.384 64.768 84.272 65.128 84.8 65.848L100.784 88.024L103.52 90.256L121.304 114.952C121.88 115.72 122.144 116.584 122.096 117.544C122.048 118.504 121.712 119.32 121.088 119.992C120.512 120.664 119.696 121 118.64 121Z" fill="black"/>
<path d="M159.328 175.76C156.256 175.76 153.664 175.12 151.552 173.84C149.44 172.528 147.84 170.688 146.752 168.32C145.664 165.92 145.12 163.072 145.12 159.776V153.008C145.12 152.272 145.36 151.68 145.84 151.232C146.32 150.752 146.912 150.512 147.616 150.512C148.352 150.512 148.944 150.752 149.392 151.232C149.872 151.68 150.112 152.272 150.112 153.008V159.776C150.112 162.208 150.4 164.304 150.976 166.064C151.584 167.792 152.576 169.12 153.952 170.048C155.36 170.976 157.248 171.44 159.616 171.44C161.6 171.44 163.344 171.2 164.848 170.72C166.352 170.24 167.52 169.584 168.352 168.752C169.216 167.888 169.648 166.896 169.648 165.776H172C172 167.728 171.456 169.456 170.368 170.96C169.312 172.464 167.824 173.648 165.904 174.512C164.016 175.344 161.824 175.76 159.328 175.76ZM172.144 188C171.44 188 170.848 187.76 170.368 187.28C169.888 186.8 169.648 186.208 169.648 185.504V153.008C169.648 152.272 169.888 151.68 170.368 151.232C170.848 150.752 171.44 150.512 172.144 150.512C172.88 150.512 173.472 150.752 173.92 151.232C174.4 151.68 174.64 152.272 174.64 153.008V185.504C174.64 186.208 174.4 186.8 173.92 187.28C173.472 187.76 172.88 188 172.144 188Z" fill="black"/>
</svg>
