<svg width="255" height="256" viewBox="0 0 255 256" fill="none" xmlns="http://www.w3.org/2000/svg">
<g filter="url(#filter0_d_209_99)">
<path d="M58.2428 13.8816H196.758C221.257 13.8816 241.119 33.7427 241.119 58.2425V196.757C241.119 221.257 221.257 241.118 196.758 241.118H58.2428C33.7429 241.118 13.8818 221.257 13.8818 196.757V58.2425C13.8818 33.7427 33.7429 13.8816 58.2428 13.8816Z" fill="white"/>
</g>
<path fill-rule="evenodd" clip-rule="evenodd" d="M196.757 13.8817H58.2426C33.7427 13.8817 13.8817 33.7427 13.8817 58.2426V196.757C13.8817 221.257 33.7427 241.118 58.2426 241.118H196.757C221.257 241.118 241.118 221.257 241.118 196.757V58.2426C241.118 33.7427 221.257 13.8817 196.757 13.8817ZM58.2426 0C26.0761 0 0 26.0761 0 58.2426V196.757C0 228.924 26.0761 255 58.2426 255H196.757C228.924 255 255 228.924 255 196.757V58.2426C255 26.0761 228.924 0 196.757 0H58.2426Z" fill="black"/>
<path fill-rule="evenodd" clip-rule="evenodd" d="M174.728 39.2307H80.2722C57.6056 39.2307 39.2307 57.6056 39.2307 80.2722V174.728C39.2307 197.394 57.6056 215.769 80.2722 215.769H174.728C197.394 215.769 215.769 197.394 215.769 174.728V80.2722C215.769 57.6056 197.394 39.2307 174.728 39.2307ZM80.2722 34.4023C54.939 34.4023 34.4023 54.939 34.4023 80.2722V174.728C34.4023 200.061 54.939 220.598 80.2722 220.598H174.728C200.061 220.598 220.598 200.061 220.598 174.728V80.2722C220.598 54.939 200.061 34.4023 174.728 34.4023H80.2722Z" fill="black"/>
<path d="M98.048 121C97.04 121 96.176 120.64 95.456 119.92C94.736 119.2 94.376 118.312 94.376 117.256V100.48L75.152 70.6C74.528 69.592 74.288 68.656 74.432 67.792C74.576 66.88 74.984 66.16 75.656 65.632C76.376 65.056 77.192 64.768 78.104 64.768C78.92 64.768 79.568 64.96 80.048 65.344C80.528 65.68 80.984 66.184 81.416 66.856L99.704 95.872H96.824L115.4 66.568C115.784 65.992 116.24 65.56 116.768 65.272C117.296 64.936 117.944 64.768 118.712 64.768C119.576 64.768 120.296 65.08 120.872 65.704C121.448 66.28 121.784 67.024 121.88 67.936C121.976 68.8 121.736 69.688 121.16 70.6L101.792 100.48V117.256C101.792 118.312 101.432 119.2 100.712 119.92C99.992 120.64 99.104 121 98.048 121Z" fill="black"/>
<path d="M149.296 188C148.592 188 148 187.76 147.52 187.28C147.04 186.8 146.8 186.208 146.8 185.504V153.008C146.8 152.272 147.04 151.68 147.52 151.232C148 150.752 148.592 150.512 149.296 150.512C150.032 150.512 150.624 150.752 151.072 151.232C151.552 151.68 151.792 152.272 151.792 153.008V166.784H174.064V153.008C174.064 152.272 174.304 151.68 174.784 151.232C175.264 150.752 175.856 150.512 176.56 150.512C177.296 150.512 177.888 150.752 178.336 151.232C178.784 151.68 179.008 152.272 179.008 153.008V185.504C179.008 186.208 178.784 186.8 178.336 187.28C177.888 187.76 177.296 188 176.56 188C175.856 188 175.264 187.76 174.784 187.28C174.304 186.8 174.064 186.208 174.064 185.504V171.2H151.792V185.504C151.792 186.208 151.552 186.8 151.072 187.28C150.624 187.76 150.032 188 149.296 188Z" fill="black"/>
<defs>
<filter id="filter0_d_209_99" x="3.88184" y="7.88159" width="247.237" height="247.237" filterUnits="userSpaceOnUse" color-interpolation-filters="sRGB">
<feFlood flood-opacity="0" result="BackgroundImageFix"/>
<feColorMatrix in="SourceAlpha" type="matrix" values="0 0 0 0 0 0 0 0 0 0 0 0 0 0 0 0 0 0 127 0" result="hardAlpha"/>
<feOffset dy="4"/>
<feGaussianBlur stdDeviation="5"/>
<feComposite in2="hardAlpha" operator="out"/>
<feColorMatrix type="matrix" values="0 0 0 0 0 0 0 0 0 0 0 0 0 0 0 0 0 0 0.6 0"/>
<feBlend mode="normal" in2="BackgroundImageFix" result="effect1_dropShadow_209_99"/>
<feBlend mode="normal" in="SourceGraphic" in2="effect1_dropShadow_209_99" result="shape"/>
</filter>
</defs>
</svg>
