<svg width="255" height="255" viewBox="0 0 255 255" fill="none" xmlns="http://www.w3.org/2000/svg">
<path d="M58.2428 13.8816H196.758C221.257 13.8816 241.119 33.7427 241.119 58.2425V196.757C241.119 221.257 221.257 241.118 196.758 241.118H58.2428C33.7429 241.118 13.8818 221.257 13.8818 196.757V58.2425C13.8818 33.7427 33.7429 13.8816 58.2428 13.8816Z" fill="white"/>
<path fill-rule="evenodd" clip-rule="evenodd" d="M196.757 13.8817H58.2426C33.7427 13.8817 13.8817 33.7427 13.8817 58.2426V196.757C13.8817 221.257 33.7427 241.118 58.2426 241.118H196.757C221.257 241.118 241.118 221.257 241.118 196.757V58.2426C241.118 33.7427 221.257 13.8817 196.757 13.8817ZM58.2426 0C26.0761 0 0 26.0761 0 58.2426V196.757C0 228.924 26.0761 255 58.2426 255H196.757C228.924 255 255 228.924 255 196.757V58.2426C255 26.0761 228.924 0 196.757 0H58.2426Z" fill="black"/>
<path fill-rule="evenodd" clip-rule="evenodd" d="M174.728 39.2307H80.2722C57.6056 39.2307 39.2307 57.6056 39.2307 80.2722V174.728C39.2307 197.394 57.6056 215.769 80.2722 215.769H174.728C197.394 215.769 215.769 197.394 215.769 174.728V80.2722C215.769 57.6056 197.394 39.2307 174.728 39.2307ZM80.2722 34.4023C54.939 34.4023 34.4023 54.939 34.4023 80.2722V174.728C34.4023 200.061 54.939 220.598 80.2722 220.598H174.728C200.061 220.598 220.598 200.061 220.598 174.728V80.2722C220.598 54.939 200.061 34.4023 174.728 34.4023H80.2722Z" fill="black"/>
<path d="M106.4 121.72C102.512 121.72 98.864 121 95.456 119.56C92.096 118.072 89.144 116.032 86.6 113.44C84.104 110.8 82.136 107.728 80.696 104.224C79.304 100.72 78.608 96.928 78.608 92.848C78.608 88.816 79.304 85.072 80.696 81.616C82.136 78.112 84.104 75.064 86.6 72.472C89.144 69.832 92.096 67.768 95.456 66.28C98.816 64.792 102.464 64.048 106.4 64.048C110.096 64.048 113.264 64.528 115.904 65.488C118.592 66.448 121.28 68.032 123.968 70.24C124.352 70.528 124.64 70.84 124.832 71.176C125.072 71.464 125.216 71.776 125.264 72.112C125.36 72.4 125.408 72.76 125.408 73.192C125.408 74.104 125.072 74.872 124.4 75.496C123.776 76.072 123.008 76.408 122.096 76.504C121.184 76.552 120.296 76.24 119.432 75.568C117.656 74.032 115.808 72.856 113.888 72.04C112.016 71.224 109.52 70.816 106.4 70.816C103.568 70.816 100.904 71.392 98.408 72.544C95.912 73.696 93.704 75.28 91.784 77.296C89.912 79.312 88.448 81.664 87.392 84.352C86.336 86.992 85.808 89.824 85.808 92.848C85.808 95.92 86.336 98.8 87.392 101.488C88.448 104.128 89.912 106.456 91.784 108.472C93.704 110.488 95.912 112.072 98.408 113.224C100.904 114.328 103.568 114.88 106.4 114.88C108.848 114.88 111.152 114.472 113.312 113.656C115.52 112.792 117.632 111.616 119.648 110.128C120.512 109.504 121.352 109.24 122.168 109.336C123.032 109.384 123.752 109.72 124.328 110.344C124.904 110.92 125.192 111.736 125.192 112.792C125.192 113.272 125.096 113.752 124.904 114.232C124.712 114.664 124.424 115.072 124.04 115.456C121.448 117.52 118.664 119.08 115.688 120.136C112.76 121.192 109.664 121.72 106.4 121.72Z" fill="black"/>
<path d="M163.6 188.48C161.008 188.48 158.576 188 156.304 187.04C154.064 186.048 152.096 184.688 150.4 182.96C148.736 181.2 147.424 179.152 146.464 176.816C145.536 174.48 145.072 171.952 145.072 169.232C145.072 166.544 145.536 164.048 146.464 161.744C147.424 159.408 148.736 157.376 150.4 155.648C152.096 153.888 154.064 152.512 156.304 151.52C158.544 150.528 160.976 150.032 163.6 150.032C166.064 150.032 168.176 150.352 169.936 150.992C171.728 151.632 173.52 152.688 175.312 154.16C175.568 154.352 175.76 154.56 175.888 154.784C176.048 154.976 176.144 155.184 176.176 155.408C176.24 155.6 176.272 155.84 176.272 156.128C176.272 156.736 176.048 157.248 175.6 157.664C175.184 158.048 174.672 158.272 174.064 158.336C173.456 158.368 172.864 158.16 172.288 157.712C171.104 156.688 169.872 155.904 168.592 155.36C167.344 154.816 165.68 154.544 163.6 154.544C161.712 154.544 159.936 154.928 158.272 155.696C156.608 156.464 155.136 157.52 153.856 158.864C152.608 160.208 151.632 161.776 150.928 163.568C150.224 165.328 149.872 167.216 149.872 169.232C149.872 171.28 150.224 173.2 150.928 174.992C151.632 176.752 152.608 178.304 153.856 179.648C155.136 180.992 156.608 182.048 158.272 182.816C159.936 183.552 161.712 183.92 163.6 183.92C165.232 183.92 166.768 183.648 168.208 183.104C169.68 182.528 171.088 181.744 172.432 180.752C173.008 180.336 173.568 180.16 174.112 180.224C174.688 180.256 175.168 180.48 175.552 180.896C175.936 181.28 176.128 181.824 176.128 182.528C176.128 182.848 176.064 183.168 175.936 183.488C175.808 183.776 175.616 184.048 175.36 184.304C173.632 185.68 171.776 186.72 169.792 187.424C167.84 188.128 165.776 188.48 163.6 188.48Z" fill="black"/>
</svg>
