<?xml version="1.0" encoding="UTF-8" standalone="no"?>
<!-- Created with Inkscape (http://www.inkscape.org/) -->

<svg
   xmlns:dc="http://purl.org/dc/elements/1.1/"
   xmlns:cc="http://creativecommons.org/ns#"
   xmlns:rdf="http://www.w3.org/1999/02/22-rdf-syntax-ns#"
   xmlns:svg="http://www.w3.org/2000/svg"
   xmlns="http://www.w3.org/2000/svg"
   xmlns:sodipodi="http://sodipodi.sourceforge.net/DTD/sodipodi-0.dtd"
   xmlns:inkscape="http://www.inkscape.org/namespaces/inkscape"
   version="1.1"
   id="svg869"
   width="986"
   height="320"
   viewBox="0 0 986 320"
   sodipodi:docname="Danganronpa_1_English_logo.svg"
   inkscape:version="0.92.2 2405546, 2018-03-11">
  <metadata
     id="metadata875">
    <rdf:RDF>
      <cc:Work
         rdf:about="">
        <dc:format>image/svg+xml</dc:format>
        <dc:type
           rdf:resource="http://purl.org/dc/dcmitype/StillImage" />
        <dc:title></dc:title>
      </cc:Work>
    </rdf:RDF>
  </metadata>
  <defs
     id="defs873" />
  <sodipodi:namedview
     pagecolor="#ffffff"
     bordercolor="#666666"
     borderopacity="1"
     objecttolerance="10"
     gridtolerance="10"
     guidetolerance="10"
     inkscape:pageopacity="0"
     inkscape:pageshadow="2"
     inkscape:window-width="1920"
     inkscape:window-height="1020"
     id="namedview871"
     showgrid="false"
     inkscape:zoom="1.1075051"
     inkscape:cx="493"
     inkscape:cy="160"
     inkscape:window-x="0"
     inkscape:window-y="0"
     inkscape:window-maximized="1"
     inkscape:current-layer="svg869" />
  <path
     style="fill:#000000;stroke-width:1.07056844"
     d="m 452.88326,318.72486 c -0.32515,-0.57337 5.06988,-10.62542 11.98895,-22.33788 l 12.58014,-21.29535 224.26466,-0.0147 c 126.87997,-0.007 224.50521,0.40944 224.81862,0.96212 0.30469,0.53729 -1.27316,4.05784 -3.50631,7.82343 -2.23316,3.76559 -3.75142,6.84654 -3.37391,6.84654 0.3775,0 -0.0203,0.62866 -0.88404,1.39704 -0.86373,0.76837 -5.09498,7.30652 -9.40278,14.52921 l -7.83236,13.13219 H 677.50534 c -137.48747,0 -224.25925,-0.40273 -224.62208,-1.04253 z m 73.03307,-9.62424 c 2.34331,-1.78883 15.62894,-21.37093 15.62894,-23.03604 0,-0.51908 -5.96,-0.94379 -13.24446,-0.94379 h -13.24443 l -8.29078,12.3004 c -4.55992,6.76521 -8.29078,12.54897 -8.29078,12.85277 0,0.3038 5.66569,0.55238 12.5904,0.55238 9.69156,0 13.11093,-0.39734 14.85111,-1.72572 z m -18.04121,-1.50331 c 0.18801,-0.54657 3.11064,-5.30594 6.49475,-10.57636 l 6.15292,-9.5826 6.40929,-0.0411 c 3.5251,-0.0226 6.40929,0.228 6.40929,0.55697 0,0.32898 -3.03647,5.10685 -6.7477,10.61751 l -6.74771,10.01938 h -6.15634 c -3.38598,0 -6.00251,-0.44721 -5.8145,-0.99377 z m 28.82064,-0.68268 c 3.91772,-3.65475 4.66013,-3.91172 11.30113,-3.91172 h 7.10795 l -0.67334,3.91172 -0.67335,3.91171 h 4.00809 4.00808 l 1.71799,-9.77928 c 0.94487,-5.37862 1.96764,-11.16236 2.27278,-12.85278 0.52041,-2.88293 0.33214,-3.07349 -3.03658,-3.07349 -3.01926,0 -5.76864,1.887 -17.25838,11.845 -16.15378,14.00028 -16.00972,13.86055 -14.29147,13.86055 0.72816,0 3.21086,-1.76027 5.5171,-3.91171 z m 8.34654,-7.1021 c 0.66926,-1.18017 11.36224,-10.22121 12.0888,-10.22121 0.28976,0 0.0706,2.51468 -0.48698,5.58817 l -1.01382,5.58816 h -5.56481 c -3.06065,0 -5.32108,-0.4298 -5.02319,-0.95512 z m 30.65954,0.35859 c 3.83965,-5.81889 7.41603,-10.5798 7.94751,-10.5798 0.53698,0 0.96635,4.71752 0.96635,10.61751 v 10.61751 h 4.5278 4.52781 l 8.29078,-12.3004 c 4.55992,-6.76522 8.29077,-12.54896 8.29077,-12.85276 0,-0.30382 -0.57684,-0.52686 -1.28186,-0.49566 -0.70502,0.0312 -4.28141,4.79304 -7.94752,10.58188 -3.66612,5.78884 -7.01176,10.54121 -7.43478,10.56079 -0.42301,0.0195 -0.76911,-4.74226 -0.76911,-10.58189 v -10.61751 h -4.95002 -4.95001 l -7.61219,11.36875 c -9.46029,14.12887 -9.5806,14.34608 -7.91953,14.29909 0.73305,-0.0208 4.47435,-4.79862 8.314,-10.61751 z m 44.29314,9.53758 c 0.39392,-0.69465 -1.55606,-1.11762 -5.15237,-1.11762 -3.18239,0 -5.63233,-0.46843 -5.44432,-1.04095 0.188,-0.57251 3.23183,-5.35038 6.76406,-10.6175 l 6.42224,-9.57657 h 9.66865 c 5.33959,0 9.95244,-0.50041 10.30244,-1.11763 0.40912,-0.72146 -3.74407,-1.11764 -11.71639,-1.11764 -12.05352,0 -12.42309,0.0739 -15.38513,3.07349 -4.21132,4.26478 -14.54877,20.40199 -13.85415,21.62691 0.78236,1.37963 17.60716,1.27676 18.39497,-0.11249 z m 12.56181,-6.42638 5.03522,-7.54402 -8.76953,0.18462 c -5.78322,0.12176 -8.90938,0.64191 -9.18023,1.52747 -0.28895,0.94474 0.84248,1.21258 3.81659,0.90347 5.07679,-0.52766 5.30195,0.56915 1.1925,5.8089 -3.8774,4.94388 -3.90938,6.66358 -0.12394,6.66358 2.51556,0 3.79906,-1.20593 8.02939,-7.54402 z m 5.82998,3.63231 c 4.04651,-3.61377 4.90804,-3.91172 11.31069,-3.91172 h 6.93055 l -0.67334,3.91172 -0.67335,3.91171 h 4.14843 c 2.28162,0 4.14841,-0.12673 4.14841,-0.28163 0,-0.15489 0.92293,-5.56043 2.05097,-12.01233 1.12804,-6.45188 2.05097,-12.10891 2.05097,-12.57115 0,-0.46224 -1.59706,-0.84044 -3.54903,-0.84044 -2.987,0 -5.78834,1.96654 -17.68965,12.41816 -7.77732,6.82999 -14.33288,12.61373 -14.56789,12.85277 -0.235,0.23904 0.1488,0.43462 0.85291,0.43462 0.70409,0 3.25125,-1.76027 5.66033,-3.91171 z m 8.78361,-6.99993 c 0,-1.03891 11.25035,-10.7286 11.78282,-10.1483 0.208,0.22669 -0.0881,2.79471 -0.65794,5.7067 l -1.03612,5.29455 h -5.04438 c -2.77441,0 -5.04438,-0.38384 -5.04438,-0.85295 z m 30.11856,0.29413 c 3.83501,-5.83963 7.39511,-10.61751 7.91133,-10.61751 0.51623,0 0.93859,4.80544 0.93859,10.67874 v 10.67874 l 4.83598,-0.34064 4.83598,-0.34064 7.91683,-11.73514 c 4.35426,-6.45432 7.94642,-12.11234 7.9826,-12.57336 0.21821,-2.78093 -2.71846,0.45229 -8.84809,9.74157 -3.83964,5.81889 -7.32728,10.59678 -7.75029,10.61751 -0.42301,0.0208 -0.76912,-4.74017 -0.76912,-10.5798 v -10.61751 h -4.92555 c -4.82584,0 -5.01056,0.13009 -9.12442,6.42639 -2.30938,3.53451 -6.11737,9.31825 -8.4622,12.85277 -2.52498,3.80603 -3.70291,6.42639 -2.88888,6.42639 0.75596,0 4.51223,-4.77788 8.34724,-10.61751 z m 35.81252,4.42813 c 3.44026,-5.4 4.29837,-6.10458 7.43477,-6.10458 4.03826,0 4.05202,0.0462 2.10777,7.08699 l -1.43787,5.20697 h 3.92881 c 3.8798,0 3.94928,-0.0767 5.56847,-6.14698 1.19703,-4.48765 2.13376,-6.14698 3.4701,-6.14698 2.42618,0 10.41808,-9.62169 10.41808,-12.54264 0,-0.47792 -5.88373,-0.85927 -13.07495,-0.84745 l -13.07495,0.0214 -8.46335,12.83128 -8.46336,12.83126 3.84866,-0.0423 c 3.48717,-0.0385 4.21397,-0.61579 7.73782,-6.14697 z m 6.49578,-9.73688 c 3.7576,-6.87236 4.72186,-7.54402 10.83039,-7.54402 3.27804,0 5.96007,0.32972 5.96007,0.73273 0,0.40299 -1.17716,2.41474 -2.61591,4.47053 -2.45476,3.50754 -2.99543,3.7378 -8.77715,3.7378 -4.65274,0 -5.97423,-0.34205 -5.3974,-1.39704 z m 41.70848,14.89415 c 2.23169,-0.92473 15.3041,-18.8732 16.76235,-23.01475 0.49701,-1.4116 -1.31263,-1.65869 -12.14829,-1.65869 -8.58878,0 -13.28964,0.45465 -14.44492,1.39704 -2.43146,1.98343 -15.08716,21.18415 -15.08716,22.88965 0,1.71425 20.93032,2.03911 24.91802,0.38675 z m -16.36231,-2.82556 c 0.31417,-0.8923 3.24774,-5.65712 6.51901,-10.58846 l 5.94775,-8.96607 6.46982,-0.029 c 4.91501,-0.022 6.28148,0.30669 5.68615,1.368 -0.431,0.76837 -3.50262,5.54625 -6.82582,10.61751 l -6.04218,9.22047 h -6.16299 c -4.96564,0 -6.052,-0.31521 -5.59174,-1.62241 z m 33.6486,-7.56647 7.53179,-11.42414 0.29225,11.42414 0.29224,11.42414 4.83518,-0.0182 c 4.8216,-0.0182 4.85014,-0.041 10.15683,-8.10283 2.9269,-4.44652 6.77393,-10.22205 8.54898,-12.83451 2.13496,-3.1422 2.74131,-4.74994 1.79142,-4.74994 -0.78975,0 -4.6368,4.84797 -8.54898,10.77327 -4.78176,7.24235 -7.17946,10.08119 -7.31566,8.66164 -0.11143,-1.16139 -0.49691,-6.00935 -0.85661,-10.77326 l -0.65401,-8.66165 -4.78356,0.0619 -4.78357,0.0619 -8.43421,12.79084 c -4.73427,7.17973 -7.8134,12.79083 -7.01904,12.79083 0.77833,0 4.80447,-5.14086 8.94695,-11.42414 z m 34.03222,6.39279 2.91426,-5.02734 h 9.20264 c 5.06144,0 10.05012,-0.49432 11.08595,-1.09851 2.17428,-1.26819 9.26219,-11.44684 9.26219,-13.30105 0,-0.85303 -4.15017,-1.2473 -13.12945,-1.2473 h -13.12944 l -4.19886,6.42639 c -2.30939,3.53451 -6.11737,9.31825 -8.46221,12.85277 l -4.26334,6.42639 3.90201,-0.002 c 3.50803,-0.002 4.19625,-0.5096 6.81625,-5.02935 z m 5.80239,-7.89946 c 0,-0.35028 1.40659,-2.86495 3.12572,-5.58816 3.10628,-4.92051 3.16371,-4.95131 9.22938,-4.95131 3.35701,0 6.10366,0.40386 6.10366,0.89746 0,0.4936 -1.42433,3.00827 -3.16517,5.58815 -3.09822,4.59149 -3.29346,4.69071 -9.22938,4.69071 -3.33532,0 -6.06421,-0.28658 -6.06421,-0.63685 z m 19.76218,9.0191 c 3.91772,-3.65475 4.66013,-3.91172 11.30113,-3.91172 h 7.10795 l -0.67334,3.91172 -0.67335,3.91171 h 4.14843 c 2.28162,0 4.14841,-0.12673 4.14841,-0.28163 0,-0.15489 0.92294,-5.56043 2.05097,-12.01233 1.12804,-6.45188 2.05098,-12.10891 2.05098,-12.57115 0,-0.46224 -1.59706,-0.84044 -3.54904,-0.84044 -2.98699,0 -5.78834,1.96654 -17.68964,12.41816 -7.77733,6.82999 -14.33289,12.61373 -14.5679,12.85277 -0.235,0.23904 0.1531,0.43462 0.86248,0.43462 0.70937,0 3.17668,-1.76027 5.48292,-3.91171 z m 8.34654,-7.1021 c 0.66926,-1.18017 11.36224,-10.22121 12.0888,-10.22121 0.28976,0 0.0706,2.51468 -0.48698,5.58817 l -1.01382,5.58816 h -5.56482 c -3.06065,0 -5.32107,-0.4298 -5.02318,-0.95512 z m -670.8324,3.56782 c -0.70502,-0.31003 -1.28185,-1.68355 -1.28185,-3.05225 0,-2.86152 58.03738,-97.97575 62.64294,-102.66204 l 3.02054,-3.07349 h 35.41404 c 38.50529,0 39.81438,0.19188 42.32783,6.20398 2.32195,5.55406 -0.36035,11.30139 -20.01853,42.89339 -13.22593,21.25492 -17.76772,25.95129 -28.73826,29.71629 -6.88201,2.36184 -43.03035,2.05684 -45.72659,-0.38583 -1.44043,-1.30496 -2.70832,0.27797 -10.56656,13.19179 -5.4728,8.99374 -10.04034,15.30061 -11.79855,16.29153 -2.78945,1.57208 -22.16543,2.24412 -25.27501,0.87663 z m 72.70083,-52.28359 c 8.63188,-1.99396 14.05179,-5.0062 18.14133,-10.08246 3.46233,-4.29771 15.25149,-23.03257 16.21434,-25.76718 0.49462,-1.40479 -1.28102,-1.65479 -11.753,-1.65479 H 258.6708 l -3.47032,4.41858 c -1.90867,2.43024 -4.13588,5.82504 -4.94934,7.54402 -0.81346,1.71899 -1.74938,3.3769 -2.07984,3.68425 -0.5584,0.51938 -11.9479,18.95551 -13.63642,22.07323 -1.03399,1.90919 5.08216,1.81409 13.86889,-0.21565 z m 23.80938,51.34734 c -0.32466,-0.92205 -0.34057,-2.38564 -0.0354,-3.25241 0.3052,-0.86677 13.50915,-22.74443 29.34216,-48.617 15.83297,-25.87259 28.53839,-47.04106 28.23426,-47.04106 -1.47967,0 6.86547,-7.8278 8.95424,-8.39916 1.32215,-0.36165 17.62121,-0.50579 36.22012,-0.32031 36.82273,0.36722 38.24573,0.6006 40.54473,6.6496 1.84725,4.86039 -0.43917,10.12694 -15.08077,34.73715 -13.60998,22.87623 -20.13135,30.97043 -28.67312,35.58855 -4.75245,2.56941 -6.15684,2.73208 -26.38941,3.05681 -17.1275,0.27487 -21.81062,0.0282 -23.59024,-1.24263 -2.1404,-1.52847 -2.549,-1.05125 -11.33872,13.24279 -5.11134,8.31217 -10.20048,15.36575 -11.58092,16.05124 -1.35444,0.67259 -7.7623,1.22288 -14.23965,1.22288 -9.52247,0 -11.89003,-0.32094 -12.3673,-1.67645 z m 73.31936,-50.42953 c 1.75339,-0.38219 2.94079,-1.13084 2.63864,-1.66365 -0.30215,-0.53281 0.13318,-0.6833 0.96739,-0.33443 1.74789,0.73099 10.40187,-3.18494 13.28485,-6.01137 2.76777,-2.71351 8.20745,-11.51659 8.20745,-13.2822 0,-0.81606 0.23234,-1.23054 0.5163,-0.92105 0.28396,0.30949 2.7434,-3.08532 5.4654,-7.54402 l 4.9491,-8.10671 -11.12512,-0.31447 c -6.11881,-0.17295 -12.24483,0.14949 -13.61338,0.71658 -1.58442,0.65653 -6.68944,7.77365 -14.05423,19.59362 l -11.56596,18.56258 h 5.57077 c 3.06393,0 7.00539,-0.3127 8.75879,-0.69488 z m 28.82399,50.38428 c -1.16075,-1.52429 -1.06613,-2.42324 0.61273,-5.82163 1.092,-2.21045 3.23137,-5.37709 4.75419,-7.03698 l 2.76876,-3.01798 21.05112,-0.48269 c 23.15264,-0.53087 23.14791,-0.52943 27.41434,-8.39597 l 1.70313,-3.14032 -13.6139,0.36321 c -17.01525,0.45392 -21.68934,-0.70802 -23.67416,-5.8852 -2.57478,-6.71603 0.26319,-13.05237 21.02801,-46.9493 10.21912,-16.68188 16.02791,-25.14848 17.88751,-26.07191 1.67925,-0.83387 7.52308,-1.36751 14.97541,-1.36751 10.85687,0 12.33527,0.23168 13.24035,2.07479 0.84089,1.71239 -2.01066,7.01596 -16.32567,30.36398 -9.53948,15.55905 -17.10725,28.70757 -16.81728,29.21892 0.61771,1.08927 5.49519,1.18923 10.85986,0.22255 3.46473,-0.62431 4.40307,-1.69635 10.99458,-12.56105 3.9636,-6.53318 7.28936,-12.38143 7.39057,-12.99613 0.10119,-0.61471 0.75274,-1.62057 1.44785,-2.23526 0.69511,-0.61471 5.46673,-8.01282 10.60362,-16.4403 5.13688,-8.42746 10.23661,-15.84574 11.33272,-16.48506 1.09612,-0.63934 7.73513,-1.16244 14.75337,-1.16244 14.1977,0 16.33596,0.88878 13.94471,5.79614 -0.69309,1.42235 -12.68488,21.23402 -26.64844,44.02589 -26.17375,42.72188 -34.16201,53.63144 -41.34219,56.46113 -2.0356,0.80223 -3.70108,1.82046 -3.70108,2.26275 0,0.44228 -14.23517,0.8624 -31.6337,0.93358 -27.94546,0.11434 -31.79374,-0.0807 -33.00641,-1.67321 z M 4.3954183,273.72094 c -0.6768211,-0.73763 -1.2305837,-2.03952 -1.2305837,-2.89307 0,-0.85357 10.1523174,-18.10491 22.5607034,-38.33633 12.408387,-20.23141 22.560704,-37.24472 22.560704,-37.80736 0,-0.56263 0.387616,-1.1906 0.861369,-1.39551 0.473754,-0.2049 5.530879,-7.99924 11.238057,-17.32077 5.707179,-9.32153 11.421339,-17.74568 12.698133,-18.72034 1.84248,-1.40649 5.194172,-1.77211 16.244985,-1.77211 13.838604,0 16.384704,0.63249 16.384704,4.07022 0,0.76334 -5.53239,10.46998 -12.29421,21.5703 l -12.294202,20.1824 h 9.03899 c 10.894542,0 9.207516,1.60738 24.249332,-23.10443 7.49021,-12.30549 11.87693,-18.47002 13.74276,-19.31231 1.68537,-0.76084 8.25727,-1.11687 17.068,-0.92466 13.43381,0.29306 14.34571,0.45196 14.62147,2.54782 0.17464,1.3274 -3.26156,8.0194 -8.46027,16.47636 -4.81489,7.8326 -8.75436,14.70604 -8.75436,15.2743 0,0.56827 -0.38463,1.20087 -0.85474,1.40576 -0.4701,0.2049 -11.42999,17.67819 -24.35531,38.82954 -15.40291,25.20576 -24.560622,39.16439 -26.577019,40.50999 -2.570548,1.7154 -5.277169,2.0537 -16.459057,2.05719 -13.288443,0.004 -15.843767,-0.65138 -15.843767,-4.0645 0,-0.76249 6.222465,-11.60073 13.827703,-24.08498 l 13.827701,-22.69861 -7.406334,-0.33375 c -4.073483,-0.18357 -8.437219,-0.0517 -9.69719,0.29288 -2.64172,0.7226 -7.692424,8.20702 -6.752913,10.00685 0.347492,0.66568 0.250949,0.83398 -0.214538,0.374 -0.465488,-0.46 -6.071104,7.69639 -12.456925,18.12531 -7.773802,12.69567 -12.614791,19.52761 -14.649443,20.67432 -3.872013,2.1822 -28.6861207,2.48322 -30.6237497,0.37149 z M 115.19994,273.39619 c -4.08709,-1.93606 -5.8595,-5.84175 -4.97714,-10.96773 0.96074,-5.58135 13.85399,-26.26029 20.50177,-32.88193 8.35632,-8.32346 12.10452,-9.44757 34.16931,-10.24769 17.07077,-0.61904 18.80647,-0.86905 20.22074,-2.91243 0.85089,-1.2294 1.56175,-2.61247 1.57969,-3.07349 0.018,-0.46103 -9.14026,-0.83823 -20.35156,-0.83823 -24.38277,0 -24.76982,-0.1773 -19.59014,-8.97445 5.28325,-8.97305 5.00581,-8.90826 38.12878,-8.90348 26.82759,0.003 29.26541,0.16664 32.25589,2.15398 6.33701,4.21124 5.37456,11.02981 -3.81482,27.02664 -11.98858,20.86964 -27.98033,46.40439 -30.53996,48.76449 -2.49706,2.30243 -3.75879,2.50958 -15.31563,2.51468 -10.15849,0.004 -12.70669,-0.31334 -13.17494,-1.64325 -0.51171,-1.45331 -0.92741,-1.45331 -3.5061,0 -4.03489,2.27401 -30.77637,2.26115 -35.58589,-0.0171 z m 44.60781,-19.2046 c 3.62228,-1.93599 9.16037,-8.8155 13.59441,-16.88723 l 2.01601,-3.66996 -11.00978,0.31706 -11.00978,0.31706 -6.40929,10.61292 c -3.52511,5.8371 -6.40929,11.06478 -6.40929,11.61705 0,1.68897 15.15283,-0.12903 19.22772,-2.3069 z m 324.51536,16.17646 c -0.67682,-0.73764 -1.23058,-1.99158 -1.23058,-2.78652 0,-0.79496 14.91802,-25.99556 33.15115,-56.00135 26.17954,-43.08298 33.78812,-54.84352 36.18005,-55.92331 2.01213,-0.90834 7.66139,-1.26209 16.82866,-1.0538 12.48223,0.28362 13.83449,0.51088 14.16356,2.38019 0.21727,1.23426 -4.42435,9.89764 -11.52408,21.50918 -6.53831,10.6934 -11.88785,19.69637 -11.88785,20.00661 0,0.31023 3.84205,0.56405 8.53789,0.56405 10.27261,0 8.80543,1.40102 23.16364,-22.11926 6.60059,-10.81246 11.64052,-17.89252 13.72089,-19.27497 2.77202,-1.84206 5.19026,-2.18573 15.40508,-2.18925 12.22822,-0.004 16.08399,0.94403 16.08399,3.95557 0,0.9052 -14.75859,25.7651 -32.7969,55.24425 -23.93354,39.11346 -33.61958,54.06207 -35.8411,55.31409 -2.25478,1.27076 -6.32837,1.71568 -15.70862,1.71568 -12.85659,0 -15.12673,-0.66263 -15.12458,-4.41465 5.5e-4,-0.95279 6.00029,-11.53956 13.33275,-23.52617 l 13.33176,-21.79382 -8.30471,-0.32636 c -5.66944,-0.2228 -8.81147,0.13186 -9.9017,1.11763 -0.87834,0.7942 -7.54222,11.14434 -14.80863,23.00033 -8.65994,14.12972 -14.34664,22.31057 -16.50602,23.74553 -2.80811,1.86603 -5.19393,2.18977 -16.16421,2.19332 -8.64724,0.003 -13.27361,-0.43584 -14.10044,-1.33697 z m 107.79372,-1.41231 c -1.79655,-0.85158 -4.02963,-3.15674 -4.96238,-5.12257 -1.58324,-3.33674 -1.57849,-3.90934 0.0715,-8.61799 2.20558,-6.29417 12.18805,-22.66565 18.44499,-30.25018 3.03202,-3.67536 7.15414,-7.02519 11.54576,-9.38265 l 6.83015,-3.66647 19.50928,-0.3742 c 18.10869,-0.34733 19.67494,-0.54185 21.81663,-2.70949 1.26904,-1.28441 2.30734,-2.75057 2.30734,-3.2581 2e-5,-0.50756 -9.59854,-0.92282 -21.3301,-0.92282 -26.11552,0 -27.10139,-0.52853 -20.47166,-10.97496 1.82579,-2.87689 3.2102,-5.60792 3.07646,-6.06893 -0.13375,-0.46103 0.10294,-0.75701 0.52595,-0.65776 0.42301,0.0992 2.06819,-0.40366 3.65596,-1.11763 3.40752,-1.53223 55.01654,-1.74825 62.08555,-0.25987 8.8669,1.86693 11.1312,8.82306 6.35694,19.52906 -3.77906,8.47435 -36.44209,61.60354 -39.13824,63.66167 -3.28692,2.50912 -28.35287,2.71881 -29.22407,0.24448 -0.4814,-1.36723 -1.03436,-1.36723 -4.03682,0 -4.79546,2.18371 -32.42864,2.14524 -37.06322,-0.0516 z m 41.45488,-18.37796 c 6.41804,-1.35335 10.74034,-5.15507 16.58054,-14.58356 2.87245,-4.63732 5.2225,-8.80869 5.22233,-9.26972 -1.8e-4,-0.46102 -4.76529,-0.83822 -10.58917,-0.83822 -12.22704,0 -11.29761,-0.63429 -20.06689,13.6945 -7.52404,12.29407 -7.50142,12.02008 -0.98768,11.96237 3.02144,-0.0267 7.44983,-0.46119 9.84087,-0.96537 z m 59.95066,18.67263 c -0.67683,-0.73763 -1.23059,-2.14108 -1.23059,-3.11875 0,-1.67455 13.03042,-54.36314 17.47851,-70.67446 1.26023,-4.62129 2.80573,-7.95838 4.01145,-8.66165 1.11752,-0.65183 9.47537,-1.14403 19.426,-1.14403 15.92811,0 17.55372,0.18147 18.47753,2.06273 0.76744,1.56283 -0.71926,8.10345 -6.13491,26.98974 -3.93131,13.70986 -7.00061,25.08748 -6.82067,25.2836 0.17996,0.19612 11.37873,-11.36311 24.88614,-25.68718 13.50741,-14.32405 25.56691,-26.62991 26.79887,-27.34632 1.23196,-0.71642 4.75898,-1.30257 7.8378,-1.30257 10.57582,0 10.43959,0.19894 -29.23967,42.69887 -19.91788,21.33378 -37.66848,39.56551 -39.44577,40.51493 -4.13973,2.21146 -34.07546,2.53128 -36.04469,0.38509 z m 80.048,-0.32105 c -2.02441,-0.95905 -4.0003,-3.12022 -5.05361,-5.52755 -1.67611,-3.83065 -1.65261,-4.13465 0.76034,-9.83726 2.60138,-6.14793 23.31694,-40.47951 29.29041,-48.54256 1.89823,-2.56224 3.45133,-5.0993 3.45133,-5.63792 0,-1.37777 9.26692,-8.92152 14.55148,-11.84564 4.23977,-2.346 5.61185,-2.44573 33.64639,-2.44573 25.96576,0 29.59479,0.2195 32.52879,1.96742 3.78937,2.25752 5.4142,5.01577 5.4142,9.19094 0,3.90225 -1.75397,7.40885 -12.46054,24.91158 -4.99107,8.15921 -9.07467,15.28412 -9.07467,15.83312 0,0.54902 -0.3461,1.16585 -0.76911,1.37076 -0.42302,0.20488 -2.12651,2.55024 -3.78553,5.2119 -4.64849,7.45776 -17.38895,19.79682 -24.36189,23.59433 l -6.27759,3.41882 -27.26798,-0.0437 c -21.12835,-0.0338 -28.01641,-0.39832 -30.59202,-1.61848 z m 31.52493,-18.54229 c 10.17454,-1.68061 18.75478,-5.16492 23.40776,-9.50558 3.73736,-3.48651 20.25511,-29.22033 21.99964,-34.27437 0.6269,-1.81614 -0.60439,-1.95585 -17.2387,-1.95585 -16.19807,0 -18.09945,0.20229 -19.85173,2.11202 -2.47881,2.70154 -26.77573,42.32079 -26.77573,43.66126 0,1.34816 10.19527,1.32746 18.45876,-0.0374 z m 65.39337,17.90355 c -3.98568,-2.2935 -6.94064,-7.0465 -6.94064,-11.16387 0,-1.31975 1.95942,-6.49981 4.35425,-11.51124 2.39484,-5.01145 4.20226,-9.61465 4.01649,-10.22935 -0.18577,-0.61471 -0.005,-0.75456 0.40256,-0.3108 0.40718,0.44377 5.13504,-6.34585 10.50635,-15.08803 17.2279,-28.03959 24.65404,-36.93155 35.84265,-42.91755 l 5.89415,-3.1534 28.79672,-0.34206 c 34.57018,-0.41063 33.74367,-0.72552 27.13085,10.33623 -2.36982,3.96421 -5.03209,7.86364 -5.91613,8.66542 -1.10251,0.99992 -6.70408,1.64547 -17.83426,2.05532 -14.14685,0.52093 -16.59193,0.88771 -19.0746,2.86135 -3.42002,2.71877 -31.03844,47.11913 -31.04441,49.90807 -0.004,1.78604 1.50632,1.95585 17.39301,1.95585 15.9952,0 17.48057,0.16981 18.43194,2.10719 0.82451,1.67903 0.22895,3.46597 -2.93084,8.79407 -6.42892,10.84057 -4.6328,10.34094 -36.97205,10.28435 -26.05861,-0.0456 -28.52331,-0.21871 -32.05604,-2.25155 z M 300.8123,178.20554 c -0.70503,-0.31005 -1.28186,-1.66012 -1.28186,-3.00018 0,-2.98842 6.43104,-13.62719 9.22132,-15.2547 1.2768,-0.74471 11.48466,-1.18703 27.42716,-1.18844 13.9664,-0.001 28.14515,-0.42014 31.50835,-0.93092 5.54002,-0.84136 6.52819,-1.4262 10.51123,-6.22092 2.41799,-2.91074 4.39663,-5.6208 4.39699,-6.02234 3.6e-4,-0.40156 -12.85439,-0.5893 -28.56608,-0.41722 -33.67311,0.3688 -36.40838,-0.25597 -34.64495,-7.91341 0.64954,-2.82048 26.19317,-45.664955 29.59848,-49.645693 1.16788,-1.36523 3.78607,-3.055782 5.8182,-3.756782 10.56454,-3.644327 21.32749,-12.788286 27.16372,-23.077707 1.47523,-2.600854 3.7388,-5.017823 5.03016,-5.371062 1.29135,-0.353239 12.63498,-0.488473 25.20807,-0.300531 20.60911,0.308075 22.9928,0.53967 24.20726,2.351956 1.29,1.925021 1.49291,1.913354 4.78677,-0.275228 3.07696,-2.044474 5.13124,-2.285915 19.48136,-2.289649 12.79895,-0.0034 16.15296,0.311797 16.59206,1.55893 0.59881,1.700701 -3.01804,7.512322 -9.2154,14.807516 -2.16585,2.549516 -15.22526,22.918365 -29.02091,45.2641 -26.90674,43.58263 -33.27159,52.00056 -43.10806,57.01323 -9.83435,5.01158 -14.01641,5.41493 -55.17038,5.32099 -21.26389,-0.0485 -39.23847,-0.3419 -39.94349,-0.65194 z m 87.29071,-60.89242 c 10.84861,-2.37449 15.34244,-6.41058 25.95083,-23.307452 5.21,-8.29842 9.49248,-15.716705 9.51661,-16.485076 0.0333,-1.061126 -3.88119,-1.397042 -16.28005,-1.397042 -8.97816,0 -17.08987,0.320339 -18.02605,0.711862 -1.44616,0.60481 -26.15375,39.504798 -26.15375,41.176858 0,1.11037 19.17586,0.57394 24.99241,-0.69915 z m 28.29725,59.90935 c -1.20057,-1.57658 -1.04901,-2.55423 1.07124,-6.91005 3.17903,-6.53102 7.75005,-11.48737 10.58001,-11.47192 1.22566,0.006 14.91886,-0.11904 30.42934,-0.2794 32.82,-0.33933 31.38209,0.064 38.88576,-10.90908 l 1.91065,-2.79408 -28.7899,0.33021 c -30.12267,0.34551 -33.88104,-0.12504 -35.12533,-4.3977 -0.39154,-1.34453 0.571,-4.46278 2.56797,-8.31915 6.20434,-11.98132 36.68186,-61.432349 40.35939,-65.484776 2.05021,-2.259215 6.84207,-5.779757 10.64854,-7.823426 l 6.92087,-3.715747 26.92982,-0.346947 26.92982,-0.346946 2.43785,2.656902 2.43785,2.656914 2.76213,-2.589376 c 2.63877,-2.473722 3.49378,-2.589364 19.14491,-2.589364 20.16631,0 21.08913,0.940912 11.50956,11.735139 -5.71665,6.441496 -10.46548,13.681335 -33.72223,51.411087 -27.0361,43.86108 -33.19937,51.67035 -45.04607,57.0764 l -7.17841,3.27575 -42.13266,0.33598 c -38.06635,0.30356 -42.26765,0.15875 -43.53111,-1.50042 z m 93.41235,-61.3397 c 7.2903,-2.84315 11.3933,-7.34744 21.40888,-23.502673 5.11407,-8.249016 9.29828,-15.281338 9.29828,-15.627379 0,-0.346042 -7.51156,-0.629168 -16.69234,-0.629168 -13.58629,0 -17.12481,0.330121 -19.01641,1.774103 -1.78058,1.359228 -19.91493,29.674757 -25.26725,39.453047 -1.23722,2.26031 23.82569,1.04485 30.26884,-1.46793 z m -383.65835,28.58024 -2.45024,-2.16237 10.89454,-17.7211 c 5.992,-9.7466 20.19251,-32.683403 31.55667,-50.970662 l 20.66212,-33.249564 h -16.84017 c -22.02354,0 -22.32289,-0.309372 -13.69378,-14.152701 7.01013,-11.246086 1.99852,-10.43521 64.49407,-10.43521 56.02346,0 57.21775,0.0874 57.21775,4.185712 0,2.758272 -9.98556,17.674416 -12.75156,19.047942 -1.77398,0.880907 -8.48082,1.354257 -19.18808,1.354257 h -16.46084 l -3.02342,3.527416 c -1.66288,1.940075 -2.78757,4.197245 -2.49932,5.015934 0.28827,0.818687 0.11694,1.368831 -0.3807,1.222533 -0.83336,-0.244997 -25.68402,38.461421 -25.68402,40.004407 0,0.375557 -0.57684,1.319938 -1.28186,2.098627 -0.70502,0.77869 -8.19967,12.555579 -16.65478,26.170879 -12.92659,20.81577 -15.94843,25.00607 -18.98959,26.33223 -2.43675,1.06259 -8.32447,1.62884 -18.04661,1.7356 -12.86921,0.14131 -14.69493,-0.0755 -16.88018,-2.00393 z m 527.98633,1.31107 c -4.74066,-1.35997 -3.30761,-4.30112 22.44721,-46.069941 14.83703,-24.062496 26.58095,-42.007666 28.16804,-43.041878 3.84519,-2.505675 29.72836,-2.596952 31.62102,-0.111539 0.69618,0.914223 0.99769,2.423608 0.67004,3.354204 -0.42907,1.218577 0.90173,0.847724 4.75634,-1.325489 4.6041,-2.595779 6.89466,-3.081893 16.39008,-3.478363 16.46982,-0.68769 17.12545,0.547886 8.06429,15.197748 -8.84963,14.307869 -8.78521,14.262685 -17.90806,12.561952 -5.73276,-1.068735 -8.83119,-1.107293 -12.88271,-0.160323 -7.84283,1.833122 -10.74763,3.862387 -15.77076,11.017343 -4.88313,6.955536 -27.4043,43.452076 -27.4043,44.409876 0,1.3638 -4.54595,5.37003 -7.7481,6.8282 -3.309,1.50682 -25.88482,2.11436 -30.40309,0.81818 z m -468.78098,-1.10242 c -2.02865,-2.21094 -1.01013,-3.98715 25.84858,-45.077832 7.03139,-10.75721 16.66456,-25.230147 21.40705,-32.162083 l 8.62271,-12.603518 14.53306,0.309562 c 14.19202,0.302297 14.54075,0.368572 14.86075,2.824234 0.40054,3.073634 0.22549,3.073634 4.99751,0 3.35934,-2.163736 5.67521,-2.570241 16.59488,-2.912851 12.36754,-0.388054 14.39554,0.07845 14.469,3.328197 0.0437,1.937427 -13.64974,23.151509 -15.72573,24.362376 -1.82675,1.065492 -3.37568,1.112564 -6.40872,0.194762 -9.924,-3.003006 -21.4165,-0.681992 -27.05595,5.464188 -2.0676,2.253379 -10.80128,15.439975 -19.40819,29.303555 -9.62312,15.50046 -16.62132,25.68938 -18.17423,26.46051 -2.71648,1.34891 -33.37573,1.80039 -34.56072,0.5089 z m 79.27001,-1.55999 c -0.98904,-2.01409 1.23076,-6.28206 17.58395,-33.80838 29.1394,-49.048533 32.54839,-54.414756 34.56799,-54.414756 2.86594,0 4.28409,2.318115 4.28409,7.002794 0,3.893172 1.3344,8.273665 2.97361,9.761693 0.33858,0.307349 1.11015,1.534945 1.7146,2.727991 0.60444,1.193047 3.37326,3.502359 6.15292,5.131806 3.04676,1.786024 5.17486,3.844162 5.35846,5.182281 0.17528,1.277468 -2.89921,7.638444 -7.24306,14.98558 -20.82122,35.216831 -25.42479,42.359861 -28.36997,44.019721 -2.36656,1.33376 -6.70619,1.71635 -19.46803,1.71635 -15.5389,0 -16.48355,-0.12405 -17.55456,-2.30508 z m 292.54598,1.14926 c -2.96049,-1.29652 -4.79951,-5.68109 -3.94294,-9.40063 0.36705,-1.59384 8.91384,-16.36827 18.99286,-32.83207 20.07397,-32.790252 25.52081,-39.497113 35.72341,-43.987302 5.73155,-2.522462 6.78012,-2.593577 38.24106,-2.593577 29.442,0 32.6014,0.181011 35.16961,2.014968 3.71394,2.65213 5.1897,6.426497 4.37143,11.180217 -0.79242,4.603513 -20.65429,37.970284 -24.25623,40.749034 -2.18469,1.6854 -6.11268,2.01008 -30.19947,2.49621 l -27.68814,0.55882 -3.32707,5.42565 c -1.82987,2.9841 -3.07167,5.87598 -2.75956,6.42639 0.31213,0.5504 11.55902,1.00073 24.99309,1.00073 20.45405,0 24.63303,0.27243 25.70144,1.67544 1.79971,2.36337 -0.14928,7.04837 -5.57256,13.39537 l -4.31212,5.04657 -39.40957,-0.0708 c -21.67526,-0.039 -40.45163,-0.5272 -41.72524,-1.08498 z m 86.91832,-56.864026 c 6.4503,-3.567145 12.30584,-8.499081 12.30584,-10.36482 0,-0.499694 -6.66041,-0.908534 -14.80091,-0.908534 h -14.80089 l -3.51468,4.749938 c -1.93307,2.612466 -4.36084,6.193662 -5.39506,7.958215 l -1.8804,3.208277 10.71022,-0.478416 c 9.61929,-0.429686 11.38917,-0.853891 17.37588,-4.16466 z M 346.38235,83.225173 c -0.38776,-0.422605 -0.70501,-1.918247 -0.70501,-3.323649 0,-1.97588 -0.82465,-2.80343 -3.63691,-3.649704 -11.78559,-3.546567 -19.94928,-14.34641 -19.94928,-26.391145 0,-4.495385 -0.22353,-4.910384 -2.8201,-5.236007 -4.0148,-0.503459 -3.69515,-3.613964 0.41608,-4.048901 2.54124,-0.268836 3.38261,-0.988826 3.91817,-3.352898 2.65069,-11.700593 17.80409,-26.178715 29.13305,-27.8347894 3.15526,-0.4612357 4.23465,-1.2580516 5.36638,-3.9614812 1.76917,-4.226159 3.4708,-4.0716016 3.45773,0.3140547 -0.008,2.7241169 0.41479,3.3249561 2.34028,3.3249561 9.85088,0 21.73281,14.4545068 21.75855,26.4695338 0.009,4.266774 0.25666,4.70663 2.8301,5.029346 3.93658,0.493658 3.71334,3.611149 -0.2892,4.038587 -2.70408,0.288774 -3.3416,1.044963 -4.89202,5.802512 -2.11919,6.50282 -10.37374,16.764385 -16.77367,20.85201 -2.47775,1.582531 -7.13098,3.726926 -10.34052,4.765322 -4.58875,1.484621 -5.95842,2.455398 -6.41076,4.543756 -0.59667,2.754643 -2.1798,3.991463 -3.40287,2.658497 z m 1.27387,-15.117786 c 0.0397,-0.413346 -1.51422,-1.322115 -3.45304,-2.019484 -7.17055,-2.579138 -12.88266,-10.498445 -12.88266,-17.860637 0,-2.87883 -0.39133,-3.397423 -2.56371,-3.397423 -2.20992,0 -2.56293,0.501281 -2.558,3.632305 0.011,6.972987 2.14228,12.450324 6.71039,17.245314 6.67831,7.010003 14.18771,8.23208 14.74702,2.399925 z m 15.51698,0.157932 c 7.73414,-4.300202 14.61294,-12.8558 16.82055,-20.920803 0.57709,-2.108291 0.30429,-2.505598 -1.68811,-2.458556 -1.87985,0.04437 -2.9907,1.468088 -5.31583,6.812852 -3.23969,7.447108 -8.76519,12.284131 -16.7181,14.635048 -3.08093,0.910736 -4.39404,1.941462 -4.7007,3.689762 -0.40037,2.282608 -0.18776,2.367773 3.59717,1.440942 2.21248,-0.541779 5.81474,-1.981437 8.00502,-3.199245 z M 350.16383,52.513565 c 1.31631,-7.172885 1.05212,-7.683722 -3.97375,-7.683722 -4.26065,0 -4.61469,0.218263 -4.61469,2.844889 0,3.060938 4.10614,8.331434 6.49086,8.331434 0.81107,0 1.74072,-1.54792 2.09758,-3.492601 z m 10.73359,-1.396996 c 1.32083,-1.306254 2.83685,-3.255147 3.36892,-4.330869 0.85551,-1.729637 0.43174,-1.955857 -3.66383,-1.955857 -4.11438,0 -4.69064,0.311831 -5.16351,2.794082 -0.29277,1.536744 -0.77788,4.077781 -1.07806,5.646747 -0.50897,2.660334 -0.38798,2.763949 1.7946,1.536789 1.28721,-0.723734 3.42105,-2.384636 4.74188,-3.690892 z M 333.45718,35.380944 c 3.10056,-7.188824 9.86862,-13.538797 16.75598,-15.720918 4.39069,-1.391106 5.71904,-2.312728 5.71904,-3.96793 0,-2.74371 -1.63393,-2.712796 -8.69,0.164437 -8.46105,3.450131 -16.90485,12.995773 -19.45007,21.988109 -0.57901,2.045658 -0.31732,2.514672 1.40306,2.514672 1.49824,0 2.74085,-1.451469 4.26199,-4.97837 z m 18.7522,2.463698 c 0.92309,-3.753938 0.77213,-7.544018 -0.30044,-7.544018 -1.37963,0 -7.12987,5.476029 -8.34178,7.943973 -0.94589,1.926228 -0.63458,2.114717 3.49271,2.114717 3.83213,0 4.62657,-0.387953 5.14951,-2.514672 z m 13.97768,0.430131 c 0,-2.919512 -3.87782,-7.974149 -6.11763,-7.974149 -2.13986,0 -3.11175,2.122953 -3.11175,6.797205 0,3.120384 0.19965,3.261485 4.6147,3.261485 3.81981,0 4.61468,-0.359062 4.61468,-2.084541 z m 15.16192,-3.374758 c -0.97652,-11.076116 -8.57068,-20.381947 -16.86714,-20.668944 -3.29726,-0.114054 -3.98605,0.254731 -4.25027,2.275645 -0.2485,1.900668 0.35433,2.572062 2.84466,3.168175 6.27992,1.503237 13.27927,11.034428 13.34318,18.169751 0.0176,1.963478 0.61307,2.514672 2.71671,2.514672 2.60658,0 2.67854,-0.177525 2.21286,-5.459299 z"
     id="path879"
     inkscape:connector-curvature="0" />
</svg>
