<?xml version="1.0" encoding="UTF-8" standalone="no"?>
<!-- Created with Inkscape (http://www.inkscape.org/) -->

<svg
   xmlns:dc="http://purl.org/dc/elements/1.1/"
   xmlns:cc="http://creativecommons.org/ns#"
   xmlns:rdf="http://www.w3.org/1999/02/22-rdf-syntax-ns#"
   xmlns:svg="http://www.w3.org/2000/svg"
   xmlns="http://www.w3.org/2000/svg"
   xmlns:sodipodi="http://sodipodi.sourceforge.net/DTD/sodipodi-0.dtd"
   xmlns:inkscape="http://www.inkscape.org/namespaces/inkscape"
   version="1.1"
   id="svg1563"
   width="848"
   height="213"
   viewBox="0 0 848 213"
   sodipodi:docname="Danganronpa_2_English_logo.svg"
   inkscape:version="0.92.2 2405546, 2018-03-11">
  <metadata
     id="metadata1569">
    <rdf:RDF>
      <cc:Work
         rdf:about="">
        <dc:format>image/svg+xml</dc:format>
        <dc:type
           rdf:resource="http://purl.org/dc/dcmitype/StillImage" />
        <dc:title></dc:title>
      </cc:Work>
    </rdf:RDF>
  </metadata>
  <defs
     id="defs1567" />
  <sodipodi:namedview
     pagecolor="#ffffff"
     bordercolor="#666666"
     borderopacity="1"
     objecttolerance="10"
     gridtolerance="10"
     guidetolerance="10"
     inkscape:pageopacity="0"
     inkscape:pageshadow="2"
     inkscape:window-width="1920"
     inkscape:window-height="1020"
     id="namedview1565"
     showgrid="false"
     inkscape:zoom="0.74292453"
     inkscape:cx="253.26933"
     inkscape:cy="106.5"
     inkscape:window-x="0"
     inkscape:window-y="0"
     inkscape:window-maximized="1"
     inkscape:current-layer="svg1563" />
  <path
     style="fill:#000000;stroke-width:1.11688423"
     d="m 502.49554,211.2899 c -0.94021,-1.21469 -1.70948,-2.4512 -1.70948,-2.74778 0,-0.29659 4.76435,-0.36626 10.58744,-0.15484 7.25597,0.26346 11.39997,-0.1099 13.16972,-1.18642 1.42027,-0.86395 5.777,-7.27292 9.68162,-14.24215 l 7.0993,-12.67132 17.33239,0.38 c 19.71083,0.43214 23.62956,-0.39922 30.41148,-6.45181 5.43534,-4.85081 6.30911,-5.07261 7.04375,-1.78807 0.65281,2.91864 -3.79335,7.66812 -10.62625,11.35117 -3.88017,2.09147 -7.16822,2.57712 -19.90082,2.93934 -8.74177,0.24869 -16.54097,-0.0911 -18.27065,-0.79616 -2.99857,-1.22215 -3.06208,-1.14915 -9.88704,11.36813 -3.77799,6.92899 -7.861,13.41047 -9.07334,14.40329 -1.62003,1.32669 -5.11236,1.80513 -13.17647,1.80513 -9.31788,0 -11.22993,-0.33297 -12.68165,-2.20851 z m 0.35636,-9.11253 c 0,-2.4027 49.09934,-91.28121 52.28897,-94.65231 2.52987,-2.6738 3.0085,-2.71726 29.91895,-2.71726 42.45756,0 42.34114,-0.2121 20.88109,38.04171 -11.56441,20.61426 -15.16401,25.50468 -22.52125,30.5974 -4.43315,3.06867 -5.42037,3.23614 -21.3457,3.62155 -15.59728,0.37747 -16.83428,0.24424 -18.77245,-2.02183 l -2.07488,-2.42592 -8.59992,15.30625 -8.59995,15.30622 -10.58742,0.34417 c -8.67661,0.28205 -10.58744,0.0294 -10.58744,-1.39998 z m 63.94451,-46.71388 c 2.74393,-1.38012 6.36453,-4.2394 8.04578,-6.35396 2.90741,-3.6568 15.80792,-26.42738 15.80792,-27.90246 0,-1.45001 -19.2277,-0.70229 -20.83123,0.81008 -1.72932,1.631 -20.48557,35.13809 -20.48557,36.59642 0,1.62792 12.41667,-0.61187 17.4631,-3.15008 z m -10.23266,-1.81543 c 0,-0.46329 3.3699,-7.01333 7.48867,-14.55562 l 7.48866,-13.71328 6.4645,-0.0204 c 6.2077,-0.0197 6.41326,0.0754 5.17438,2.39488 -0.89149,1.66902 -2.41024,2.41605 -4.91512,2.41763 -3.437,0.002 -3.97319,0.61284 -10.33898,11.77482 -4.71008,8.25883 -7.40762,11.88772 -9.03804,12.15844 -1.27824,0.21225 -2.32407,0.007 -2.32407,-0.45643 z m -232.8497,31.38377 c -0.89274,-1.04378 -1.62361,-2.26655 -1.62417,-2.71727 -5.5e-4,-0.45072 4.73832,-0.62939 10.53082,-0.39703 17.09618,0.68575 16.48593,1.15723 30.21223,-23.34175 8.75444,-15.62513 12.8395,-21.82489 15.98318,-24.25727 5.30331,-4.10333 11.76784,-5.65165 14.28184,-3.42066 0.9976,0.88529 2.66596,1.6269 3.70749,1.64803 1.04153,0.0212 1.70169,0.7119 1.467,1.53505 -0.27083,0.94993 -2.53358,1.50136 -6.19447,1.50958 -9.27463,0.0208 -12.64441,3.57389 -26.27153,27.70024 -6.35014,11.24269 -12.62512,21.14144 -13.94444,21.99725 -3.72696,2.4176 -26.03472,2.21457 -28.14795,-0.25617 z m 61.09,-0.52963 c -1.54209,-1.41823 -2.80421,-2.94675 -2.80471,-3.39671 -5.1e-4,-0.44995 11.64431,-0.6555 25.87737,-0.45676 l 25.87832,0.36135 5.8849,-3.32263 c 3.2367,-1.82743 6.23352,-3.52982 6.6596,-3.78308 0.42608,-0.25325 0.77469,1.10689 0.77469,3.02255 0,2.93509 -0.77186,3.94816 -4.90638,6.43976 -4.74274,2.85814 -5.73426,2.96937 -29.73317,3.33543 -24.03817,0.36666 -24.91587,0.29678 -27.63062,-2.19991 z m 66.14362,1.12299 c -4.11918,-2.80512 -1.89159,-4.13013 6.94351,-4.13013 7.4398,0 9.06785,-0.37029 10.86472,-2.47116 1.16246,-1.35914 8.31378,-13.58683 15.8918,-27.17266 12.67755,-22.72815 14.03755,-24.73171 17.02415,-25.07992 3.58077,-0.41748 4.18263,1.00177 1.50617,3.55167 -0.95686,0.9116 -8.36615,13.4411 -16.46511,27.84331 -8.09895,14.40222 -15.65216,26.76578 -16.78492,27.47458 -2.60771,1.63171 -16.57813,1.62017 -18.98032,-0.0157 z m 31.92238,-0.90412 c -0.94021,-1.21469 -1.71012,-2.43745 -1.7109,-2.71726 -0.002,-0.63272 26.18803,0.12442 26.74631,0.77324 0.22299,0.25915 -0.18253,1.29947 -0.90116,2.31184 -1.0147,1.4295 -3.66553,1.84071 -11.86569,1.84071 -8.91767,0 -10.82482,-0.34332 -12.26856,-2.20853 z m 121.72448,1.03267 c -1.13622,-0.53644 -3.22787,-2.48043 -4.64814,-4.31999 -2.2544,-2.91994 -2.31999,-3.22743 -0.51646,-2.42164 5.66122,2.52939 9.25721,2.87677 29.77997,2.87677 17.15076,0 22.797,-0.38845 24.99105,-1.7193 1.95727,-1.18726 3.22642,-1.33894 4.10116,-0.49016 0.83836,0.81349 24.42928,1.12413 69.76085,0.91856 l 68.49412,-0.31059 13.50824,-25.59361 c 7.42955,-14.07646 13.97308,-25.44642 14.54118,-25.26655 3.1191,0.9876 0.83154,6.90198 -11.87057,30.69087 -9.39559,17.59632 -14.23289,25.57116 -15.81072,26.06582 -1.25036,0.39199 -31.55667,0.71677 -67.34735,0.72174 -52.62914,0.007 -65.58495,-0.30269 -67.74583,-1.62109 -2.21134,-1.34916 -2.99191,-1.35652 -4.52866,-0.0428 -1.41408,1.20893 -7.6727,1.57548 -26.24989,1.53732 -13.41621,-0.0275 -25.32274,-0.48894 -26.45895,-1.02537 z m -280.85435,-9.50421 c -0.56246,-1.06404 34.11122,-63.98548 37.87153,-68.72447 1.97858,-2.49355 3.07165,-2.71726 13.2772,-2.71726 11.62645,0 13.75166,0.92249 10.82775,4.69996 -2.4937,3.22171 -1.97794,4.52341 0.6735,1.69984 1.27824,-1.36123 3.44412,-3.15187 4.81304,-3.97921 3.4087,-2.06012 19.20886,-3.15465 20.13897,-1.3951 0.71852,1.35928 -8.4923,19.22907 -11.33145,21.98399 -1.23616,1.19949 -2.20495,1.07022 -4.95459,-0.66107 -4.65971,-2.93397 -11.5005,-1.64329 -17.9339,3.38369 -3.94688,3.08401 -7.24523,7.94013 -16.47688,24.25858 -6.34818,11.22147 -12.15837,20.85944 -12.91151,21.41772 -1.79083,1.32747 -23.29378,1.35736 -23.99366,0.0333 z m 60.36226,-1.31727 c -0.5881,-1.28477 -1.06926,-2.96055 -1.06926,-3.72394 0,-0.76339 7.45045,-14.87443 16.55655,-31.35786 13.90254,-25.16566 17.17271,-30.32806 20.40018,-32.20435 3.40201,-1.97776 6.55357,-2.23447 27.4312,-2.23447 h 23.58759 l 2.49364,3.38844 c 1.3715,1.86364 2.49365,4.81324 2.49365,6.55465 0,4.04428 -20.19847,41.05418 -26.73323,48.9836 -2.62395,3.18398 -7.51777,7.39574 -10.87511,9.35947 l -6.10427,3.57041 h -23.55584 c -22.23182,0 -23.61594,-0.1313 -24.6251,-2.33595 z m 34.38136,-13.45091 c 5.85042,-1.89943 11.22631,-8.31618 19.92457,-23.78227 4.2852,-7.61937 8.03778,-14.60448 8.33907,-15.52247 0.79903,-2.43451 -18.51587,-2.41553 -20.24462,0.0199 -3.49361,4.92171 -21.56316,38.80198 -21.13075,39.61998 0.7247,1.37099 8.46612,1.17312 13.11173,-0.33513 z m -7.51375,-3.44315 c 0.0265,-0.38314 4.13787,-8.03322 9.13655,-17.0002 l 9.08852,-16.30358 5.84079,-0.36219 c 3.21244,-0.19921 5.82601,0.0725 5.80795,0.60384 -0.0876,2.57497 -3.07627,5.19287 -5.92836,5.19287 -2.88563,0 -3.78991,1.1606 -10.73179,13.77415 -6.19014,11.24758 -8.10167,13.86746 -10.42116,14.28293 -1.5623,0.27981 -2.81892,0.1953 -2.7925,-0.18782 z m 39.20294,18.11148 c 0,-1.71563 37.19343,-68.05543 39.11295,-69.76353 2.58919,-2.30403 41.36179,-2.16081 46.1338,0.17041 4.29042,2.09594 6.14481,6.263 5.25498,11.80867 -0.52751,3.28761 -20.84667,41.40391 -29.62976,55.58188 -2.05476,3.31687 -2.07379,3.3211 -14.93796,3.3211 -9.13121,0 -12.88058,-0.41047 -12.88058,-1.4101 0,-0.77558 6.27499,-12.64044 13.94442,-26.36639 7.66943,-13.72595 13.94442,-25.59082 13.94442,-26.36639 0,-0.93728 -2.36388,-1.41011 -7.04998,-1.41011 h -7.04998 l -13.83674,24.93383 c -18.67536,33.653 -16.16523,30.61916 -25.33364,30.61916 -4.21958,0 -7.67193,-0.50334 -7.67193,-1.11853 z m 151.23106,-1.68655 c -2.40031,-2.41398 -2.69305,-3.40428 -2.0996,-7.10278 0.77879,-4.85371 10.2503,-22.13782 15.96948,-29.14193 6.87952,-8.42522 10.1576,-9.67845 26.77966,-10.23819 14.46759,-0.48718 14.77374,-0.55396 16.88119,-3.68251 l 2.14637,-3.18633 -16.79695,-0.60384 c -9.81425,-0.3528 -16.93701,-1.10587 -17.13388,-1.81151 -0.1853,-0.66421 1.42403,-3.92493 3.57631,-7.24603 l 3.91323,-6.03837 h 23.34684 c 21.50974,0 23.51778,0.18102 25.51944,2.3006 2.53817,2.6877 2.75323,6.4175 0.7011,12.15988 -1.71233,4.7915 -26.75154,50.66135 -29.84782,54.67883 -1.89934,2.4644 -3.03063,2.71726 -12.15729,2.71726 -6.63193,0 -10.19731,-0.47082 -10.45675,-1.38086 -0.29536,-1.03601 -0.94476,-1.03601 -2.60047,0 -1.2724,0.79619 -7.02206,1.38086 -13.57921,1.38086 -10.40994,0 -11.60849,-0.23741 -14.16165,-2.80508 z m 36.7673,-14.95654 c 1.77956,-1.31738 5.52619,-6.41932 8.3258,-11.33766 l 5.09021,-8.94244 -8.36096,-0.35265 c -5.70713,-0.24071 -8.8717,0.14262 -9.97008,1.20768 -1.648,1.59802 -12.65153,20.98894 -12.65153,22.29511 0,1.76703 14.50354,-0.60255 17.56656,-2.87004 z m -10.33612,-2.48303 c 0,-0.50703 1.6392,-3.76775 3.64267,-7.24605 3.4847,-6.04992 3.84302,-6.32415 8.26335,-6.32415 2.54139,0 4.6207,0.43476 4.6207,0.96613 0,1.8137 -2.47537,3.86456 -4.66451,3.86456 -1.47414,0 -2.94137,1.57238 -4.50765,4.83069 -1.7165,3.57078 -2.97841,4.83069 -4.83834,4.83069 -1.38393,0 -2.51622,-0.41485 -2.51622,-0.92187 z m 33.23594,18.64686 c 0.74579,-3.56805 46.94215,-85.822603 50.60633,-90.106722 6.09836,-7.130104 9.29878,-7.70643 47.01481,-8.466359 l 33.24614,-0.669872 3.0563,-3.426073 c 2.73172,-3.062238 11.53565,-23.889689 11.53565,-27.289918 0,-3.009402 -6.39793,-3.701266 -33.89537,-3.66541 -30.25014,0.03949 -41.50985,1.068247 -46.81837,4.277832 -4.38164,2.649166 -4.19316,2.184404 8.07605,-19.915139 l 10.14603,-18.2752397 43.38265,0.3321222 c 41.53681,0.3179806 43.53532,0.4369847 46.97099,2.7968035 2.29265,1.574733 4.13621,4.147706 5.10563,7.125695 1.35199,4.15319 1.33344,5.480519 -0.17015,12.183179 -2.15731,9.61691 -21.88296,59.845228 -26.04145,66.310556 -6.83998,10.634385 -15.87953,12.733095 -54.90572,12.747455 -23.44308,0.008 -25.06556,0.15312 -27.56881,2.45533 -2.57089,2.36438 -11.33209,16.8166 -12.67503,20.90835 -0.60704,1.84955 2.48302,2.00371 39.47756,1.96934 42.73513,-0.0397 53.32016,-0.90237 58.98012,-4.8068 1.95206,-1.34662 3.39131,-2.01061 3.1983,-1.47555 -0.19301,0.53506 -6.13575,11.6863 -13.20609,24.78052 l -12.85516,23.80769 h -66.49721 c -54.63492,0 -66.43759,-0.28503 -66.1632,-1.59779 z M 3.6453435,152.17875 c -0.9678254,-1.25036 -1.7590526,-2.50232 -1.7582882,-2.78212 7.644e-4,-0.27981 21.2660057,-0.53808 47.2560937,-0.57394 40.332312,-0.0556 47.894811,-0.34335 51.624241,-1.96396 3.7255,-1.61891 4.54571,-1.65057 5.56485,-0.21483 1.01088,1.4241 17.63082,1.63398 107.7023,1.36013 l 106.50697,-0.32382 6.76292,-3.74697 c 3.71959,-2.06085 8.4291,-5.45743 10.46555,-7.54796 2.03646,-2.09055 4.00722,-3.80099 4.37948,-3.80099 0.37224,0 -1.16932,3.17849 -3.42571,7.0633 -4.49337,7.73623 -9.63231,11.22782 -19.86439,13.49659 -3.22794,0.71573 -45.1672,1.17823 -106.84166,1.17823 -88.92214,0 -101.72046,-0.22518 -103.07904,-1.8136 -1.29094,-1.50936 -2.03981,-1.56233 -4.46369,-0.31576 -2.14393,1.10259 -15.60008,1.5983 -50.991234,1.87847 -45.9923662,0.36409 -48.1550839,0.28194 -49.8383925,-1.89277 z m 0.01725,-9.07153 c -0.2804895,-0.85458 0.6536421,-3.85751 2.0758383,-6.67314 2.2126299,-4.38051 2.818416,-4.89701 4.1975804,-3.57881 1.4016828,1.33973 1.4681618,1.23696 0.5099728,-0.78839 -0.8904893,-1.88229 -0.4798631,-3.44148 2.141172,-8.1301 1.783625,-3.19065 3.533474,-5.81094 3.888541,-5.82287 0.355067,-0.0121 0.91148,1.53278 1.236477,3.4327 1.132866,6.62263 8.850856,14.6607 14.076914,14.6607 1.471426,0 2.15368,0.82875 2.236955,2.71727 0.08615,1.95404 0.249873,2.13958 0.582856,0.66059 0.485596,-2.15692 1.547892,-2.69577 7.696969,-3.90422 4.687008,-0.92111 11.503909,-6.59923 14.572827,-12.13837 2.059437,-3.71712 2.850592,-4.21456 6.723981,-4.22775 4.790208,-0.0163 4.900141,0.11654 3.300004,3.98939 -1.052834,2.54816 -1.035275,2.55815 0.51646,0.29362 0.883499,-1.28934 1.606367,-2.70814 1.606367,-3.15289 0,-0.44475 2.323812,-1.13041 5.164022,-1.52371 10.104194,-1.39915 17.840232,-8.24622 26.86156,-23.774828 12.43161,-21.398821 33.05027,-59.773226 32.7265,-60.908897 -0.23824,-0.835602 -5.93363,-1.286294 -16.25513,-1.286294 H 101.63408 L 85.731172,61.669673 C 71.91383,86.621898 69.617989,90.18541 68.224859,88.842326 c -1.40161,-1.351241 -1.460838,-1.232817 -0.470557,0.940966 0.935217,2.052899 0.58297,3.475116 -2.018967,8.151796 -1.733497,3.115772 -3.524694,5.665042 -3.98044,5.665042 -0.455734,0 -1.140911,-1.66249 -1.522616,-3.694398 -0.950235,-5.058328 -6.853621,-11.635251 -11.857809,-13.210721 -2.276473,-0.716695 -4.146162,-1.961455 -4.154859,-2.766129 -0.01136,-1.054249 -0.227862,-1.082569 -0.77469,-0.101322 -0.797652,1.431274 -9.538697,3.596259 -9.538697,2.362547 0,-0.393206 2.556477,-5.15458 5.681061,-10.580837 3.124583,-5.426259 5.68106,-10.315115 5.68106,-10.864135 0,-0.54902 0.643035,-0.998214 1.428962,-0.998214 0.785929,0 1.635237,-1.22277 1.887352,-2.717266 0.638602,-3.785633 27.13888,-51.4917312 30.859139,-55.5529801 l 3.042259,-3.3211021 36.394143,0.026569 c 33.65412,0.024516 36.72304,0.2010898 40.76271,2.3451329 7.63151,4.0504161 10.70893,14.6131743 7.14898,24.5378723 -2.65039,7.388957 -56.57985,104.138573 -60.50874,108.552853 -2.16849,2.43639 -5.74459,5.01477 -7.946907,5.72971 -2.280624,0.74039 -13.506622,1.30283 -26.080228,1.30665 -20.422471,0.006 -21.969838,-0.14293 -20.658401,-1.99139 1.318956,-1.85906 1.187548,-1.85906 -1.888064,0 -4.001574,2.41874 -15.367371,2.76251 -16.152163,0.48854 -0.416793,-1.20768 -0.537306,-1.20768 -0.602533,0 -0.05536,1.02506 -2.02408,1.50958 -6.133645,1.50958 -5.61235,0 -6.419154,-0.36729 -11.103891,-5.05509 l -5.051794,-5.0551 4.08308,5.0551 4.083071,5.05509 h -7.32955 c -5.0220155,0 -7.4901156,-0.48917 -7.8395317,-1.5538 z m 55.9093805,-7.44644 c 1.333781,-1.35996 3.353479,-4.10301 4.488202,-6.09567 1.840004,-3.23115 1.734325,-3.17867 -0.97707,0.48528 -1.672111,2.25957 -4.40716,5.52029 -6.077866,7.24605 -1.670706,1.72575 -2.322304,2.62006 -1.447989,1.98736 0.874316,-0.63271 2.680944,-2.26307 4.014723,-3.62302 z m 3.381399,-53.848309 c -2.487518,-2.629636 -4.997525,-4.781167 -5.57781,-4.781167 -0.580283,0 0.827535,1.594467 3.128478,3.543253 2.300943,1.948799 4.489783,4.122612 4.864082,4.830695 0.3743,0.708094 1.001717,1.265158 1.394278,1.237913 0.392551,-0.02729 -1.321519,-2.201057 -3.809028,-4.830694 z M 44.919507,77.937059 c -0.286542,-0.830276 -0.520994,-0.150959 -0.520994,1.509591 0,1.660552 0.234452,2.339868 0.520994,1.509592 0.286543,-0.830274 0.286543,-2.188908 0,-3.019183 z m 9.645118,-2.113428 c -0.852158,-0.643872 -2.479008,-1.12484 -3.61522,-1.068792 -1.70188,0.08394 -1.61089,0.272234 0.51646,1.068792 3.652075,1.367484 4.90858,1.367484 3.09876,0 z m -7.884867,-3.004052 c -0.442792,-1.349116 -0.853037,-1.405769 -1.906419,-0.263248 -0.938398,1.017802 -1.002986,1.704328 -0.214692,2.281862 1.589973,1.164886 2.790867,0.02198 2.121111,-2.018614 z m 0.327105,-5.676102 c -0.329729,-0.963398 -0.574489,-0.677227 -0.624049,0.72964 -0.04484,1.273094 0.199271,1.986369 0.542511,1.585071 0.343228,-0.401297 0.379918,-1.442916 0.0815,-2.314711 z m 62.302517,76.268303 c 0,-0.71767 3.57978,-7.79507 7.95508,-15.72756 l 7.95506,-14.42271 h 94.36308 c 66.77556,0 95.71955,-0.39935 99.00286,-1.36596 4.59277,-1.35214 6.39476,-3.32517 11.35118,-12.428613 l 1.92158,-3.529353 -3.02929,2.321679 c -2.73042,2.092617 -5.04286,2.321677 -23.43823,2.321677 -17.6643,0 -20.64042,-0.27047 -22.13021,-2.011208 -1.1075,-1.294059 -1.49945,-3.0166 -1.09919,-4.830694 0.74733,-3.387065 28.09742,-52.63945 33.19695,-59.781535 2.04712,-2.867053 6.15715,-6.504227 9.55274,-8.453714 5.77266,-3.314206 6.5472,-3.434044 24.67255,-3.817226 l 18.71279,-0.395598 2.06215,3.065124 2.06215,3.065124 2.38758,-2.971445 c 2.28607,-2.845098 2.9289,-2.971444 15.11903,-2.971444 7.00229,0 12.73145,0.303004 12.73145,0.67335 0,0.370345 -2.75307,4.497316 -6.11792,9.171072 -3.36485,4.673745 -16.92026,27.747748 -30.12312,51.275558 -25.99444,46.322706 -29.49474,51.241596 -40.99729,57.612466 l -6.94466,3.84642 -104.58316,0.32971 c -74.3997,0.23456 -104.58316,-0.0469 -104.58316,-0.97512 z m 172.306,-9.61982 c 1.31805,0 2.2575,0.75385 2.2575,1.81151 0,0.99634 0.68424,1.81151 1.52053,1.81151 0.96481,0 2.14356,-2.5379 3.22525,-6.94412 0.93761,-3.81927 1.90765,-7.35171 2.15565,-7.84988 0.24802,-0.49816 -0.45826,-0.90576 -1.56949,-0.90576 -1.21957,0 -4.60657,3.4706 -8.54475,8.75564 -3.58837,4.8156 -5.34935,7.53287 -3.91325,6.03837 1.43608,-1.49449 3.62695,-2.71727 4.86856,-2.71727 z m 0.19166,-3.3473 c 0,-0.60997 0.97702,-2.14282 2.17114,-3.40634 2.15346,-2.27855 2.1682,-2.27279 1.80762,0.70626 -0.33511,2.76865 -3.97876,5.24133 -3.97876,2.70008 z m -142.39273,2.44154 2.11847,-3.92493 h -2.7447 c -1.67523,0 -2.48028,0.50022 -2.06609,1.28377 0.70047,1.32512 -2.26707,5.96227 -3.81553,5.96227 -1.6296,0 -0.88147,-2.56932 2.34427,-8.05097 2.79979,-4.75784 3.60958,-5.39961 6.24299,-4.94772 1.66426,0.28559 3.28214,0.0346 3.5953,-0.55794 0.31317,-0.59246 -1.66865,-0.90944 -4.40404,-0.7044 -4.72641,0.35427 -5.16742,0.69796 -8.87826,6.91933 -2.14763,3.6006 -3.90478,7.02697 -3.90478,7.61414 0,0.58716 2.11363,0.90194 4.69696,0.69948 4.01635,-0.31475 5.00391,-0.93681 6.81541,-4.29303 z m 15.43797,-3.01918 4.18104,-7.54796 -3.79572,-0.38238 c -2.08766,-0.21032 -4.41418,-0.10495 -5.17006,0.2342 -1.40349,0.62969 -8.73763,12.65138 -8.73763,14.32223 0,0.50702 2.10179,0.92187 4.67067,0.92187 4.59476,0 4.73861,-0.12266 8.8517,-7.54796 z m -9.39069,5.0483 c 0,-1.83879 6.1122,-11.99242 7.2191,-11.99242 2.12448,0 1.76431,2.26802 -1.20874,7.61174 -2.90373,5.21912 -6.01036,7.4834 -6.01036,4.38068 z m 22.95115,-4.65072 c 2.14762,-3.60061 3.90477,-6.99719 3.90477,-7.54795 0,-0.55078 -2.07434,-1.00143 -4.60966,-1.00143 -4.47305,0 -4.73323,0.21278 -8.77981,7.17979 -2.2936,3.94887 -4.17017,7.5111 -4.17017,7.91604 0,0.40495 2.19376,0.57064 4.87504,0.36818 4.60772,-0.34791 5.08914,-0.72705 8.77983,-6.91463 z m -9.5232,5.14269 c 0,-2.03465 6.57449,-12.48439 7.8546,-12.48439 2.19372,0 1.75092,2.0585 -1.70669,7.9342 -2.69712,4.58335 -6.14791,7.13734 -6.14791,4.55019 z m 22.95115,-5.14269 c 2.14763,-3.60061 3.90478,-6.99719 3.90478,-7.54795 0,-0.55078 -2.02989,-1.00143 -4.51087,-1.00143 -4.81932,0 -4.2023,-0.66898 -11.48488,12.45248 l -1.88422,3.39492 5.03521,-0.37574 c 4.80086,-0.35824 5.21693,-0.68041 8.93998,-6.92228 z m -9.49757,5.03696 c 0.0464,-1.63912 7.20201,-12.37866 8.24779,-12.37866 1.77151,0 1.12641,2.40806 -2.1255,7.9342 -2.73537,4.64836 -6.19915,7.16287 -6.12229,4.44446 z m 21.55211,-2.11343 c 0.91824,-1.99266 2.4815,-4.96671 3.47388,-6.60901 2.66882,-4.41664 2.28186,-5.03357 -2.90296,-4.62814 -4.54619,0.35549 -4.84879,0.62869 -8.84055,7.98162 l -4.13323,7.61353 5.36665,-0.36749 c 4.7578,-0.3258 5.55605,-0.77853 7.03621,-3.99051 z m -8.14976,1.99868 c 0,-1.45048 3.54595,-5.01787 4.9877,-5.01787 1.56173,0 1.48716,1.28316 -0.22805,3.92495 -1.40327,2.16132 -4.75965,2.93203 -4.75965,1.09292 z m 4.13167,-7.15749 c 0,-1.73351 4.05867,-5.59435 4.87619,-4.63853 0.40249,0.47059 0.23362,1.78061 -0.37528,2.91113 -1.20964,2.2459 -4.50091,3.50905 -4.50091,1.7274 z m 15.95193,1.19446 c 3.37654,-4.46181 4.74555,-6.61789 3.04223,-4.79129 -3.8344,4.11196 -4.75763,4.18298 -3.92451,0.30193 0.52792,-2.45928 0.26872,-3.0192 -1.39768,-3.0192 -1.59394,0 -2.1943,1.08576 -2.71812,4.91572 -0.36977,2.70364 -1.41226,6.23609 -2.31664,7.84988 -1.31135,2.33996 -1.35881,2.92619 -0.2344,2.89475 0.77547,-0.0216 4.17257,-3.68997 7.54912,-8.15179 z m 8.06347,7.33892 c -1.27823,-0.28787 -2.30929,-0.89316 -2.29121,-1.34514 0.086,-2.14914 3.03179,-5.06306 5.24561,-5.1887 1.75078,-0.0994 1.9429,-0.30067 0.66083,-0.6924 -2.17234,-0.66373 -2.25789,-1.60892 -0.41269,-4.55931 0.91898,-1.46941 2.15246,-1.9988 3.61521,-1.55156 1.22116,0.37338 2.2203,0.18629 2.2203,-0.41575 0,-0.60204 -1.78464,-1.09462 -3.96587,-1.09462 -3.08768,0 -4.21737,0.60172 -5.1015,2.71727 -0.62461,1.4945 -2.35242,5.02694 -3.83958,7.84988 l -2.70393,5.13261 4.44844,-0.16446 c 2.44666,-0.0904 3.40264,-0.39998 2.12439,-0.68782 z m 23.84089,-3.07265 c 1.3821,-2.15872 3.27696,-5.69116 4.21078,-7.84988 l 1.69784,-3.92495 h -4.64293 c -4.8635,0 -5.22786,0.41985 -12.31477,14.19018 -0.57576,1.11876 0.42865,1.50958 3.87961,1.50958 4.04945,0 4.98417,-0.51171 7.16947,-3.92493 z m -7.5724,2.19367 c 0,-1.83777 6.76339,-12.76082 7.90131,-12.76082 2.03426,0 1.7498,1.28831 -1.68103,7.61344 -1.6918,3.11903 -3.78348,5.67097 -4.64815,5.67097 -0.86467,0 -1.57213,-0.23562 -1.57213,-0.52359 z m 15.75204,0.87898 c -1.27824,-0.28787 -2.30929,-0.89316 -2.29123,-1.34514 0.0928,-2.32384 3.12588,-5.06783 5.76209,-5.21307 2.43602,-0.13423 2.55752,-0.26071 0.66081,-0.68784 -2.68751,-0.60521 -2.86064,-1.45112 -0.92915,-4.5395 0.91899,-1.46941 2.15246,-1.9988 3.61523,-1.55156 1.22116,0.37338 2.2203,0.18629 2.2203,-0.41575 0,-0.60204 -1.74305,-1.07845 -3.87345,-1.0587 -3.67616,0.034 -4.06666,0.4339 -7.66683,7.84988 l -3.79338,7.81396 4.30984,-0.16446 c 2.37041,-0.0904 3.26401,-0.39998 1.98577,-0.68782 z m 16.16646,-3.4436 c 2.71751,-5.38508 2.7204,-6.57317 0.0159,-6.57317 -3.43662,0 -1.69527,-2.93545 2.23402,-3.76597 3.5212,-0.74427 3.51844,-0.7473 -0.81957,-0.90576 -3.93349,-0.14365 -4.60494,0.27508 -6.9722,4.34822 -3.25503,5.60062 -3.26337,6.36187 -0.0696,6.36187 4.0751,0 2.02195,3.4133 -2.38028,3.95712 -3.43619,0.42448 -3.34228,0.48625 1.0195,0.67057 4.48401,0.18946 4.9489,-0.0834 6.97221,-4.09288 z m 6.11161,1.2767 c 0.92142,-2.36444 1.94325,-3.01918 4.71191,-3.01918 2.95631,0 3.8904,-0.7036 5.7032,-4.29589 1.19233,-2.36274 2.16787,-4.56633 2.16787,-4.89687 0,-0.33053 -2.17174,-0.43534 -4.82608,-0.23288 -4.70863,0.35912 -4.92203,0.5518 -8.76763,7.91604 -3.36027,6.43489 -3.66313,7.54796 -2.05369,7.54796 1.03831,0 2.4173,-1.35863 3.06442,-3.01918 z m 3.28669,-5.51392 c 0,-2.45609 2.14651,-5.95898 3.65157,-5.95898 1.93769,0 1.91249,1.21114 -0.095,4.56198 -1.69679,2.83234 -3.55666,3.56286 -3.55666,1.397 z m 26.00117,0.64731 c 3.06522,-6.31401 3.46177,-7.80706 2.06584,-7.77805 -1.02991,0.0214 -3.25943,3.19144 -5.52092,7.84988 -3.06521,6.31401 -3.46177,7.80707 -2.06583,7.77805 1.02989,-0.0214 3.25941,-3.19144 5.52091,-7.84988 z m 4.77625,4.2704 c 2.26164,-4.64699 3.66474,-4.65081 2.79249,-0.007 -0.52206,2.77903 -0.31677,3.62301 0.88125,3.62301 0.85901,0 1.87899,-1.22277 2.26663,-2.71726 0.38762,-1.4945 1.5229,-3.80417 2.52282,-5.13262 0.99993,-1.32844 2.3573,-3.63811 3.01639,-5.1326 1.1621,-2.63512 1.04888,-2.71694 -3.74438,-2.70609 l -4.94271,0.0109 -3.81143,7.8387 c -2.79223,5.74247 -3.40086,7.83861 -2.27603,7.83861 0.84447,0 2.3272,-1.62691 3.29497,-3.61539 z m 3.30895,-5.81517 c 0,-0.53728 0.62671,-1.97893 1.39268,-3.20369 1.85714,-2.96946 4.18282,-1.38905 2.70546,1.83849 -1.0474,2.28817 -4.09814,3.30446 -4.09814,1.3652 z m 29.71822,-51.586722 c 7.42367,-2.577586 10.61372,-6.17254 19.9766,-22.512265 l 8.18949,-14.292007 H 349.09858 334.74864 L 323.8624,58.916201 312.97616,78.238978 h 8.50158 c 4.67587,0 10.88797,-0.828574 13.80468,-1.84128 z m -15.08518,-2.788264 c 0.18936,-0.553598 4.05298,-7.618488 8.58582,-15.699756 l 8.2415,-14.693232 h 9.57636 c 5.267,0 9.57637,0.45923 9.57637,1.020508 0,3.045656 -4.0764,5.018825 -10.41054,5.0392 l -6.63265,0.02138 -7.11066,12.659245 c -5.82216,10.365304 -7.5691,12.659232 -9.64059,12.659232 -1.39146,0 -2.37499,-0.452938 -2.18561,-1.006524 z m 405.4488,52.817746 c 1.02631,-2.05799 3.32264,-5.7263 5.10298,-8.1518 l 3.23696,-4.41003 32.39878,-0.69999 c 37.28554,-0.80558 39.36874,-1.27502 47.36349,-10.67291 3.75915,-4.418927 6.54881,-10.159724 13.8396,-28.48033 12.70043,-31.9141 15.28851,-39.839566 15.89635,-48.679386 0.59859,-8.704971 2.0489,-8.476709 2.9539,0.46493 0.79895,7.893909 -1.96129,17.305031 -14.14117,48.214456 -10.95973,27.81306 -13.90376,33.33483 -20.30286,38.07959 -7.47944,5.54581 -12.69721,6.31263 -45.23105,6.64738 l -29.95469,0.30821 -4.18757,5.56082 c -2.64645,3.51432 -5.0438,5.56082 -6.51414,5.56082 -2.3144,0 -2.31681,-0.0196 -0.46058,-3.74176 z m -696.116742,0.64361 c -1.555154,-0.98657 -3.530614,-3.38337 -4.389911,-5.3262 -1.794512,-4.05732 -2.088595,-10.89842 -0.46848,-10.89842 0.601624,0 0.80137,-0.55337 0.443855,-1.22971 -1.138092,-2.153 3.650392,-9.55366 8.197409,-12.669213 5.173123,-3.544558 7.496149,-3.799825 8.145391,-0.89508 0.449889,2.012794 0.478087,2.012794 0.592203,0 0.185214,-3.266817 4.777504,-2.608985 8.430664,1.207674 2.278404,2.380373 3.345576,4.774949 3.767513,8.453709 0.546942,4.76868 0.414253,5.14256 -1.871382,5.27271 -1.750727,0.0997 -1.938864,0.29934 -0.652464,0.6924 5.301379,1.61978 -3.434584,13.37782 -12.317314,16.57832 -1.793811,0.64632 -2.337705,0.25139 -2.699867,-1.96044 l -0.453524,-2.7698 -0.140664,2.71726 c -0.165018,3.18777 -2.416143,3.47048 -6.583429,0.82679 z m 13.486817,-15.21023 3.80161,-0.19326 -3.35699,-0.48709 c -2.22928,-0.32345 -3.397244,-1.17133 -3.47681,-2.52399 -0.107568,-1.82854 -0.168148,-1.82071 -0.592203,0.0766 -0.2598,1.16239 -1.251713,2.15634 -2.204252,2.20877 -1.07433,0.0592 -1.241663,0.3266 -0.440715,0.70447 0.710132,0.33502 1.354446,1.78663 1.431812,3.22576 0.138391,2.57434 0.147904,2.57271 0.5883,-0.10062 0.359767,-2.18386 1.193922,-2.75522 4.249248,-2.91055 z m 575.522865,16.65116 c 0,-0.28137 1.15643,-2.87674 2.56986,-5.76746 1.41342,-2.89074 2.57546,-4.57657 2.58229,-3.74629 0.007,0.83027 0.94209,2.59649 2.07829,3.92493 1.66562,1.94741 1.75573,2.41535 0.46517,2.41535 -0.88038,0 -2.97203,0.82914 -4.64814,1.84252 -1.67611,1.01339 -3.04747,1.61232 -3.04747,1.33095 z M 60.934303,114.68461 c 0.189366,-0.54573 9.872991,-18.207209 21.519163,-39.247725 L 103.62833,37.1814 116.29034,37.1802 c 12.40363,-0.0012 12.6357,0.04758 11.3719,2.413692 -1.1452,2.144007 -2.4088,2.415347 -11.2483,2.415347 h -9.95817 L 86.110765,78.843273 c -17.772274,32.176217 -20.67226,36.834067 -22.932888,36.834067 -1.423342,0 -2.43295,-0.44651 -2.243574,-0.99224 z m 483.234437,-0.89053 c 0,-1.03553 0.4648,-1.54692 1.03292,-1.1364 0.56811,0.41051 1.03292,1.25776 1.03292,1.88279 0,0.62501 -0.46481,1.13639 -1.03292,1.13639 -0.56812,0 -1.03292,-0.84726 -1.03292,-1.88278 z m 79.53484,-1.20768 c 0,-1.03554 0.47239,-1.54142 1.04976,-1.12422 0.57738,0.4172 0.78237,1.26445 0.45551,1.88279 -0.88545,1.67508 -1.50527,1.36274 -1.50527,-0.75857 z m 65.76258,-0.13001 c -0.37874,-0.4428 -0.68862,-1.36667 -0.68862,-2.05304 0,-0.75673 0.4811,-0.68543 1.22229,0.18115 0.67227,0.786 0.98214,1.70988 0.68862,2.05304 -0.29353,0.34319 -0.84355,0.26167 -1.22229,-0.18115 z m -212.19751,-5.23324 c -1.20958,-2.26451 -1.03158,-2.41535 2.8503,-2.41535 4.27897,0 5.03717,0.8838 2.90092,3.38149 -1.85147,2.1647 -4.29848,1.75364 -5.75122,-0.96614 z m -344.98344,-6.61708 c 2.4181,-4.3036 4.69095,-7.836046 5.05078,-7.849873 0.35982,-0.01377 0.92253,1.174487 1.25046,2.640687 0.38946,1.741223 -0.37482,4.463065 -2.20359,7.847716 -2.19225,4.05739 -3.41771,5.18237 -5.64703,5.18406 l -2.84718,0.002 4.39656,-7.82475 z m 11.18979,4.69822 c -3.92104,-3.85754 -4.19542,-6.163099 -0.38579,-3.24159 2.28616,1.75318 5.04746,2.13868 15.23556,2.127 6.84385,-0.008 13.6054,-0.10289 15.02566,-0.2111 1.42026,-0.10821 7.29057,0.0687 13.04513,0.39327 8.01306,0.45192 11.35937,0.1521 14.29187,-1.28046 3.38646,-1.65435 4.00632,-1.66325 5.36299,-0.077 2.05056,2.39748 15.89738,2.45783 19.77201,0.0862 1.81065,-1.1083 8.35827,-11.700831 18.66268,-30.191828 L 260.35856,44.42412 h 3.97783 c 3.1974,0 3.85525,0.37357 3.35293,1.90403 -0.3437,1.04721 -1.63591,2.353429 -2.87159,2.902715 -1.37285,0.610262 -8.36768,12.040662 -17.98412,29.388228 -8.65561,15.614233 -16.45068,28.709517 -17.32241,29.100627 -3.16642,1.42065 -22.07441,0.78841 -22.07441,-0.73811 0,-1.12716 -0.27544,-1.12716 -1.2395,0 -0.9055,1.0587 -9.09504,1.44921 -30.39189,1.44921 h -29.15241 z m 99.76969,2.32141 c -2.43812,-2.85062 0.0374,-3.40326 13.69437,-3.05722 l 14.38635,0.36451 3.39121,-3.54269 3.39122,-3.542684 2.78048,3.480094 2.78048,3.48009 h 18.69459 c 10.28204,0 18.69461,0.48007 18.69461,1.06682 0,1.96671 -4.54741,2.52312 -20.75654,2.53971 -14.84786,0.0152 -16.25584,-0.17398 -17.99247,-2.4176 l -1.88406,-2.43409 -2.21604,2.43409 c -2.02521,2.22447 -3.59653,2.43409 -18.24582,2.43409 -8.81637,0 -16.33965,-0.3623 -16.71838,-0.80512 z m 117.06428,-5.73377 c 0,-0.41742 1.25213,-2.971163 2.78253,-5.674988 2.65268,-4.686667 2.8224,-4.789995 3.63731,-2.214426 1.05561,3.336367 0.11487,7.182264 -1.75683,7.182264 -0.7674,0 -2.13054,0.32986 -3.02916,0.73305 -0.89863,0.40316 -1.63385,0.39151 -1.63385,-0.0258 z m 98.27307,-1.622 c 0.20393,-0.605382 7.281,-13.418344 15.72679,-28.473251 l 15.356,-27.372559 h 4.06258 c 3.39223,0 3.91249,0.313547 3.15304,1.900238 -0.50026,1.04512 -1.94808,2.539616 -3.21741,3.321101 -1.26932,0.781475 -8.50087,12.561652 -16.0701,26.178172 -11.76926,21.172092 -14.16913,24.814499 -16.57198,25.152149 -1.54535,0.21715 -2.64287,-0.10048 -2.43892,-0.70585 z M 143.94469,97.105681 c -1.43812,-1.681432 -2.61478,-4.259489 -2.61478,-5.729022 0,-5.988014 14.46728,-31.831429 21.16112,-37.800862 6.68571,-5.962163 9.65681,-6.736331 25.85289,-6.736331 14.99768,0 15.07039,-0.01329 17.61914,-3.228739 1.40763,-1.775811 2.39297,-3.81376 2.18967,-4.528775 -0.23983,-0.84344 -6.59765,-1.416082 -18.10244,-1.630468 -13.30249,-0.247887 -17.73278,-0.705849 -17.73278,-1.833091 0,-1.866412 4.86623,-10.589569 7.04594,-12.630478 1.18947,-1.113717 8.13661,-1.509591 26.49155,-1.509591 28.59308,0 29.47063,0.255205 29.47063,8.570315 0,2.645674 -0.99696,7.098342 -2.21546,9.894819 -2.39777,5.502885 -29.18287,54.452651 -31.69368,57.920219 -1.28559,1.775438 -3.34108,2.113429 -12.85282,2.113429 -10.98003,0 -11.3054,-0.07645 -10.75741,-2.526502 0.55194,-2.467699 0.51623,-2.474728 -1.53402,-0.301918 -1.77263,1.878609 -4.24635,2.285982 -15.90593,2.619371 -13.60228,0.388933 -13.84559,0.349493 -16.42162,-2.662376 z m 40.19603,-16.411346 c 3.06432,-2.214258 11.92937,-16.004114 13.64086,-21.218775 0.48236,-1.469655 -0.97285,-1.767032 -8.64679,-1.767032 -8.25661,0 -9.4479,0.285712 -11.3302,2.717265 -2.532,3.270827 -12.71752,21.884469 -12.71752,23.240746 0,2.035353 15.46146,-0.376491 19.05365,-2.972204 z m -12.22075,-2.757276 c 0.41651,-0.830276 2.55293,-4.634447 4.74758,-8.453715 l 3.9903,-6.944122 h 5.67891 c 5.29701,0 5.60692,0.1573 4.60828,2.338949 -0.6458,1.410865 -2.40213,2.489076 -4.42624,2.717266 -2.71488,0.306085 -3.94733,1.461164 -6.45438,6.049201 -2.45729,4.496917 -3.69942,5.684446 -6.00026,5.736448 -2.04571,0.04626 -2.67813,-0.379681 -2.14419,-1.444027 z m 36.18349,21.116527 c -0.6799,-1.286233 38.80475,-72.607051 41.77721,-75.461834 1.94781,-1.870699 4.80898,-2.113428 24.91248,-2.113428 25.28421,0 28.47511,0.765375 30.82323,7.393316 1.01233,2.857476 1.01229,4.628735 -2.4e-4,8.580001 -1.19591,4.666897 -27.86281,53.868463 -32.41562,59.8082 -1.96235,2.560135 -2.87873,2.717265 -15.84715,2.717265 -9.35028,0 -13.76438,-0.42748 -13.76438,-1.332982 0,-0.733142 6.43485,-12.824979 14.29964,-26.870741 15.9509,-28.486771 16.88951,-30.334089 15.96301,-31.417323 -0.35875,-0.41945 -3.94469,-0.757284 -7.96878,-0.750739 l -7.31652,0.01208 -16.61245,29.878035 -16.61246,29.878029 -8.34994,0.349139 c -4.59247,0.19202 -8.59208,-0.108932 -8.88803,-0.668821 z m 164.87601,-1.450971 c -4.84286,-5.275118 -3.88228,-9.801014 5.56861,-26.237558 6.92683,-12.046809 15.04698,-21.085762 20.73115,-23.076902 2.34149,-0.820215 10.26539,-1.448689 18.26535,-1.448689 13.73688,0 14.2024,-0.0849 16.74141,-3.053493 4.65196,-5.438987 3.29994,-5.975593 -15.96036,-6.334489 -13.16539,-0.245327 -17.73144,-0.711911 -17.72757,-1.811511 0.003,-0.814587 1.76507,-4.198344 3.91602,-7.519445 l 3.91083,-6.038368 25.55103,-0.323089 25.55104,-0.323088 2.66887,3.12041 c 4.71637,5.514298 3.20896,9.658574 -16.67082,45.832707 -7.30054,13.284409 -14.2029,25.376245 -15.33858,26.870741 -1.90121,2.501901 -2.95114,2.717265 -13.24693,2.717265 -9.43204,0 -11.18207,-0.294226 -11.18207,-1.879986 0,-1.701539 -0.21791,-1.701539 -2.29567,0 -1.78263,1.459836 -5.20173,1.879986 -15.29903,1.879986 -11.50104,0 -13.25522,-0.274335 -15.18328,-2.374491 z M 412.09768,81.0887 c 3.38465,-2.301318 14.19247,-18.858474 14.2762,-21.87058 0.0454,-1.630287 -14.72698,-2.222421 -18.06636,-0.724182 -1.53539,0.688858 -14.94511,23.450508 -14.94511,25.367786 0,1.760075 15.42637,-0.523188 18.73527,-2.773024 z m -7.7463,-10.095764 4.80792,-8.453714 h 5.56586 c 5.24577,0 5.50227,0.138906 4.46026,2.415347 -0.7292,1.59303 -2.16276,2.415347 -4.21069,2.415347 -2.60942,0 -3.61759,0.963905 -6.31558,6.038367 -2.63838,4.962319 -3.73666,6.038367 -6.1631,6.038367 h -2.95259 z m 32.69605,27.389473 c 1.30212,-3.967413 39.36666,-71.714327 41.68287,-74.18682 2.47847,-2.645711 3.14506,-2.717265 25.31427,-2.717265 25.4598,0 28.52482,0.745255 30.92469,7.5193 2.03791,5.752319 -0.0123,10.685676 -17.64759,42.465146 l -15.82338,28.514336 h -14.30052 c -10.2048,0 -14.30052,-0.403423 -14.30052,-1.40857 0,-0.77471 6.43871,-12.866547 14.30825,-26.870729 15.87298,-28.246698 16.89105,-30.246641 15.95439,-31.341747 -0.35875,-0.41945 -3.94469,-0.758733 -7.96878,-0.753976 l -7.31652,0.0084 -16.64638,29.88126 -16.64637,29.881266 -9.04505,0.351094 c -7.41808,0.287946 -8.94508,0.04662 -8.48936,-1.341954 z m 69.55645,0.08514 c 0.4263,-0.830276 7.02801,-12.650386 14.67046,-26.266904 15.52386,-27.658778 17.67447,-32.397762 17.70712,-39.018735 0.0274,-5.552786 1.73215,-4.887443 2.68447,1.047693 1.19125,7.424197 -1.10061,13.214255 -15.71381,39.698812 -12.99715,23.555665 -14.58845,25.958187 -17.22185,26.001264 -2.05237,0.03357 -2.67467,-0.394329 -2.12639,-1.46213 z M 722.42122,55.810754 c -2.22014,-2.59575 -2.03584,-4.140593 0.49398,-4.140593 1.16442,0 3.6047,-0.951043 5.42284,-2.113429 2.93044,-1.873512 7.3216,-2.155891 38.6832,-2.487506 19.45764,-0.205739 35.3704,0.06594 35.3617,0.603838 -0.0567,3.497119 -2.28245,3.772011 -34.07055,4.20757 -31.02111,0.425053 -32.77168,0.571193 -37.57466,3.136859 -5.99924,3.204695 -6.2348,3.227158 -8.31651,0.793261 z M 162.44489,46.07554 c 1.0066,-1.992359 2.63305,-4.866899 3.6143,-6.387879 l 1.78411,-2.765404 3.01179,3.343045 c 1.65649,1.838683 2.25502,3.025622 1.33006,2.637632 -0.92495,-0.387977 -2.08699,-0.291399 -2.5823,0.214616 -0.49531,0.506015 -2.72028,2.19363 -4.94436,3.750249 l -4.04381,2.830207 z m 230.4558,-2.557175 c 1.58524,-2.490827 2.98242,-4.693925 3.10487,-4.895764 0.12243,-0.201851 1.78569,0.747163 3.6961,2.108913 2.36636,1.686745 2.88143,2.477348 1.61597,2.480427 -1.02162,0.0024 -3.78161,1.091411 -6.1333,2.419853 -2.35167,1.32844 -4.47606,2.415346 -4.72083,2.415346 -0.24477,0 0.85196,-2.037948 2.43719,-4.528775 z m -83.2048,-12.378654 c 0,-2.254315 0.27544,-2.576366 1.23949,-1.449207 0.96406,1.127169 0.96406,1.771258 0,2.898415 -0.96405,1.127171 -1.23949,0.805121 -1.23949,-1.449208 z m 158.03676,-1.207673 c 0,-2.202845 0.42866,-3.455818 1.03292,-3.019184 0.5681,0.410512 1.03292,1.769146 1.03292,3.019184 0,1.250039 -0.46482,2.608671 -1.03292,3.019183 -0.60426,0.436634 -1.03292,-0.816326 -1.03292,-3.019183 z M 239.45731,28.795641 c 0,-2.916 0.57442,-3.210177 1.39377,-0.713784 0.32002,0.975052 0.13734,2.094034 -0.40596,2.486625 -0.54328,0.392578 -0.98781,-0.405199 -0.98781,-1.772841 z m -67.71157,-9.274896 c -0.05,-5.942406 0.0716,-6.312074 1.25454,-3.820305 1.68934,3.557914 1.72956,7.561787 0.0919,9.148403 -1.00491,0.973603 -1.30341,-0.207587 -1.34646,-5.328098 z"
     id="path2690"
     inkscape:connector-curvature="0" />
</svg>
