<svg width="1900" height="797" viewBox="0 0 1900 797" fill="none" xmlns="http://www.w3.org/2000/svg">
<path d="M1672.53 611.19C1674.96 608.488 1674.96 605.515 1676.31 603.353C1676.85 602.273 1677.66 601.192 1679.01 601.462C1680.91 601.462 1681.45 603.083 1681.45 604.434C1681.45 608.218 1681.45 611.73 1681.45 615.513C1681.45 616.594 1681.18 617.675 1680.09 617.946C1678.47 618.486 1678.2 616.865 1677.93 615.784C1677.66 614.973 1677.93 614.162 1677.12 613.622C1675.23 614.703 1676.04 618.486 1673.07 618.216C1670.1 618.216 1670.64 614.703 1669.02 613.352C1668.48 613.352 1668.21 613.352 1668.21 613.892C1667.93 615.243 1668.21 617.675 1666.04 617.675C1663.88 617.675 1664.15 615.243 1664.15 613.892C1663.88 611.73 1664.15 609.298 1663.88 607.137C1663.88 605.515 1663.07 604.434 1661.18 604.434C1659.56 604.434 1658.48 605.515 1658.48 607.137C1658.21 609.839 1658.21 612.541 1658.21 614.973C1658.21 616.324 1657.94 617.675 1656.32 617.675C1654.69 617.675 1654.42 616.324 1654.42 614.973C1654.42 614.703 1654.15 614.162 1654.42 613.892C1656.32 606.596 1651.45 603.624 1645.78 601.192C1640.91 599.03 1636.32 596.328 1632 593.626C1626.86 590.653 1621.73 590.653 1616.86 593.085C1613.35 594.706 1610.11 595.247 1606.32 595.247C1593.08 595.247 1580.11 596.868 1566.87 596.598C1562.55 596.328 1559.04 598.219 1556.6 602.002C1553.36 607.137 1548.77 611.46 1548.23 617.946C1547.96 620.378 1543.63 622.269 1541.47 621.458C1540.39 620.918 1539.85 620.107 1540.12 619.026C1540.39 617.135 1541.2 615.514 1541.47 613.622C1543.63 605.245 1539.04 597.949 1530.39 596.598C1527.42 596.057 1524.45 596.328 1521.2 596.328C1496.34 596.328 1471.75 596.598 1446.89 596.058C1439.06 596.058 1433.92 598.76 1429.87 605.245C1424.73 613.622 1418.79 621.729 1413.12 629.835C1412.3 631.186 1411.76 632.808 1409.6 633.618C1409.6 631.186 1410.95 629.565 1411.76 627.673C1413.66 623.89 1415.55 620.107 1416.09 615.784C1417.17 607.677 1413.93 601.462 1406.63 597.949C1405.01 597.138 1403.12 597.138 1401.77 595.517C1402.58 593.625 1404.47 593.626 1405.82 593.355C1437.17 584.438 1468.24 575.521 1499.59 566.873C1504.99 565.522 1507.69 562.82 1509.04 557.416C1520.12 514.721 1531.47 472.296 1542.55 429.601C1542.55 429.33 1542.82 428.79 1542.82 428.52C1543.9 424.196 1543.09 423.656 1539.04 424.737C1534.45 426.088 1530.12 427.439 1525.53 428.79C1505.8 434.735 1486.35 440.95 1466.62 446.625C1461.21 448.246 1457.43 450.678 1455 456.082C1448.51 469.323 1441.22 482.294 1434.46 495.535C1433.92 496.345 1433.38 497.156 1433.92 498.778C1438.79 495.265 1442.3 490.401 1445.54 485.807C1450.14 479.862 1455.27 476.619 1462.57 475.538C1469.86 474.458 1476.89 472.296 1483.91 470.674C1488.24 469.864 1489.05 470.674 1487.7 474.458C1482.56 489.86 1477.43 505.263 1472.29 520.666C1471.21 524.178 1468.24 525.53 1465.27 526.881C1451.49 532.555 1437.71 537.96 1424.19 543.634C1413.93 547.688 1403.93 552.011 1393.93 556.065C1392.04 556.875 1390.42 557.956 1387.44 557.686C1391.5 545.256 1398.52 534.447 1403.12 521.746C1398.52 521.206 1394.47 523.097 1390.42 523.638C1387.98 523.908 1384.74 526.07 1383.12 523.638C1381.77 521.746 1384.2 519.044 1385.01 516.882C1405.28 466.891 1425.82 416.9 1446.08 366.909C1447.97 362.315 1450.68 359.343 1455.54 357.721C1474.19 350.966 1492.83 343.67 1511.21 336.644C1513.37 335.834 1516.07 333.672 1517.96 335.293C1519.85 337.185 1517.69 339.887 1517.15 342.049C1514.18 353.128 1511.21 363.937 1508.23 375.016C1507.15 378.799 1505.53 381.771 1502.56 384.203C1491.48 393.391 1480.4 402.578 1469.32 411.766C1468.51 412.577 1467.16 413.117 1466.89 414.468C1467.7 415.819 1468.51 415.009 1469.32 414.738C1490.67 406.902 1512.02 399.065 1533.36 391.229C1537.15 389.878 1539.31 387.716 1540.12 383.663C1548.77 348.264 1557.68 312.594 1566.33 277.195C1566.6 276.114 1567.14 275.033 1566.6 273.682C1565.25 272.601 1563.9 273.412 1562.55 273.953C1517.42 287.734 1472.02 301.785 1426.9 315.567C1422.57 316.918 1420.14 319.35 1418.25 323.403C1398.25 368.53 1377.99 413.387 1357.99 458.514C1343.4 490.941 1328.81 523.368 1314.48 555.794C1313.67 557.416 1312.59 559.037 1313.13 560.929C1314.75 562.01 1316.38 560.658 1317.73 560.118C1325.29 557.416 1333.13 554.713 1340.7 552.281C1342.05 551.741 1343.4 550.93 1344.75 552.011C1346.1 553.362 1345.02 554.713 1344.48 556.065C1337.45 573.089 1330.43 590.383 1322.86 607.137C1319.08 615.514 1312.59 622.539 1306.65 631.186C1306.38 627.944 1307.73 626.593 1308.81 624.971C1310.97 621.188 1313.13 617.135 1313.13 612.541C1313.13 604.434 1308.54 598.49 1300.97 596.328C1299.08 595.787 1296.92 595.247 1295.03 595.247C1283.41 595.247 1271.79 594.706 1260.44 595.787C1253.68 596.328 1246.93 596.328 1240.44 596.328C1235.58 596.328 1234.77 595.247 1235.58 590.383C1237.47 581.466 1239.36 572.548 1241.25 563.631C1247.2 536.068 1253.41 508.506 1259.36 480.943C1260.44 475.268 1262.87 470.945 1268.01 467.972C1273.95 464.189 1279.63 459.866 1285.57 455.812C1288.27 453.65 1290.97 453.38 1293.95 455.272C1297.46 457.434 1301.24 459.595 1305.03 461.487C1308.27 463.108 1309.62 465.54 1308.81 469.323C1307.73 475.809 1307.19 482.024 1306.38 488.509C1308 489.049 1308.54 487.969 1309.08 487.158C1315.56 478.511 1321.78 469.864 1328 460.946C1330.97 456.893 1330.97 456.893 1327.72 453.38C1318.81 443.652 1309.89 433.924 1300.97 424.196C1296.38 419.332 1296.38 419.332 1290.7 422.305C1285.3 425.277 1279.63 428.52 1274.22 431.222C1271.79 432.573 1270.71 431.762 1271.25 429.06C1272.06 424.196 1273.14 419.602 1274.22 414.738C1274.49 413.387 1275.03 412.036 1275.03 410.685C1275.3 408.794 1274.22 407.983 1272.33 408.523C1271.25 408.794 1270.17 409.334 1268.82 409.874C1258.82 414.198 1249.09 418.521 1239.09 422.575C1236.12 423.926 1234.5 425.817 1233.69 429.33C1226.39 467.702 1219.1 506.344 1212.61 544.986C1212.34 546.066 1212.34 546.877 1212.07 547.958C1211.26 555.254 1211.53 555.794 1218.28 559.307C1220.99 560.658 1222.61 562.82 1223.15 565.793C1223.42 567.684 1223.96 569.846 1223.96 571.738C1224.23 578.763 1223.96 585.519 1225.31 592.274C1225.85 595.787 1224.77 598.49 1221.26 600.111C1215.85 602.273 1212.34 606.866 1209.1 611.73C1199.37 626.593 1189.37 641.185 1179.91 656.047C1176.67 661.181 1172.35 663.613 1166.4 663.343C1158.84 663.073 1151.54 661.451 1144.78 657.668C1140.19 654.966 1139.92 653.615 1142.62 648.751C1147.22 640.374 1154.51 634.159 1162.89 630.106C1166.94 627.944 1171.81 627.944 1176.4 627.673C1178.83 627.673 1180.45 629.025 1182.35 630.106C1187.21 633.348 1190.72 632.808 1194.51 628.484C1196.67 626.052 1198.29 623.08 1199.91 620.378C1203.15 615.514 1206.4 610.379 1209.37 605.515C1212.88 599.3 1211.26 596.058 1204.5 596.058C1196.94 596.058 1189.37 595.247 1182.08 597.138C1178.29 597.949 1177.75 597.409 1178.29 593.626C1178.83 590.653 1179.64 587.681 1180.72 584.978C1184.78 576.061 1188.29 567.144 1192.34 558.226C1193.97 554.443 1194.78 550.39 1195.59 546.607C1202.61 510.127 1209.37 473.647 1216.12 437.167C1216.39 435.545 1217.2 433.654 1216.12 431.762C1214.23 431.222 1212.61 432.303 1210.99 433.113C1200.45 437.707 1189.91 442.571 1179.1 447.165C1175.32 448.786 1173.7 450.948 1173.7 455.001C1173.7 472.836 1172.62 490.671 1172.35 508.506C1171.81 527.151 1171.81 545.796 1171 564.441C1170.73 573.089 1170.46 582.006 1170.19 590.653C1169.92 595.787 1169.37 596.328 1164.51 596.328C1161.54 596.328 1158.3 596.598 1155.32 596.328C1151.27 596.058 1150.19 595.247 1150.73 590.923C1151 586.059 1151.54 581.195 1151.81 576.331C1153.16 558.226 1154.78 539.851 1156.13 521.746C1156.94 511.208 1157.76 500.669 1158.84 490.13C1159.11 486.617 1158.03 483.915 1155.32 481.753C1148.3 476.349 1141.27 470.674 1134.52 465C1131.81 462.568 1129.11 462.027 1125.6 463.378C1109.39 469.594 1092.9 475.809 1076.69 481.753C1073.99 482.834 1072.09 484.185 1072.09 487.428C1071.82 500.129 1073.99 512.829 1072.91 525.53C1073.45 525.53 1073.72 525.53 1074.26 525.8C1075.07 523.908 1075.88 521.746 1076.69 519.855C1077.5 517.693 1078.31 515.802 1079.12 513.64C1081.55 508.235 1085.07 504.452 1091.55 503.371C1100.2 501.48 1108.85 498.778 1117.49 496.346C1124.25 494.454 1127.76 496.616 1129.65 503.371C1130.73 507.425 1130.46 511.748 1130.46 516.072C1130.46 518.774 1128.84 519.585 1126.41 519.314C1121.28 518.774 1116.41 518.504 1111.28 517.693C1107.49 517.153 1104.79 517.963 1101.82 520.666C1092.9 529.583 1083.98 538.5 1075.07 547.418C1072.36 550.12 1071.82 552.552 1073.18 556.065C1076.15 563.631 1078.58 571.467 1081.28 579.033C1081.82 580.385 1082.36 581.736 1082.63 583.087C1083.71 587.14 1083.17 587.951 1079.12 587.951C1074.8 587.951 1070.47 587.951 1066.42 587.951C1061.29 587.951 1056.15 587.951 1051.29 587.951C1047.5 587.951 1047.5 587.681 1047.77 584.168C1048.59 577.412 1049.13 570.927 1049.67 564.171C1050.75 544.445 1052.64 524.989 1054.26 505.263C1055.07 497.697 1055.61 489.86 1055.88 482.294C1056.15 477.97 1057.77 475.268 1061.83 473.377C1082.63 464.189 1103.44 454.731 1124.25 445.544C1126.14 444.733 1128.03 444.193 1130.19 443.922C1134.79 442.841 1135.06 442.842 1135.33 437.978C1135.6 432.033 1135.87 425.817 1136.14 419.873C1136.95 406.361 1137.22 392.58 1138.03 379.069C1138.3 374.475 1136.41 372.043 1132.35 370.152C1113.71 361.775 1095.06 353.398 1076.15 345.021C1075.34 344.751 1074.53 344.481 1073.99 343.94C1068.58 341.508 1068.31 340.698 1068.85 335.023C1069.12 333.402 1069.39 331.78 1069.39 330.159C1069.39 323.674 1068.58 322.863 1062.37 324.484C1057.77 325.565 1052.91 326.916 1048.32 328.267C1037.24 331.51 1026.16 334.482 1014.81 337.725C1008.86 339.346 1008.86 339.617 1009.13 345.832C1009.4 354.209 1009.67 362.586 1010.48 370.692C1011.57 379.339 1011.57 387.986 1012.11 396.904C1013.46 415.549 1014 434.194 1015.08 452.84C1015.89 469.323 1017.24 486.077 1018.32 502.561C1018.86 510.397 1019.13 518.233 1019.67 526.34C1020.48 545.796 1021.83 565.252 1022.91 584.708C1022.91 586.6 1023.18 588.491 1021.83 589.842C1016.97 594.166 1014 600.111 1009.94 605.245C1009.67 605.515 1009.13 605.515 1008.86 605.786C1008.05 605.515 1007.51 604.705 1007.51 603.894C1006.7 588.762 1005.89 573.629 1004.81 558.226C1003.73 540.122 1002.65 521.746 1001.57 503.641C1001.3 499.318 1001.3 494.724 1001.03 490.13C1000.76 483.645 1000.49 483.105 994.001 481.213C979.409 476.89 964.817 472.566 949.954 468.783C944.82 467.432 942.929 464.73 942.388 459.866C941.577 451.218 940.226 442.571 939.145 433.924C939.145 432.843 938.875 432.033 938.875 430.952C938.605 426.358 939.686 425.547 944.009 426.088C952.657 427.169 961.304 429.06 969.951 429.601C979.409 429.871 985.624 433.924 989.947 441.761C991.028 443.922 992.92 445.544 995.622 448.516C995.622 443.382 996.162 439.599 995.622 435.816C994.541 425.547 994.811 415.009 994.541 404.74C994.271 398.525 994.001 397.985 987.785 396.633C958.872 390.418 929.958 383.393 901.314 376.367C900.233 376.097 899.423 375.826 898.342 375.556C895.91 375.016 894.829 376.097 895.369 378.529C896.18 382.312 896.991 386.095 897.801 389.878C903.746 420.683 909.961 451.759 915.906 482.564C916.177 483.915 916.717 485.266 916.717 486.618C916.987 490.13 918.879 491.752 922.392 492.833C936.713 496.886 950.765 501.21 965.087 505.533C965.897 505.803 966.708 506.073 967.519 506.073C974.004 507.965 974.274 508.506 974.545 514.991C975.085 523.908 975.625 532.826 976.166 541.743C976.436 546.877 975.896 547.147 971.302 545.526C958.601 540.932 946.441 535.528 934.822 529.042C929.688 526.07 924.553 523.638 919.419 520.936C918.068 522.827 919.149 524.178 919.689 525.259C924.013 535.257 928.337 544.985 932.66 554.713C934.011 557.956 936.173 560.388 939.145 562.55C947.252 568.225 955.359 574.17 963.465 579.844C966.168 581.736 968.87 583.357 971.032 586.059C969.14 587.951 966.708 587.41 964.546 587.41C949.144 587.41 933.741 587.681 918.338 587.14C910.772 586.87 905.368 589.572 901.855 596.058C900.233 599.03 897.801 601.732 896.45 604.705C894.289 609.028 895.64 611.73 900.233 612.811C902.936 613.622 905.908 613.622 908.61 613.622C920.23 613.622 931.849 613.622 943.199 613.622C945.09 613.622 947.252 613.081 949.414 614.433C948.873 617.405 946.712 618.756 944.28 619.297C943.469 619.567 942.658 619.567 941.848 619.567C930.228 619.026 918.879 621.188 907.259 620.918C895.91 620.648 886.452 625.241 878.075 632.537C873.481 636.591 869.158 641.455 865.375 646.589C864.294 648.21 863.213 650.102 861.051 651.453C860.511 649.561 861.592 648.21 862.132 646.859C872.671 629.835 882.669 612.271 896.721 597.679C898.072 596.328 899.153 594.436 900.504 592.815C901.044 592.004 901.855 590.923 901.585 590.113C899.153 585.519 902.665 583.357 905.097 580.925C909.691 575.791 914.555 570.927 919.149 565.793C921.041 563.901 921.581 561.739 920.5 559.307C916.447 548.228 912.393 537.149 908.34 526.07C908.34 525.8 907.8 525.529 907.259 525.259C904.557 530.934 902.936 536.609 901.855 542.553C900.233 550.93 895.64 556.605 888.614 560.929C881.588 565.252 875.103 570.386 868.347 575.25C864.294 578.223 863.753 578.223 861.321 573.899C857.268 566.603 853.215 559.307 849.432 552.011C847 547.688 847.27 547.147 851.593 544.175C866.185 534.717 880.777 525.259 895.369 515.531C908.34 506.884 906.719 510.397 902.125 496.616C898.612 485.537 894.829 474.728 891.046 463.649C889.154 457.704 888.884 457.704 882.939 457.433C873.481 457.433 863.753 457.433 854.296 457.433C850.513 457.433 847.81 458.514 845.108 461.487C832.678 474.998 819.977 488.779 807.547 502.29C802.953 507.154 798.36 512.018 793.766 516.882C789.442 521.476 789.713 522.287 793.496 527.151C807.007 544.986 820.518 562.82 834.029 580.385C835.11 582.006 837.542 583.357 836.191 585.519C835.11 587.41 832.408 586.6 830.516 586.6C819.167 586.6 807.817 586.33 796.468 586.33C780.255 586.6 767.284 593.626 757.016 605.786C754.854 608.218 753.503 611.19 750.801 613.081C748.639 611.73 749.72 610.109 749.72 608.758C750.53 594.166 743.775 586.6 729.183 586.33C726.21 586.33 723.508 586.33 720.536 586.33C717.833 586.059 717.293 584.978 718.644 582.817C720.806 580.114 722.968 577.412 725.129 574.71C753.233 540.932 781.065 507.425 809.169 473.647C818.626 462.297 828.354 450.948 837.812 439.599C838.082 439.058 838.623 438.788 838.893 438.248C843.217 432.843 843.217 432.843 837.812 429.06C795.928 399.065 754.043 368.801 712.159 338.806C679.732 315.567 647.306 292.057 614.879 268.548C614.609 268.278 614.068 268.278 613.798 268.008C612.177 268.818 612.987 270.169 613.258 271.25C622.445 320.431 631.903 369.882 641.09 419.062C646.495 447.706 651.899 476.079 657.033 504.722C658.114 510.397 660.006 514.721 665.41 517.153C673.247 520.665 676.76 526.881 677.841 535.528C679.732 550.12 682.705 564.442 685.407 578.763C685.677 579.844 685.947 580.655 685.947 581.736C686.217 585.249 685.407 586.059 681.894 586.33C677.3 586.6 672.977 586.6 668.383 586.33C662.168 585.789 656.763 587.14 652.71 592.274C650.818 594.706 648.386 594.977 645.684 593.626C643.252 592.274 640.82 591.464 638.118 591.734C636.226 592.004 635.146 590.653 633.794 589.842C630.282 587.41 626.498 586.6 622.175 586.6C599.206 586.6 576.237 586.6 553.268 586.6C549.485 586.6 545.972 587.41 543 589.572C541.108 590.923 539.217 591.734 536.785 590.923C533.812 590.113 531.65 588.491 531.65 585.249C531.38 581.195 530.299 577.682 528.138 574.44C523.814 566.874 517.329 562.55 508.681 561.199C503.817 560.388 498.953 559.848 494.089 560.118C489.225 560.118 488.145 559.307 487.604 554.713C486.253 542.553 484.902 530.123 483.821 517.693C482.47 504.452 481.119 490.941 479.768 477.7C478.146 461.217 476.255 444.733 474.363 427.979C474.093 425.547 474.634 423.656 477.066 422.305C477.606 422.034 478.146 421.764 478.687 421.494C482.74 419.873 485.983 415.549 490.036 416.63C495.441 418.251 500.305 421.494 505.169 424.466C507.33 425.818 506.79 427.979 506.249 429.871C504.898 434.194 503.818 438.788 502.466 444.193C507.871 441.49 511.113 437.707 515.167 434.735C519.49 431.492 523.544 427.709 527.867 424.466C530.299 422.575 530.84 420.953 528.678 418.521C523.003 412.306 517.599 406.091 511.924 399.876C507.871 395.553 504.088 391.229 500.034 386.635C497.602 383.933 495.17 382.852 491.387 383.933C484.902 385.554 478.417 386.635 471.661 387.986C467.338 388.797 466.797 388.527 466.257 383.933C465.986 380.15 465.716 376.367 465.446 372.313C465.176 368.26 464.635 367.99 461.122 369.341C453.826 372.043 446.801 375.016 439.505 377.718C434.37 379.609 429.236 381.771 424.372 383.933C419.778 385.825 419.778 386.095 420.859 390.689C424.102 403.389 427.345 416.36 430.587 429.06C438.153 459.055 445.99 488.779 453.556 518.774C455.448 525.8 457.339 532.825 458.961 540.121C459.771 543.094 461.122 545.256 463.825 546.607C467.878 548.769 471.931 551.471 475.714 553.903C476.795 554.714 478.146 555.524 479.227 556.335C480.578 557.956 480.038 559.578 478.146 559.848C476.795 560.118 475.444 560.118 473.823 560.118C465.716 560.118 457.609 560.118 449.503 560.118C443.288 560.118 443.018 559.848 441.937 553.903C437.613 533.096 433.289 512.289 428.966 491.211C420.859 452.299 412.753 413.387 404.646 374.475C403.295 367.99 403.295 367.72 409.78 365.018C421.13 360.154 432.479 355.29 444.098 350.426C444.909 350.155 445.99 349.615 447.341 349.074C445.45 347.183 443.288 347.453 441.396 347.183C431.128 346.102 420.859 345.291 410.591 344.481C410.321 344.481 409.78 344.481 409.24 344.481C395.729 343.4 398.431 342.589 396.269 333.401C394.918 327.457 393.837 321.512 392.756 315.567C392.216 311.784 390.324 309.892 386.541 309.352C371.409 306.65 356.276 303.407 340.873 301.786C334.658 300.975 334.658 300.975 337.09 307.19C340.333 315.026 343.306 323.133 346.278 330.97C348.98 338.266 348.44 339.076 340.603 338.266C337.901 337.995 335.469 337.455 332.767 337.185C327.633 336.914 327.092 337.725 328.713 342.319C332.497 353.398 336.55 364.477 340.333 375.556C341.684 379.61 343.035 383.663 344.657 387.716C346.278 391.499 346.548 391.77 350.601 390.418C353.574 389.338 356.546 387.986 359.519 386.635C364.383 384.744 364.653 385.014 366.545 389.878C371.679 405.01 377.083 420.143 382.218 435.275C394.107 470.134 405.997 505.263 417.887 540.121C419.238 543.905 421.4 546.877 424.913 549.039C427.885 550.93 430.587 552.822 433.56 554.713C434.911 555.524 436.262 556.875 435.721 558.767C435.181 560.388 433.289 560.118 431.938 560.118C422.481 560.118 412.753 560.118 403.295 559.848C400.322 559.848 397.35 559.848 394.378 560.929C390.324 562.01 390.054 562.009 388.703 557.686C385.46 548.228 382.488 538.77 379.515 529.313C358.708 464.459 338.171 399.336 317.364 334.482C312.23 317.999 306.825 301.515 301.961 285.032C300.881 281.249 298.719 279.357 294.936 278.546C276.831 275.034 258.726 271.521 240.621 268.008C236.027 267.197 235.487 268.008 237.378 272.331C244.134 288.815 251.16 305.298 258.185 321.782C274.939 361.505 291.423 401.227 308.177 440.68C321.417 472.566 334.929 504.182 348.17 536.068C350.061 540.392 352.493 542.553 357.087 542.553C359.789 542.553 362.221 543.634 364.923 543.364C370.868 543.364 375.192 545.796 378.705 550.66C380.866 553.903 383.569 557.145 386.271 560.118C387.892 562.28 388.162 563.901 386.271 566.063C381.947 570.657 378.705 576.061 375.192 581.195C374.111 582.817 373.03 584.708 371.679 586.33C368.436 590.383 367.085 590.923 362.221 588.761C358.978 587.41 355.466 585.789 352.223 584.438C337.901 577.953 322.769 575.521 307.366 573.899C291.963 572.278 276.831 570.386 261.428 568.495C251.7 567.414 241.972 566.063 232.514 564.171C214.139 560.388 199.817 550.93 188.738 535.528C166.85 504.722 145.503 473.647 124.155 442.571C106.591 416.9 88.7562 391.499 71.1917 366.098C50.1144 335.834 29.037 305.298 8.22994 275.033C2.55527 266.657 -0.687395 257.739 0.123272 247.471C0.933939 239.094 2.55527 230.717 4.17661 222.34C4.98727 218.017 9.85128 215.044 14.4451 215.314C17.9579 215.585 21.7411 216.125 25.2539 216.936C52.8166 223.691 80.6495 230.177 107.942 237.743C110.374 238.283 112.806 238.824 114.968 239.364C120.642 240.715 126.047 243.147 130.641 247.201C137.396 253.416 144.962 252.875 150.637 245.85C155.231 240.175 160.365 238.553 167.121 239.905C180.091 242.337 193.062 245.039 205.762 248.281C211.167 249.633 216.031 252.065 219.814 256.388C223.327 260.712 227.65 262.063 232.785 260.441C236.027 259.631 239.54 259.631 243.053 260.441C258.726 263.684 274.399 266.927 290.342 269.629C300.34 271.521 307.636 275.574 311.419 285.572C313.311 290.436 317.634 293.409 321.958 296.111C324.39 297.732 327.092 297.732 329.524 296.381C334.658 293.409 340.603 293.138 346.008 293.949C359.789 295.841 373.841 297.732 387.352 300.975C391.135 301.785 394.378 303.677 397.08 306.65C398.701 308.541 400.322 310.433 400.863 312.865C402.214 317.999 405.186 322.322 408.699 326.646C413.023 331.78 418.157 335.563 424.913 336.644C430.317 337.455 435.721 338.536 441.126 339.076C443.017 339.346 445.179 339.887 447.071 340.157C451.124 341.238 453.826 343.67 454.907 347.723C455.448 350.155 456.258 352.317 457.609 354.479C459.231 356.911 461.122 359.073 464.095 359.343C468.689 359.883 471.661 362.856 474.363 366.369C478.687 372.314 484.362 375.826 491.928 375.286C498.413 375.016 503.817 377.177 508.411 381.771C513.005 386.365 518.68 389.067 524.084 392.04C533.542 396.904 542.459 402.308 551.647 407.713C562.185 413.928 573.805 416.63 585.695 419.062C591.91 420.143 596.504 418.522 599.746 412.306C604.34 403.389 606.772 393.931 607.583 383.663C608.123 373.124 606.502 363.126 604.61 352.858C602.449 340.968 600.287 328.808 598.395 316.918C596.774 306.92 597.855 297.192 602.449 288.004C604.07 285.032 604.881 282.059 605.151 278.817C605.421 276.385 605.962 273.953 606.502 271.521C608.394 264.495 613.528 261.793 620.553 264.495C624.607 266.116 628.39 268.818 632.173 271.25C654.872 286.113 676.219 303.407 699.729 316.918C710.808 323.133 721.617 329.618 731.345 337.455C736.209 341.238 740.532 345.291 745.126 349.345C748.909 352.587 749.72 352.858 753.503 349.885C760.258 344.21 766.744 338.536 772.959 332.591C785.929 319.89 799.17 307.73 812.141 295.03C829.976 277.466 847.54 259.901 864.834 241.796C883.75 222.07 901.855 202.074 919.149 180.996C931.579 165.864 943.469 149.921 954.278 133.707C956.169 130.735 957.791 127.762 959.682 125.06C960.763 123.439 961.574 121.277 963.736 121.007C965.357 122.088 964.276 123.169 964.006 124.25C956.44 142.084 949.414 159.919 945.09 178.834C939.956 199.912 936.173 220.989 941.037 242.607C945.631 262.873 958.872 274.493 978.057 278.276C1003.73 283.41 1028.59 279.357 1053.18 272.061C1079.12 264.225 1102.9 251.794 1125.6 237.473C1151.81 220.989 1176.13 202.073 1199.37 181.807C1224.77 159.919 1248.82 136.68 1272.06 112.36C1290.97 92.3633 1309.35 72.3669 1327.72 51.83C1342.32 35.6167 1356.37 19.1331 1370.69 2.91977C1371.23 2.37933 1371.77 1.56863 1372.31 1.02819C1373.12 0.217519 1373.93 -0.322893 1375.01 0.217552C1376.09 0.757996 1376.36 1.83887 1376.36 2.64954C1376.36 3.73042 1376.09 5.0815 1375.55 6.16239C1369.61 24.8077 1363.93 43.7233 1357.99 62.3687C1347.18 96.1464 1334.75 129.114 1322.05 162.081C1315.02 180.186 1306.11 197.75 1298.27 215.585C1289.35 235.851 1279.36 255.578 1268.55 274.763C1257.2 295.3 1245.31 315.297 1232.34 334.482C1220.45 352.047 1208.29 369.071 1194.78 385.284C1189.1 392.04 1182.89 398.795 1177.21 405.281C1176.67 406.091 1175.86 406.632 1175.32 407.713C1174.24 409.334 1171.54 410.685 1173.43 412.847C1175.05 414.738 1177.21 413.117 1179.1 412.847C1180.99 412.306 1182.89 411.225 1184.51 410.145C1192.88 403.929 1201.8 397.985 1209.1 390.148C1211.26 387.986 1213.69 386.095 1216.39 385.014C1223.15 382.312 1229.09 385.014 1230.17 392.31C1230.99 397.444 1233.96 399.606 1238.28 400.957C1247.47 404.2 1256.39 405.281 1265.57 401.227C1268.55 399.876 1271.79 399.876 1275.03 399.876C1278.54 399.876 1281.52 400.957 1283.41 403.93C1285.57 406.902 1288.27 408.253 1291.52 408.523C1299.35 409.334 1306.11 412.847 1312.59 417.17C1317.46 420.413 1322.59 423.386 1328 426.088C1335.29 429.33 1340.16 428.52 1345.56 423.115C1347.45 421.224 1349.34 419.332 1350.96 417.17C1361.5 401.497 1373.12 386.635 1382.31 370.152C1389.34 357.992 1395.01 345.291 1402.58 333.401C1405.55 328.537 1408.52 323.674 1411.22 318.81C1414.47 313.135 1419.33 309.352 1425.55 307.19C1444.19 301.245 1462.57 295.3 1481.21 289.085C1486.35 287.464 1491.75 285.572 1496.88 284.221C1516.61 278.276 1536.34 272.602 1556.06 267.467C1557.95 266.927 1559.58 266.657 1561.47 266.386C1568.76 265.306 1574.17 268.818 1574.71 276.114C1575.52 282.87 1577.14 288.815 1580.11 294.76C1581.19 297.192 1582 300.164 1582.27 302.866C1582.54 310.433 1584.17 317.729 1583.9 325.295C1583.9 326.376 1583.9 327.457 1583.9 328.267C1584.98 343.4 1598.49 351.506 1612.27 347.183C1613.89 346.642 1615.78 345.832 1617.4 345.291C1623.62 343.129 1628.21 344.481 1631.73 349.885C1633.89 353.128 1636.59 355.019 1640.1 356.641C1645.78 359.613 1651.45 362.856 1657.13 366.369C1661.99 369.341 1667.39 371.233 1673.34 370.962C1678.47 370.692 1683.88 370.962 1689.28 370.962C1697.39 370.962 1703.87 367.45 1709.28 362.315C1719.55 352.317 1728.46 341.508 1735.76 329.078C1741.17 319.89 1748.19 311.513 1753.6 302.056C1755.49 298.813 1757.38 295.841 1759.27 292.598C1762.24 287.464 1767.38 284.491 1772.78 283.14C1794.4 278.006 1815.75 272.872 1837.63 268.818C1846.55 267.197 1850.33 269.899 1852.5 278.817C1853.58 282.87 1855.2 286.653 1857.36 290.436C1862.77 300.434 1864.12 311.243 1862.49 322.322C1861.68 327.186 1860.6 331.78 1859.79 336.644C1858.17 346.102 1861.68 352.858 1870.06 356.641C1872.22 357.722 1874.38 357.721 1876.55 357.721C1886 357.451 1890.33 360.964 1892.22 370.152C1892.76 372.584 1893.03 375.016 1894.11 377.178C1900.6 388.527 1901.41 400.687 1897.08 413.117C1891.95 427.709 1885.73 441.761 1876.01 454.191C1867.09 465.81 1859.52 478.241 1852.77 491.211C1845.47 505.533 1837.9 519.585 1830.34 533.906C1818.45 555.794 1799.53 566.333 1775.48 571.197C1753.6 575.521 1731.44 577.953 1709.82 583.627C1703.33 585.249 1697.12 587.681 1690.9 590.653C1685.5 593.355 1680.09 596.057 1674.42 598.219C1669.56 600.111 1669.56 600.651 1670.91 605.515C1671.18 607.947 1671.72 609.028 1672.53 611.19ZM9.85129 223.421C10.3917 224.502 10.662 225.042 11.2024 225.853C32.8202 256.929 54.438 288.274 76.0557 319.35C110.374 368.801 144.692 418.251 179.01 467.972C191.17 485.266 203.06 502.561 215.22 519.855C216.841 522.287 218.463 524.178 221.705 524.449C228.731 524.989 235.757 526.07 242.783 526.61C265.481 529.042 287.91 531.474 310.609 533.636C315.743 534.177 320.607 534.717 325.741 534.987C328.984 535.258 329.524 534.177 328.443 531.474C327.903 530.123 327.362 528.772 326.822 527.421C320.337 512.018 313.581 496.886 307.096 481.483C287.91 436.626 268.454 391.499 249.268 346.642C237.378 319.35 225.759 291.787 214.139 264.495C212.518 260.441 210.086 258.55 205.762 257.739C194.953 255.577 183.874 252.875 173.065 250.713C168.201 249.633 163.337 248.552 157.393 247.201C202.52 332.861 246.836 417.441 291.693 502.561C288.991 503.642 287.369 503.101 285.478 502.831C271.967 500.669 258.185 498.237 244.674 496.346C239.81 495.535 237.108 493.373 235.217 489.05C220.625 457.704 205.762 426.628 190.9 395.553C168.742 349.074 146.584 302.866 124.696 256.388C122.534 252.065 119.832 249.903 115.238 248.822C81.4602 240.445 47.9526 232.068 14.1748 223.691C13.3642 223.421 12.0131 222.61 9.85129 223.421ZM1650.64 570.927C1652.53 570.116 1652.8 570.116 1653.07 569.846C1653.88 569.305 1654.69 568.495 1655.23 567.684C1663.88 559.037 1672.8 551.471 1685.23 549.309C1688.74 548.769 1691.17 546.337 1693.07 543.094C1702.25 526.61 1711.71 510.397 1721.17 493.913C1743.33 455.272 1765.21 416.63 1787.37 378.258C1805.75 346.102 1824.12 314.216 1842.5 282.059C1843.31 280.708 1843.85 279.627 1844.39 278.276C1844.93 277.195 1844.12 276.385 1843.04 276.385C1841.96 276.385 1841.15 276.655 1840.07 276.925C1817.64 281.789 1795.21 286.923 1772.78 291.787C1769 292.598 1766.84 294.489 1765.21 298.002C1749.81 334.482 1734.41 370.962 1719.28 407.442C1697.93 457.974 1676.85 508.505 1655.5 559.037C1654.15 562.82 1652.53 566.333 1650.64 570.927ZM881.858 332.321C870.239 332.05 858.079 334.753 846.189 337.725C822.139 343.94 799.17 353.128 777.012 363.937C768.905 367.72 768.905 369.341 776.201 374.746C797.009 390.418 818.086 406.091 839.433 420.953C844.297 424.466 849.161 427.979 852.674 433.384C854.836 436.626 857.809 438.518 861.592 439.599C867.266 441.22 872.13 438.788 874.562 433.384C875.643 430.952 875.913 428.25 876.184 425.547C877.265 414.738 878.886 404.2 884.02 394.472C885.912 390.689 887.263 386.635 888.073 382.582C888.344 380.69 888.884 378.529 889.425 376.637C891.316 372.313 894.289 369.611 899.153 369.881C901.585 369.881 904.017 370.152 906.449 370.422C912.123 371.503 918.068 372.854 923.743 373.935C931.849 375.826 932.39 375.286 931.039 367.45C931.039 366.639 930.769 365.828 930.769 365.018C928.066 350.966 920.5 340.968 906.989 335.833C899.153 333.131 891.046 332.05 881.858 332.321ZM1733.33 496.346C1726.84 504.182 1707.93 536.609 1707.12 540.662C1708.2 541.473 1709.55 540.932 1710.63 540.932C1737.11 536.609 1763.59 532.555 1789.81 528.232C1802.78 526.07 1799.8 528.232 1805.75 516.882C1818.45 493.103 1830.34 468.783 1842.77 444.733C1843.31 443.652 1844.39 442.842 1843.31 440.68C1838.17 440.41 1832.77 440.41 1827.37 440.95C1816.56 442.301 1805.48 440.95 1794.67 442.571C1791.16 443.112 1790.35 441.22 1792.24 437.978C1797.91 428.79 1803.86 419.873 1809.53 410.685C1810.88 408.523 1812.5 407.442 1814.94 407.442C1825.2 406.902 1835.47 406.361 1846.01 406.091C1850.61 405.821 1851.15 406.362 1852.23 410.955C1852.77 412.847 1852.77 414.468 1853.31 416.36C1854.39 420.413 1854.12 424.737 1856.28 429.871C1865.74 408.523 1874.65 387.986 1883.57 367.72C1881.68 366.639 1880.6 367.179 1879.25 367.45C1853.85 373.394 1828.45 379.609 1802.78 385.825C1799.8 386.635 1797.91 388.257 1796.29 390.959C1791.16 399.606 1785.75 408.253 1780.62 417.17C1771.43 432.573 1762.24 447.705 1753.05 463.108C1752.24 464.459 1750.62 465.81 1751.43 467.432C1752.51 469.323 1754.68 468.513 1756.57 468.242C1762.51 467.702 1768.73 466.891 1774.67 466.351C1784.94 465.27 1795.21 464.459 1805.48 463.649C1809.8 463.378 1810.34 464.189 1808.45 467.972C1801.97 479.862 1795.21 491.752 1788.72 503.641C1787.37 506.344 1785.21 507.425 1782.24 507.425C1769 507.425 1755.76 507.425 1742.79 507.425C1739.27 507.425 1737.65 505.803 1736.57 502.831C1736.3 500.669 1736.03 498.237 1733.33 496.346ZM1676.31 469.053C1677.39 468.513 1677.66 468.513 1677.93 468.242C1683.61 458.244 1689.28 447.976 1694.96 437.978C1696.04 435.816 1696.31 433.654 1695.77 431.492C1694.69 426.088 1693.34 420.953 1692.25 415.549C1691.71 412.306 1689.82 411.766 1687.12 412.306C1681.45 413.658 1675.5 414.738 1669.83 415.819C1668.48 416.089 1667.12 416.63 1665.5 415.009C1669.02 405.821 1675.5 397.444 1679.28 388.257C1677.66 387.176 1676.58 387.716 1675.77 387.716C1663.07 390.689 1650.64 393.661 1637.94 396.363C1633.89 397.174 1631.73 399.066 1630.37 403.119C1624.7 419.062 1618.75 434.735 1612.81 450.408C1596.87 493.103 1580.92 535.798 1564.98 578.763C1564.44 579.844 1563.63 581.195 1564.71 582.817C1568.76 578.223 1572.55 573.899 1576.06 569.576C1579.03 566.063 1582.27 563.09 1586.33 561.469C1591.46 559.307 1596.33 556.875 1601.19 554.713C1603.62 553.633 1605.24 552.011 1606.32 549.579C1608.76 543.905 1611.46 538.23 1614.16 532.555C1626.86 505.263 1639.56 477.7 1652.26 450.408C1653.61 447.435 1655.77 445.544 1659.02 445.003C1664.42 443.922 1669.56 442.571 1674.96 441.22C1681.99 439.599 1682.26 440.139 1680.91 447.165C1679.28 454.461 1677.93 461.487 1676.31 469.053ZM608.123 560.929C608.394 560.118 608.664 559.848 608.393 559.307C602.449 524.989 596.504 490.671 590.559 456.082C590.018 452.569 588.127 450.948 584.884 449.597C572.454 444.733 560.024 439.869 547.593 434.735C544.351 433.384 541.919 433.924 539.217 436.086C530.029 443.652 520.841 450.948 511.654 458.244C508.952 460.406 508.411 462.297 509.222 465.54C511.654 473.647 513.816 482.024 515.978 490.13C516.248 490.941 516.518 492.292 517.869 492.292C519.49 490.671 520.031 488.239 520.841 486.077C526.516 470.945 526.516 470.674 541.108 464.189C541.649 463.919 542.189 463.649 542.729 463.378C544.081 462.838 545.432 462.568 546.783 463.108C552.187 465 557.862 466.891 563.266 469.053C565.969 470.134 566.239 472.566 565.969 475.268C565.698 477.7 563.807 478.511 561.645 478.781C557.592 479.051 553.538 479.592 549.485 480.132C546.242 480.402 543.27 481.213 541.378 484.456C534.623 495.805 527.867 507.154 520.841 518.233C518.95 521.476 519.22 523.638 521.652 526.34C528.948 534.717 536.244 543.094 543.27 551.741C545.702 554.714 548.134 555.524 551.647 554.173C559.753 551.201 568.401 549.039 576.507 546.066C585.154 543.094 591.91 545.796 598.125 551.471C601.908 554.173 604.881 557.416 608.123 560.929ZM1519.85 591.193C1522.83 587.14 1525.26 584.168 1527.15 580.925C1530.39 575.521 1534.72 571.467 1540.66 569.035C1542.28 568.495 1543.63 567.414 1544.98 566.873C1549.31 565.252 1551.47 562.009 1553.36 557.686C1574.44 507.425 1595.79 457.163 1616.86 406.902C1617.4 405.821 1617.94 404.74 1618.21 403.659C1618.75 401.768 1618.21 400.957 1616.32 401.227C1615.24 401.227 1614.43 401.498 1613.35 401.768C1599.57 405.01 1585.79 408.253 1571.74 411.226C1567.41 412.036 1565.25 414.468 1564.17 418.792C1549.85 473.647 1535.53 528.232 1521.2 583.087C1520.39 585.249 1519.58 587.41 1519.85 591.193ZM1153.7 387.986C1155.05 386.635 1154.78 385.284 1155.05 384.203C1156.67 375.016 1155.59 366.098 1154.78 356.911C1153.97 346.642 1151.27 336.914 1145.32 328.538C1139.38 320.431 1131.27 316.107 1121.55 315.567C1107.22 314.486 1093.98 319.35 1081.28 325.295C1078.58 326.646 1078.04 328.808 1078.85 331.51C1079.39 333.942 1081.01 335.563 1082.9 336.644C1086.42 338.806 1090.2 341.238 1093.98 343.13C1107.49 350.426 1121.55 357.181 1135.6 363.396C1142.89 366.639 1146.95 371.773 1148.03 379.339C1148.03 383.122 1149.92 385.554 1153.7 387.986ZM1623.62 353.398C1623.08 353.128 1622.54 352.858 1622.27 352.587C1604.43 367.179 1586.87 381.771 1568.76 396.363C1569.84 396.904 1570.11 397.444 1570.38 397.444C1585.25 394.202 1600.11 390.689 1614.97 387.446C1617.4 386.905 1618.75 385.284 1619.02 382.852C1619.84 377.448 1620.65 372.043 1621.46 366.639C1622 362.045 1622.81 357.721 1623.62 353.398ZM1222.07 390.959C1221.8 390.689 1221.26 390.689 1220.99 390.418C1206.67 406.091 1192.34 422.034 1178.02 437.707C1178.29 437.978 1178.56 438.248 1178.83 438.788C1190.99 432.573 1203.15 426.088 1215.31 419.873C1217.2 418.792 1218.01 417.17 1218.56 415.009C1219.64 406.902 1220.99 399.066 1222.07 390.959Z" fill="black"/>
<path d="M341.684 756.57C320.066 756.57 298.178 756.57 276.561 756.57C274.399 756.57 271.697 757.11 270.616 754.678C269.265 752.246 270.886 750.084 272.237 747.922C280.344 735.492 288.45 723.062 296.557 710.632C313.311 684.69 330.065 658.479 347.089 632.538C359.249 613.892 371.409 595.247 383.569 576.331C384.379 574.98 385.46 573.629 386.271 572.278C390.054 566.603 395.458 564.171 402.214 564.171C430.857 564.171 459.501 564.171 488.145 564.171C494.9 564.171 501.386 564.442 508.141 564.982C523.814 566.063 533.542 581.736 527.867 599.03C526.516 603.083 524.084 606.596 521.922 610.379C502.196 640.914 482.74 671.45 463.014 701.985C455.718 713.334 448.422 724.954 440.856 736.303C438.964 739.275 436.532 742.248 434.37 744.95C427.345 754.138 417.346 756.029 406.808 756.299C388.433 756.299 370.328 756.299 351.953 756.299C348.169 756.299 344.927 756.299 341.684 756.57C341.684 756.299 341.684 756.299 341.684 756.57ZM366.004 723.873C368.166 723.873 370.057 723.873 372.219 723.873C387.892 723.603 401.403 718.198 411.942 706.038C417.346 699.823 422.481 693.067 427.074 686.312C438.424 668.747 449.773 651.183 461.122 633.619C465.716 626.593 470.58 619.297 474.633 612.001C477.606 606.867 475.714 604.435 470.04 604.435C456.529 604.435 443.288 604.435 429.777 604.435C426.534 604.435 424.102 605.515 422.21 608.488C417.076 616.595 411.672 624.431 406.537 632.538C391.675 655.506 376.813 678.475 361.951 701.444C358.708 706.578 355.195 711.713 352.223 716.847C349.791 721.17 351.142 723.873 356.276 724.143C359.519 724.143 362.761 723.873 366.004 723.873Z" fill="black"/>
<path d="M898.342 592.004C896.451 596.058 893.749 598.76 891.317 601.732C880.238 614.162 871.861 628.214 862.943 641.725C844.298 670.098 825.923 698.472 807.278 726.575C796.469 742.788 781.066 752.246 761.88 755.219C756.746 756.029 751.882 756.029 746.748 756.029C720.266 756.029 694.055 756.029 667.573 756.029C665.141 756.029 662.168 757.11 660.817 754.678C659.196 751.976 661.898 749.814 663.249 747.652C668.383 739.546 674.328 731.709 678.922 723.062C682.705 716.577 687.569 714.145 694.595 714.415C714.591 714.685 734.858 714.415 754.854 714.415C757.827 714.415 760.529 714.415 763.231 714.145C771.608 713.604 777.553 709.01 781.877 701.985C782.687 700.634 783.498 699.012 782.687 697.391C781.606 695.77 779.985 696.04 778.364 696.04C758.638 696.85 738.911 696.31 719.455 696.31C711.619 696.31 708.376 690.906 712.159 684.15C716.483 676.314 721.617 669.018 726.481 661.451C735.939 646.859 745.937 632.538 755.125 617.675C761.88 606.866 770.257 598.219 782.417 593.626C786.741 592.004 790.794 590.923 795.388 590.923C810.52 590.923 825.923 590.923 841.055 590.923C844.568 590.923 847.27 591.734 849.702 594.436C852.675 597.679 853.486 597.409 856.728 594.166C858.62 592.545 860.241 590.923 862.943 590.923C874.022 590.923 885.372 590.923 896.451 590.923C896.721 591.194 897.262 591.734 898.342 592.004ZM772.689 667.937C779.985 668.207 787.281 667.396 794.307 665.505C802.143 663.343 808.629 659.29 813.763 652.534C819.438 644.968 824.302 637.131 829.436 629.295C831.598 626.052 834.03 622.539 835.651 619.026C837.272 616.054 836.191 614.433 832.949 613.892C831.868 613.622 831.057 613.622 829.976 613.622C819.438 613.622 808.899 613.622 798.36 613.622C794.307 613.622 791.605 615.243 789.443 618.756C782.958 629.025 776.202 639.023 769.446 649.291C767.014 653.074 764.582 656.587 762.15 660.371C759.178 665.235 760.529 667.667 765.934 667.937C768.366 667.937 770.527 667.937 772.689 667.937Z" fill="black"/>
<path d="M1484.99 598.76C1497.15 598.76 1509.31 598.76 1521.47 598.76C1524.99 598.76 1528.23 599.03 1531.74 600.381C1537.15 602.273 1539.31 606.056 1538.23 611.73C1537.69 615.514 1536.07 618.756 1533.9 621.729C1522.82 638.753 1512.29 656.047 1500.67 672.801C1490.4 687.393 1476.62 696.04 1457.97 695.499C1448.24 695.229 1438.52 695.499 1428.79 695.499C1425 695.499 1421.49 694.689 1418.25 693.067C1413.39 690.635 1412.57 690.906 1409.6 695.499C1403.66 704.687 1397.44 713.604 1391.5 723.062C1388.52 727.656 1384.74 729.547 1379.34 729.547C1372.58 729.547 1365.83 729.547 1359.34 729.547C1354.75 729.277 1353.94 727.656 1356.37 723.873C1364.2 711.713 1372.04 699.553 1379.88 687.663C1390.96 670.639 1402.04 653.615 1413.11 636.591C1419.87 626.322 1426.63 616.054 1433.38 605.515C1436.35 600.651 1440.68 598.76 1446.08 598.76C1459.05 598.76 1472.02 598.76 1484.99 598.76ZM1438.25 671.72C1452.3 670.098 1465.27 665.234 1473.91 651.453C1478.51 644.157 1483.1 637.131 1487.7 629.835C1488.78 628.214 1489.86 626.322 1490.67 624.701C1492.29 621.188 1491.48 619.297 1487.43 618.756C1486.89 618.756 1486.35 618.756 1485.53 618.756C1479.05 618.756 1472.56 618.756 1466.08 618.756C1461.21 618.756 1457.97 620.918 1455.54 624.701C1447.43 637.131 1439.33 649.562 1431.49 661.992C1429.87 664.424 1426.63 666.585 1428.79 670.098C1430.68 673.071 1434.19 671.449 1438.25 671.72Z" fill="black"/>
<path d="M925.364 611.19C917.798 611.19 910.232 611.19 902.936 611.19C898.342 611.19 897.531 609.568 899.693 605.515C901.315 602.543 903.206 600.111 904.827 597.138C907.259 592.544 911.043 590.653 916.177 590.923C932.12 591.193 948.333 590.923 964.276 590.923C971.302 590.923 978.598 590.923 985.624 590.923C994.271 591.193 998.594 596.598 996.703 604.975C995.622 609.298 994.001 613.352 991.569 617.405C984.543 629.835 976.436 641.725 968.6 653.885C961.574 664.694 954.278 675.503 947.793 686.582C943.739 693.337 938.875 696.85 931.039 696.04C925.094 695.499 919.419 696.04 913.475 696.04C910.502 696.04 907.8 696.04 905.638 693.878C904.017 692.257 902.395 692.797 900.504 693.608C895.64 695.77 890.776 696.04 885.642 696.04C879.427 696.04 873.482 696.04 867.267 696.04C864.024 696.04 860.781 695.769 857.809 694.689C850.513 691.986 847.27 685.501 850.783 678.205C855.377 669.017 860.781 660.641 866.726 652.264C871.59 645.508 876.184 638.482 882.939 633.618C889.965 628.214 897.261 624.701 906.449 624.971C916.177 625.241 925.905 624.971 935.633 624.971C938.605 624.971 941.578 624.431 944.55 624.16C948.603 623.62 951.035 620.918 952.927 617.675C955.089 614.162 953.467 611.19 949.414 611.19C941.307 611.19 933.471 611.46 925.364 611.19ZM922.392 639.293C919.419 639.293 916.177 639.293 913.204 639.293C909.151 639.023 906.179 640.644 904.017 644.157C901.585 647.67 899.153 651.183 896.991 654.696C894.019 659.56 890.235 663.883 888.074 669.017C886.452 672.8 887.533 674.962 891.587 675.233C895.91 675.503 900.234 675.503 904.287 674.962C910.502 674.152 916.447 672.26 921.041 667.396C927.256 660.641 931.85 652.804 936.714 644.968C938.605 641.725 937.254 639.833 933.201 639.563C929.688 639.023 926.175 639.293 922.392 639.293Z" fill="black"/>
<path d="M588.937 591.193C600.557 591.193 612.176 591.193 623.526 591.193C632.713 591.193 636.767 596.598 635.145 605.245C634.335 609.028 633.254 612.271 631.362 615.513C627.309 622.539 622.985 629.565 618.662 636.321C607.583 653.615 596.233 670.909 585.154 688.473C581.641 693.878 577.318 696.85 570.562 696.58C564.617 696.31 558.672 696.58 552.998 696.58C549.755 696.58 546.512 696.85 543.81 694.148C542.189 692.797 540.297 693.337 538.676 694.148C533.812 696.31 528.407 696.85 523.273 696.58C515.166 696.31 507.06 697.391 498.953 695.769C496.521 695.229 494.359 694.689 492.198 693.067C487.874 689.825 486.523 685.231 488.414 680.097C490.576 674.422 493.819 669.288 497.062 664.153C502.466 655.776 507.87 647.4 514.626 640.104C518.679 635.51 523.543 631.727 528.948 629.024C533.542 626.592 538.406 625.241 543.54 625.512C553.268 625.512 562.996 625.512 572.724 625.512C575.966 625.512 579.209 624.971 582.452 624.701C587.586 624.161 590.018 621.188 591.91 617.135C593.531 614.162 592.18 612 588.667 611.73C587.046 611.46 585.424 611.73 583.803 611.73C571.103 611.73 558.672 611.73 545.972 611.73C544.621 611.73 542.999 611.73 541.648 611.73C536.784 611.46 535.703 609.839 538.135 605.515C540.027 602.273 542.189 599.03 544.35 595.787C546.512 592.815 549.485 591.464 553.268 591.464C565.428 591.193 577.318 591.193 588.937 591.193ZM561.374 639.293C558.402 639.293 555.159 639.293 552.187 639.293C547.593 639.023 544.35 640.914 542.189 644.697C539.216 649.561 535.974 654.155 533.001 659.019C530.839 662.532 528.407 665.775 526.516 669.288C524.624 673.071 525.705 674.962 530.029 675.233C533.812 675.503 537.865 675.503 541.648 674.962C548.134 674.152 554.349 672.53 559.213 667.937C566.509 661.181 570.562 652.264 575.966 644.157C577.588 641.455 576.507 639.563 572.994 639.293C569.211 639.023 565.158 639.293 561.374 639.293Z" fill="black"/>
<path d="M670.545 696.58C665.14 696.58 660.006 696.58 654.602 696.58C649.197 696.31 648.387 694.689 651.089 690.365C654.872 684.15 659.195 678.205 662.979 671.99C673.517 656.047 683.786 640.104 694.054 624.161C695.405 621.999 697.837 619.837 696.486 617.135C694.865 614.163 691.352 615.243 688.65 614.973C684.596 614.703 680.543 614.973 676.49 614.973C672.707 614.703 670.275 616.324 668.383 619.297C658.385 634.97 648.116 650.643 637.848 666.315C632.443 674.422 627.309 682.529 621.905 690.635C619.473 694.419 615.96 696.58 611.366 696.58C607.043 696.58 602.719 696.58 598.666 696.58C592.451 696.31 591.91 695.229 595.153 689.825C599.747 682.259 604.611 674.692 609.475 667.126C618.392 653.075 627.579 639.293 636.767 625.242C642.712 616.324 648.386 607.137 654.331 598.219C657.304 593.355 661.357 590.923 667.572 591.194C688.109 591.464 708.646 591.194 729.183 591.194C732.155 591.194 734.858 591.194 737.56 592.275C744.315 594.977 749.99 602.273 746.747 611.46C744.315 617.675 741.343 623.08 737.56 628.484C724.319 648.751 710.808 669.018 697.567 689.555C694.324 694.419 690.541 696.851 684.596 696.58C680.003 696.31 675.409 696.58 670.545 696.58Z" fill="black"/>
<path d="M1034.26 696.58C1029.13 696.58 1023.99 696.58 1019.13 696.58C1017.24 696.58 1014.81 697.121 1013.46 695.229C1012.11 693.067 1014 691.446 1015.08 689.825C1024.27 675.773 1033.18 661.992 1042.37 648.211C1048.04 639.834 1053.45 631.187 1058.85 622.539C1062.1 617.405 1061.02 615.244 1054.8 615.244C1050.21 614.973 1045.34 615.244 1040.75 615.244C1036.97 614.973 1034.26 616.595 1032.1 619.837C1028.05 626.323 1023.72 632.808 1019.4 639.293C1008.86 655.507 998.054 671.99 987.785 688.474C983.732 694.689 978.868 698.202 971.302 697.391C968.599 697.121 965.627 697.391 962.654 697.391C960.763 697.391 958.331 698.202 957.25 695.77C955.899 693.338 957.79 691.446 959.142 689.825C960.763 687.123 962.654 684.42 964.276 681.718C975.355 664.964 986.164 648.211 997.243 631.187C1003.73 621.188 1010.21 611.19 1016.7 600.922C1020.48 594.977 1024.81 591.734 1032.37 592.004C1052.37 592.545 1072.09 592.275 1092.09 592.275C1094.79 592.275 1097.23 592.275 1099.93 593.085C1108.57 595.787 1112.63 602.813 1110.47 611.46C1109.39 615.784 1107.22 619.837 1104.79 623.62C1094.79 639.293 1084.52 654.966 1074.26 670.639C1069.93 677.395 1065.34 684.15 1061.02 690.906C1058.04 695.499 1054.26 698.202 1048.31 697.661C1043.72 696.31 1039.13 696.58 1034.26 696.58Z" fill="black"/>
<path d="M707.835 516.342C707.835 512.559 707.835 509.046 707.835 505.263C707.565 500.399 707.295 499.859 702.701 498.508C693.514 495.535 693.514 495.535 692.433 486.348C688.109 451.489 683.786 416.63 679.732 382.042C679.462 380.421 678.111 378.259 680.273 377.178C681.894 376.367 683.245 377.989 684.596 378.799C714.321 397.715 743.775 416.36 773.229 435.276C778.093 438.248 778.093 439.059 774.851 443.923C754.584 472.296 734.317 500.669 713.78 529.043C712.699 530.664 711.889 533.907 709.187 533.096C707.025 532.285 708.106 529.043 707.835 526.881C707.835 523.368 707.835 519.855 707.835 516.342Z" fill="black"/>
<path d="M1205.04 695.499C1195.05 695.499 1185.05 695.499 1175.32 695.499C1165.86 695.499 1162.89 690.365 1167.75 682.258C1172.08 674.692 1176.94 667.396 1181.81 660.1C1191.26 645.508 1201.26 631.186 1209.91 616.054C1217.2 603.624 1227.47 598.76 1240.98 598.76C1258.01 598.76 1275.03 598.76 1292.06 598.76C1293.95 598.76 1296.11 598.76 1298 599.03C1309.35 600.922 1313.94 610.92 1308 620.918C1304.49 626.593 1300.7 631.997 1296.92 637.672C1289.62 648.751 1282.87 660.37 1275.03 671.179C1267.2 681.718 1257.2 689.825 1244.23 693.878C1240.98 694.959 1238.01 695.229 1234.77 695.229C1225.04 695.499 1215.04 695.499 1205.04 695.499ZM1206.94 677.665C1219.64 677.394 1230.72 673.071 1239.09 662.262C1248.28 650.372 1256.12 637.672 1264.22 624.971C1266.93 620.648 1265.3 618.216 1260.17 617.946C1255.04 617.675 1249.9 618.216 1245.04 617.675C1237.2 616.865 1232.61 620.648 1228.82 626.863C1223.69 635.24 1218.01 643.617 1212.88 651.994C1208.83 658.209 1204.77 664.153 1200.99 670.369C1198.29 674.422 1199.91 677.394 1204.77 677.935C1205.04 677.665 1205.58 677.665 1206.94 677.665Z" fill="black"/>
<path d="M1599.3 598.76C1608.49 598.76 1617.67 598.76 1626.59 598.76C1629.02 598.76 1631.45 598.76 1633.89 599.57C1641.18 601.462 1643.34 605.515 1641.99 612.811C1640.91 618.216 1638.21 622.81 1635.51 627.133C1622 648.481 1608.49 669.558 1594.7 690.635C1592.54 693.878 1589.57 695.77 1585.52 695.77C1578.22 695.77 1570.65 696.851 1563.63 695.5C1557.41 694.148 1551.74 694.959 1545.52 695.5C1536.61 696.31 1527.69 696.04 1518.77 695.77C1507.96 695.499 1503.37 686.852 1508.77 677.665C1513.91 668.207 1519.85 659.29 1526.34 650.642C1530.66 644.698 1535.8 639.563 1542.01 635.78C1547.69 632.538 1553.63 630.916 1559.85 630.916C1570.11 630.916 1580.65 630.646 1590.92 630.916C1596.06 630.916 1599.3 628.754 1601.73 624.431C1603.35 621.458 1602.54 619.297 1599.3 618.486C1597.68 618.216 1596.06 618.216 1594.43 618.216C1583.09 618.216 1571.74 618.216 1560.39 618.216C1558.77 618.216 1557.14 618.216 1555.52 618.216C1552.01 617.946 1551.2 616.865 1552.82 613.352C1554.71 609.298 1557.41 605.786 1560.39 602.273C1562.55 599.841 1566.06 599.3 1569.3 599.3C1579.3 598.76 1589.3 598.76 1599.3 598.76ZM1550.66 676.584C1560.93 677.395 1569.03 673.882 1574.98 666.586C1579.03 661.451 1582.54 656.047 1585.79 650.642C1588.49 646.049 1586.87 643.617 1581.46 643.346C1576.33 643.346 1571.47 643.346 1566.33 643.346C1561.74 643.346 1558.49 645.238 1556.33 648.751C1552.01 655.506 1547.69 662.262 1543.36 669.288C1543.09 669.828 1542.82 670.369 1542.55 670.909C1540.93 674.422 1542.01 676.314 1545.79 676.854C1547.42 676.854 1549.58 676.584 1550.66 676.584Z" fill="black"/>
<path d="M1368.8 598.49C1377.45 598.49 1385.82 598.49 1394.47 598.49C1397.71 598.49 1400.96 599.03 1403.93 600.111C1412.85 603.354 1415.82 610.38 1412.3 619.027C1410.68 622.81 1409.06 626.323 1406.63 629.835C1393.66 649.832 1380.69 669.558 1367.72 689.284C1365.02 693.338 1361.77 695.5 1356.64 695.5C1347.18 695.229 1337.99 695.5 1328.54 695.5C1323.13 695.5 1322.32 694.148 1325.29 689.284C1331.78 679.286 1338.26 669.288 1345.02 659.29C1351.5 649.292 1357.99 639.293 1364.75 629.295C1365.29 628.214 1366.1 627.133 1366.37 626.052C1367.18 623.35 1366.1 621.459 1363.39 621.459C1357.72 621.188 1352.05 621.188 1346.37 621.459C1343.67 621.459 1342.59 623.62 1341.51 625.512C1336.64 632.808 1332.05 640.104 1327.18 647.4C1318 661.451 1308.81 675.503 1299.62 689.825C1296.92 694.148 1293.41 696.31 1288 696.04C1284.49 695.77 1280.98 696.04 1277.73 696.04C1272.06 695.77 1271.25 694.419 1274.49 689.555C1276.92 685.772 1279.36 681.988 1281.79 678.205C1294.49 658.479 1307.46 638.753 1320.16 619.027C1322.59 615.244 1325.29 611.19 1327.73 607.137C1331.24 601.462 1336.1 598.76 1342.86 599.03C1351.23 598.76 1359.88 598.49 1368.8 598.49Z" fill="black"/>
<path d="M1208.83 601.732C1208.56 602.273 1208.29 603.354 1207.75 604.164C1202.88 611.46 1198.29 618.756 1193.15 626.052C1190.72 629.565 1188.29 630.376 1184.78 628.484C1174.51 622.269 1165.32 626.052 1156.13 631.186C1146.95 636.591 1141.27 645.238 1135.6 653.885C1127.76 666.045 1119.92 677.935 1112.09 690.095C1109.93 693.608 1106.95 695.77 1102.63 695.77C1093.71 695.77 1084.79 695.77 1075.88 695.77C1071.01 695.77 1070.47 694.419 1072.9 690.365C1080.2 678.746 1087.5 667.396 1095.06 656.047C1105.6 639.834 1116.41 623.62 1126.95 607.137C1130.46 601.462 1134.79 598.76 1141.27 599.03C1148.57 599.3 1155.86 599.03 1163.16 599.03C1165.59 599.03 1168.02 599.03 1169.64 601.462C1171.54 604.435 1173.97 603.894 1176.67 602.813C1185.59 599.03 1195.32 598.76 1204.77 599.3C1207.75 599.03 1208.83 599.841 1208.83 601.732Z" fill="black"/>
<path d="M1315.84 708.199C1326.37 708.199 1336.91 708.199 1347.45 708.199C1348.8 708.199 1350.42 708.199 1351.78 708.199C1355.83 708.74 1356.91 710.361 1355.02 713.874C1352.05 719.819 1347.99 723.872 1340.43 723.602C1328 723.062 1315.57 723.602 1303.41 723.332C1297.46 723.332 1293.95 726.034 1291.52 731.168C1289.89 734.681 1290.7 736.032 1294.49 736.303C1299.62 736.573 1304.76 736.303 1309.62 736.303C1315.84 736.303 1322.32 736.303 1328.54 736.303C1330.43 736.303 1332.32 736.303 1333.94 736.843C1336.64 737.654 1337.45 739.275 1336.1 741.977C1333.13 747.922 1329.08 752.246 1321.51 752.246C1311.78 752.246 1302.05 752.246 1292.33 752.246C1288.54 752.246 1285.03 752.246 1281.25 752.246C1276.65 752.516 1271.79 757.11 1271.25 761.433C1270.98 763.055 1271.79 763.865 1273.14 764.136C1275.03 764.406 1276.65 764.406 1278.54 764.406C1288.81 764.406 1299.35 764.406 1309.62 764.406C1312.32 764.406 1315.84 763.595 1317.19 766.838C1318.54 769.54 1315.84 771.702 1314.48 773.864C1311.51 778.728 1307.46 780.619 1301.78 780.619C1282.33 780.349 1262.87 780.619 1243.42 780.619C1240.71 780.619 1238.01 780.349 1235.58 779.538C1231.8 778.187 1230.45 775.485 1231.53 771.972C1232.07 770.081 1233.15 768.189 1234.23 766.568C1243.96 751.165 1254.22 736.032 1263.68 720.359C1269.09 711.442 1276.38 707.929 1286.38 708.199C1296.38 708.47 1306.11 708.199 1315.84 708.199Z" fill="black"/>
<path d="M873.481 759.002C865.915 758.731 858.619 758.461 851.323 759.272C846.459 759.812 842.676 762.515 839.163 765.757C836.19 768.459 833.488 771.432 830.516 774.404C824.3 781.16 816.194 781.43 808.087 779.538C805.655 778.998 805.385 777.377 807.276 775.485C808.628 774.134 810.249 773.323 811.6 772.242C839.973 753.057 869.428 735.222 898.071 716.577C900.233 715.226 902.935 713.875 904.286 711.713C906.178 708.74 908.88 707.93 912.123 707.93C919.689 707.93 927.255 707.93 934.551 707.93C939.415 707.93 940.496 709.551 938.064 713.875C936.443 716.577 934.551 719.279 932.66 721.981C920.77 739.546 908.88 756.84 896.99 774.404C894.288 778.187 891.316 780.349 886.452 780.349C879.426 780.349 872.13 780.349 865.104 780.349C859.97 780.349 859.159 778.457 862.132 774.404C864.834 770.891 867.536 767.378 870.508 763.866C871.86 762.785 873.211 761.974 873.481 759.002ZM892.396 735.762C891.856 735.492 891.586 734.952 891.045 734.682C884.83 738.465 878.615 742.248 871.319 746.571C876.453 747.922 880.507 749.814 883.749 746.301C887.262 743.329 889.694 739.546 892.396 735.762Z" fill="black"/>
<path d="M1537.15 780.619C1531.2 780.619 1525.26 780.889 1519.58 780.619C1512.56 780.349 1510.4 776.836 1513.64 770.621C1518.77 761.433 1524.45 752.516 1530.66 744.139C1535.26 737.924 1542.01 734.411 1550.12 734.952C1556.33 735.492 1562.82 733.871 1568.76 736.033C1570.66 736.843 1571.2 735.222 1572.01 734.141C1574.17 730.628 1576.6 727.385 1578.49 723.873C1580.92 719.549 1584.44 717.387 1589.3 717.928C1592 718.198 1595.79 716.577 1597.41 719.279C1599.3 722.251 1595.79 724.683 1594.43 727.115C1584.44 742.788 1574.17 758.461 1564.17 774.134C1561.2 778.728 1557.95 781.16 1552.28 780.619C1547.15 780.349 1542.01 780.619 1537.15 780.619ZM1541.47 770.08C1544.98 770.08 1548.23 770.621 1550.39 767.378C1553.9 761.974 1557.68 756.569 1560.93 751.165C1562.55 748.733 1561.74 747.652 1558.77 747.652C1552.55 747.652 1547.69 750.354 1544.17 754.948C1542.01 757.921 1540.12 760.893 1538.23 764.136C1537.42 765.757 1535.53 767.108 1536.07 768.999C1537.15 771.161 1539.85 769.81 1541.47 770.08Z" fill="black"/>
<path d="M1368.8 735.222C1373.66 735.222 1378.53 735.222 1383.39 735.222C1385.55 735.222 1387.98 735.493 1389.88 736.033C1393.12 737.114 1394.2 739.546 1393.39 742.789C1392.85 744.41 1392.04 745.761 1391.23 747.112C1386.63 754.408 1382.04 761.704 1376.91 769C1371.77 776.566 1364.47 781.16 1354.75 780.62C1349.07 780.349 1343.4 781.43 1337.99 779.539C1336.37 778.728 1335.29 780.079 1334.75 781.43C1332.86 784.132 1330.97 786.835 1329.35 789.537C1326.37 795.482 1321.78 797.644 1315.56 796.833C1314.75 796.833 1313.94 796.833 1313.13 796.833C1308.81 796.563 1308 795.752 1310.43 791.699C1314.21 785.484 1318.27 779.268 1322.32 773.324C1329.35 762.515 1336.37 751.976 1343.13 741.167C1345.56 737.114 1348.8 735.222 1353.67 735.492C1358.53 735.492 1363.66 735.222 1368.8 735.222ZM1370.96 747.112C1366.64 745.761 1363.12 746.301 1359.88 746.572C1358.26 746.572 1356.64 747.652 1355.83 749.004C1352.31 754.138 1348.8 759.542 1345.56 764.947C1344.21 767.108 1345.02 768.189 1347.72 768.189C1353.4 768.189 1358.26 766.028 1361.5 761.704C1364.74 757.11 1367.45 752.516 1370.96 747.112Z" fill="black"/>
<path d="M1111.82 409.334C1111.28 411.766 1111.28 415.278 1111.28 418.791C1111.28 422.304 1109.93 424.466 1106.41 425.547C1092.63 430.681 1078.85 436.086 1064.8 441.22C1060.47 442.841 1059.66 442.03 1059.93 437.707C1061.29 420.953 1062.91 404.199 1064.53 387.446C1064.8 383.933 1065.88 383.392 1068.85 384.743C1082.09 390.418 1095.06 396.363 1108.3 402.038C1111.28 403.389 1112.36 405.55 1111.82 409.334Z" fill="black"/>
<path d="M1124.25 780.619C1118.84 780.619 1113.71 780.619 1108.3 780.619C1106.41 780.619 1104.52 780.619 1102.9 779.808C1100.47 778.727 1099.66 777.106 1100.47 774.404C1100.74 773.863 1100.74 773.323 1101.28 772.783C1108.03 762.784 1113.98 752.516 1121.82 743.328C1125.87 738.464 1131.27 736.303 1137.49 736.303C1146.14 736.303 1154.51 736.303 1163.16 736.303C1164.51 736.303 1166.13 736.573 1167.48 736.843C1171.27 737.924 1172.89 740.626 1171.27 744.409C1168.29 750.624 1164.24 756.299 1159.65 761.433C1158.03 763.325 1155.32 763.325 1152.89 763.325C1145.87 763.325 1139.11 763.325 1132.08 763.325C1129.11 763.325 1126.95 764.136 1125.6 767.108C1124.79 769 1125.06 770.351 1127.49 770.351C1132.08 770.351 1136.95 770.351 1141.54 770.351C1143.97 770.351 1146.41 770.351 1148.84 770.621C1151.54 770.891 1152.08 772.512 1151 774.944C1149.38 778.457 1146.41 780.619 1142.35 780.619C1135.87 780.619 1129.92 780.619 1124.25 780.619ZM1135.6 752.516C1142.89 753.867 1148.03 753.057 1152.35 749.544C1152.89 749.003 1153.7 748.463 1153.43 747.652C1153.16 746.571 1152.35 746.571 1151.54 746.301C1149.11 746.301 1146.68 746.301 1144.24 746.301C1140.19 746.031 1137.22 747.922 1135.6 752.516Z" fill="black"/>
<path d="M1592.81 780.62C1586.87 780.62 1580.92 780.89 1575.25 780.62C1568.49 780.349 1566.87 777.377 1570.38 771.702C1575.79 763.325 1581.46 755.219 1587.14 747.112C1592.27 739.816 1599.3 736.303 1608.49 736.573C1615.78 736.843 1623.08 736.573 1630.37 736.573C1633.89 736.573 1637.67 736.573 1639.29 740.356C1640.91 743.869 1638.48 746.571 1636.59 749.274C1634.43 752.786 1632 756.029 1629.83 759.272C1627.67 762.515 1624.7 763.866 1620.92 763.595C1613.89 763.595 1607.13 763.595 1600.11 763.595C1597.68 763.595 1595.25 764.136 1593.89 766.298C1592.27 768.73 1593.08 770.081 1595.79 770.351C1600.11 770.621 1604.7 770.351 1609.3 770.351C1610.65 770.351 1612.27 770.351 1613.62 770.351C1615.78 770.621 1618.48 769.811 1619.3 772.513C1620.11 774.945 1617.94 776.566 1616.59 778.187C1614.7 780.079 1612.27 780.349 1609.84 780.349C1604.16 780.619 1598.49 780.62 1592.81 780.62ZM1622.54 746.842C1617.94 745.491 1613.62 746.031 1609.57 746.571C1607.13 746.842 1605.78 748.733 1604.97 750.895C1604.43 751.976 1604.97 752.787 1606.05 753.057C1611.19 754.948 1618.75 752.246 1622.54 746.842Z" fill="black"/>
<path d="M1080.2 780.619C1077.77 780.079 1073.99 781.97 1072.64 779.268C1071.01 776.296 1074.26 774.134 1075.88 771.972C1079.39 766.298 1083.17 760.623 1086.69 754.948C1088.58 751.976 1088.04 751.435 1084.53 750.895C1080.2 750.354 1076.96 751.705 1074.53 756.029C1070.74 762.785 1066.42 769 1062.1 775.485C1058.85 780.079 1053.45 781.97 1048.32 780.349C1046.69 779.809 1046.15 778.728 1046.69 777.106C1047.23 775.755 1048.04 774.674 1048.86 773.323C1059.39 756.84 1069.93 740.626 1080.47 724.143C1083.71 719.279 1088.58 717.658 1094.25 719.279C1096.96 720.09 1096.69 721.711 1095.6 723.602C1092.9 727.926 1090.2 732.249 1087.5 736.573C1085.07 740.356 1085.34 740.897 1089.93 741.167C1093.98 741.167 1098.04 741.167 1102.09 741.167C1109.93 741.437 1112.63 745.761 1108.85 752.246C1103.71 760.893 1098.04 769 1092.63 777.377C1089.12 781.43 1084.52 780.349 1080.2 780.619Z" fill="black"/>
<path d="M1443.11 749.544C1447.16 749.544 1451.22 749.544 1455 749.544C1457.16 749.544 1459.59 749.544 1461.76 749.544C1466.35 749.814 1467.7 751.976 1465.54 756.029C1462.57 761.974 1459.05 767.919 1455 773.053C1451.22 777.917 1445.81 780.349 1439.6 780.62C1430.14 780.89 1420.41 780.62 1410.95 780.62C1410.41 780.62 1409.6 780.62 1409.06 780.62C1405.82 780.079 1405.28 778.998 1406.9 776.026C1409.06 771.972 1412.3 769.54 1417.17 769.54C1423.11 769.54 1429.06 769.54 1434.73 769.27C1437.16 769.27 1439.6 769 1441.76 767.649C1442.84 766.838 1444.19 766.028 1443.92 764.406C1443.65 762.515 1441.76 762.785 1440.41 762.785C1436.35 762.785 1432.3 762.785 1428.25 762.785C1426.9 762.785 1425.28 762.785 1423.92 762.785C1421.49 762.515 1418.52 763.596 1416.9 760.353C1416.09 758.732 1418.25 754.138 1420.68 752.516C1421.22 752.246 1421.76 751.976 1422.3 751.706C1427.44 749.274 1430.68 745.22 1432.03 739.816C1433.11 735.763 1435.54 734.141 1439.33 733.871C1450.41 733.06 1461.21 733.331 1472.29 733.871C1476.62 734.141 1477.43 735.763 1475 739.275C1472.56 743.059 1469.32 745.22 1464.46 744.95C1460.94 744.68 1457.16 744.68 1453.38 744.95C1449.6 745.22 1445.81 745.761 1442.84 748.733C1442.84 748.463 1443.11 749.004 1443.11 749.544Z" fill="black"/>
<path d="M975.356 780.619C971.032 780.619 966.438 780.89 962.115 780.619C956.44 780.349 954.548 777.377 957.521 772.783C964.276 762.244 971.032 751.705 978.058 741.167C980.49 737.384 984.543 735.492 988.867 735.492C997.514 735.222 1006.16 735.222 1015.08 735.492C1022.64 735.492 1025.35 742.248 1021.29 747.652C1016.43 754.678 1012.11 761.974 1007.24 769C1001.57 776.836 994.271 781.7 984.003 780.89C981.3 780.349 978.328 780.619 975.356 780.619ZM994.812 745.22C989.677 745.22 988.596 745.22 986.705 747.922C982.381 754.137 978.328 760.623 974.275 767.108C972.924 769 973.734 770.081 976.166 770.351C981.3 770.621 985.624 768.73 988.867 764.676C992.65 760.082 995.622 755.218 998.865 750.354C1001.57 746.031 1001.3 745.49 996.163 745.22C995.622 745.22 995.352 745.49 994.812 745.22Z" fill="black"/>
<path d="M1477.43 780.619C1472.83 780.619 1467.97 780.89 1463.38 780.619C1458.24 780.349 1456.62 777.647 1459.32 773.323C1466.08 762.244 1473.38 751.435 1480.4 740.626C1482.29 737.654 1485.27 736.303 1488.51 736.033C1498.51 734.682 1508.23 734.952 1518.23 735.762C1524.72 736.303 1526.88 741.167 1523.64 746.571C1518.77 754.408 1513.91 762.514 1508.23 770.081C1503.1 776.836 1496.61 781.16 1487.43 780.619C1484.45 780.349 1480.94 780.619 1477.43 780.619ZM1477.97 771.162C1481.21 770.621 1484.72 770.351 1487.7 768.189C1494.45 762.785 1497.97 755.219 1502.56 748.193C1503.1 747.382 1502.83 746.301 1501.75 745.761C1498.51 744.139 1490.94 745.49 1488.78 748.733C1484.45 754.948 1480.4 761.704 1476.08 768.189C1474.73 769.81 1475.54 771.162 1477.97 771.162Z" fill="black"/>
<path d="M946.442 735.492C949.955 735.492 953.467 735.492 956.71 735.492C958.872 735.492 961.304 735.762 963.195 736.573C967.519 737.924 969.14 741.437 967.519 745.761C966.708 747.922 965.627 749.814 964.547 751.706C959.142 760.082 953.467 768.189 947.793 776.296C945.631 779.538 942.929 780.89 939.146 780.619C936.984 780.349 934.552 780.619 932.39 780.619C930.228 780.349 927.526 781.43 926.445 778.998C925.364 776.836 927.526 775.215 928.607 773.594C933.201 766.838 937.795 760.083 942.388 753.597C943.199 752.516 944.01 751.165 944.82 750.084C945.901 748.193 945.631 747.112 943.199 746.842C938.335 746.301 934.552 747.382 931.579 752.246C926.715 760.353 921.041 768.189 915.636 776.026C912.664 780.349 909.151 781.43 904.017 780.349C901.855 779.809 900.774 778.728 902.125 776.566C902.666 775.485 903.476 774.404 904.017 773.594C911.313 762.785 918.879 751.705 925.905 740.626C928.337 737.113 931.309 735.492 935.633 735.492C939.146 735.222 942.659 735.222 946.442 735.492C946.442 735.222 946.442 735.222 946.442 735.492Z" fill="black"/>
<path d="M1023.73 780.62C1021.29 780.62 1018.86 780.62 1016.43 780.62C1009.67 780.349 1008.86 778.998 1012.38 773.053C1015.08 768.459 1018.05 763.866 1021.02 759.002C1024.27 753.868 1027.24 748.733 1030.48 743.329C1031.83 741.167 1032.64 739.275 1029.13 738.465C1026.97 737.924 1027.24 736.033 1028.05 734.411C1029.4 731.439 1031.29 729.277 1034.8 729.007C1037.51 728.737 1039.67 727.926 1041.56 725.494C1044.26 721.981 1053.72 720.09 1057.77 721.981C1059.12 722.522 1059.39 723.603 1059.12 724.954C1057.77 728.467 1059.93 728.737 1062.37 728.737C1062.64 728.737 1062.91 728.737 1062.91 728.737C1064.8 729.007 1066.96 728.467 1067.77 730.358C1068.58 732.52 1066.69 734.141 1065.61 735.763C1063.72 738.465 1060.75 739.005 1058.04 738.465C1052.37 737.654 1049.13 740.356 1046.42 744.95C1042.64 751.435 1038.59 757.651 1034.53 764.136C1033.72 765.487 1031.83 767.108 1033.18 769C1034.26 770.621 1036.16 769.811 1037.78 769.811C1039.4 769.811 1041.29 768.459 1042.37 770.081C1043.72 771.972 1042.1 773.594 1041.29 774.945C1039.67 778.187 1036.97 779.809 1033.45 779.809C1030.21 780.619 1026.97 780.349 1023.73 780.62Z" fill="black"/>
<path d="M866.996 483.105C874.022 482.835 874.022 482.835 875.103 488.78C877.535 501.48 878.616 498.508 868.618 506.074C858.619 513.64 848.891 520.936 838.893 528.232C834.84 531.205 834.57 531.205 831.867 527.151C823.761 514.451 824.301 517.423 832.408 506.885C837.002 500.94 841.595 494.995 846.189 489.05C848.621 485.807 851.323 484.186 855.377 484.186C859.971 483.916 864.024 483.375 866.996 483.105Z" fill="black"/>
<path d="M1219.1 737.654C1218.82 738.465 1218.55 739.276 1218.28 740.086C1217.2 741.978 1215.85 743.869 1214.77 745.761C1212.61 749.544 1210.45 751.165 1205.58 749.544C1199.37 747.653 1194.23 751.436 1190.45 756.3C1186.4 761.704 1182.89 767.379 1179.37 773.053C1178.56 774.404 1177.48 775.756 1176.67 777.107C1175.05 779.539 1172.62 780.89 1169.37 780.89C1166.4 780.89 1163.16 781.16 1160.19 780.89C1156.67 780.62 1155.86 779.268 1157.75 776.296C1160.19 772.243 1162.62 768.46 1165.32 764.406C1170.46 756.57 1175.86 748.463 1180.99 740.627C1183.16 737.114 1186.13 735.492 1190.18 735.763C1194.23 736.033 1198.83 734.682 1202.61 737.654C1203.69 738.465 1204.77 737.384 1206.12 737.114C1209.64 736.303 1213.15 735.493 1216.93 736.033C1217.74 735.763 1218.55 736.303 1219.1 737.654Z" fill="black"/>
<path d="M1135.33 557.416C1135.33 570.386 1135.6 569.035 1123.98 571.467C1119.11 572.548 1113.98 573.899 1109.12 574.71C1104.25 575.791 1103.44 575.52 1102.09 570.927C1100.47 566.333 1099.39 561.469 1097.77 556.875C1096.68 553.903 1097.5 551.741 1100.47 550.39C1105.33 547.688 1109.93 544.715 1114.52 542.013C1115.87 541.202 1117.49 540.662 1119.11 540.932C1123.44 542.013 1127.76 543.094 1132.08 544.175C1134.25 544.715 1135.33 546.337 1135.33 548.769C1135.6 551.741 1135.33 554.713 1135.33 557.416Z" fill="black"/>
<path d="M1386.63 780.62C1384.47 780.62 1382.04 780.89 1379.88 780.62C1376.37 780.349 1375.55 778.998 1377.18 775.755C1377.99 774.134 1379.07 772.513 1379.88 771.162C1385.01 763.055 1389.88 754.948 1395.01 746.842C1395.82 745.491 1396.63 744.14 1397.71 742.788C1399.6 740.627 1401.23 740.627 1402.31 743.329C1403.93 747.382 1406.63 750.625 1410.41 752.787C1412.3 754.138 1412.85 756.029 1411.49 758.191C1407.17 764.676 1402.85 771.432 1398.25 777.917C1397.17 779.809 1395.01 780.349 1392.85 780.349C1390.96 780.619 1388.8 780.62 1386.63 780.62Z" fill="black"/>
<path d="M1025.62 636.861C1025.89 646.319 1027.51 654.966 1026.97 663.883C1026.97 665.775 1026.43 667.396 1025.08 669.017C1022.37 672.53 1019.94 676.313 1016.97 679.826C1014.54 682.799 1013.46 682.799 1010.75 679.556C1010.48 679.016 1010.21 678.475 1009.67 677.935C1004.81 671.72 1004.27 666.045 1009.4 659.289C1014 653.344 1017.51 646.589 1021.29 640.374C1022.64 639.023 1022.91 637.672 1025.62 636.861Z" fill="black"/>
<path d="M1354.21 623.35C1356.91 623.35 1358.8 623.35 1360.96 623.35C1363.12 623.62 1363.93 624.972 1362.58 626.593C1357.45 634.429 1352.32 641.996 1346.91 649.562C1344.48 652.805 1340.97 652.534 1337.45 652.264C1335.02 652.264 1331.78 653.345 1330.16 650.643C1328.81 648.211 1331.51 646.319 1332.59 644.157C1335.29 639.834 1337.99 635.51 1340.43 631.187C1343.67 625.512 1347.45 621.188 1354.21 623.35Z" fill="black"/>
<path d="M1098.31 640.644C1099.93 634.97 1102.9 631.186 1105.33 627.133C1107.22 623.89 1109.39 620.918 1110.74 617.675C1112.9 612.271 1114.25 606.867 1112.9 601.192C1112.09 598.49 1113.17 596.868 1115.87 596.058C1118.84 594.977 1122.09 594.166 1125.06 592.815C1129.11 591.194 1132.62 591.734 1135.87 595.517C1126.41 599.841 1122.9 609.028 1117.49 616.595C1112.63 623.62 1107.76 630.646 1102.9 637.672C1101.82 638.753 1101.01 640.374 1098.31 640.644Z" fill="black"/>
<path d="M1030.48 659.56C1029.67 657.668 1030.48 656.317 1030.75 654.966C1033.72 644.157 1036.97 633.078 1040.21 622.269C1041.56 617.135 1042.1 616.865 1047.5 616.865C1050.48 616.865 1054.26 615.514 1056.15 618.216C1058.04 621.188 1054.53 623.62 1052.91 626.052C1046.96 635.78 1041.02 645.238 1034.8 654.696C1033.72 656.587 1032.91 658.479 1030.48 659.56Z" fill="black"/>
<path d="M694.324 619.297C694.054 619.837 693.514 620.918 692.973 621.729C689.46 626.593 686.218 631.186 682.705 635.78C680.273 639.023 679.192 639.023 676.22 635.78C674.868 634.159 673.517 632.267 672.166 630.376C670.815 628.214 668.383 626.593 670.275 623.35C672.166 620.107 673.788 616.865 678.381 617.135C682.705 617.405 687.299 617.135 691.622 617.135C692.973 617.135 694.324 617.135 694.324 619.297Z" fill="black"/>
<path d="M1416.9 749.274C1411.49 749.274 1407.44 745.761 1407.17 740.627C1406.9 734.682 1412.3 729.007 1418.52 728.737C1423.65 728.737 1427.98 732.52 1427.98 737.654C1427.98 743.599 1422.57 749.274 1416.9 749.274Z" fill="black"/>
<path d="M1005.62 612.001C1005.08 613.081 1004.54 614.162 1004 615.243C998.865 622.81 993.73 630.376 988.596 637.672C988.326 637.942 988.056 638.482 987.785 638.482C986.434 639.563 985.353 642.266 983.462 640.644C981.57 639.293 983.462 637.131 984.273 635.78C989.407 627.133 994.541 618.756 998.054 609.569C998.594 608.217 999.135 606.596 1001.03 607.407C1002.92 608.488 1004.81 609.569 1005.62 612.001Z" fill="black"/>
<path d="M560.024 496.616C572.184 497.156 572.184 497.156 574.345 508.506C574.886 511.478 575.426 514.451 575.967 517.423C576.507 520.125 575.697 522.017 572.994 523.098C567.59 524.989 562.185 526.611 557.051 528.502C556.24 528.772 555.43 529.043 554.619 528.772C550.566 526.611 548.404 522.557 545.702 519.044C544.08 516.883 545.161 514.721 546.242 512.829C548.134 509.046 550.296 505.263 551.917 501.48C553.538 497.697 556.24 495.805 560.024 496.616Z" fill="black"/>
<path d="M808.357 617.676C815.383 616.865 822.409 615.514 829.705 616.054C832.407 616.324 832.948 617.405 831.597 619.567C829.705 622.539 827.813 625.242 825.922 628.214C825.111 629.565 823.76 630.106 822.409 629.295C817.815 625.782 812.681 623.62 808.898 619.297C808.357 619.027 808.357 618.486 808.357 617.676Z" fill="black"/>
<path d="M1247.74 620.918C1250.71 620.918 1253.95 620.648 1256.93 620.918C1259.9 621.188 1260.71 622.81 1259.09 625.512C1256.93 629.295 1253.95 632.267 1250.71 634.97C1245.58 639.293 1240.71 644.157 1233.69 645.238C1232.61 645.508 1231.26 645.779 1230.18 645.779C1227.74 645.779 1225.04 645.508 1223.69 643.346C1222.34 641.185 1224.5 639.563 1225.58 637.942C1227.47 634.699 1229.36 631.727 1230.99 628.484C1233.69 622.81 1238.01 619.567 1244.5 620.378C1245.31 620.918 1246.66 620.918 1247.74 620.918Z" fill="black"/>
</svg>
