<svg width="1525" height="372" viewBox="0 0 1525 372" fill="none" xmlns="http://www.w3.org/2000/svg">
<path d="M1503.28 15.752L1500.78 16.1816C1499.4 16.4188 1456.8 24.1679 1406.1 33.4023L1313.92 50.1934L1320.18 51.7695C1334.74 55.4328 1335.97 60.4408 1326.56 77.7363C1322.58 85.0472 1246.41 205.335 1244.52 207.293C1243.89 207.943 1243.76 207.594 1244.14 206.293C1244.47 205.193 1248.59 184.268 1253.29 159.793C1258 135.318 1263.15 108.605 1264.73 100.43C1269.17 77.5625 1273.33 70.5043 1289.01 59.2871C1294 55.7155 1297.68 52.7949 1297.18 52.7969C1296.48 52.8003 1208.44 66.881 1201.78 68.0547C1200.96 68.1996 1202.87 69.58 1206.02 71.123C1213 74.5357 1219.3 80.655 1223.17 87.7734C1227.33 95.4235 1227.6 102.647 1224.42 121.793C1224.23 122.94 1223.32 128.782 1222.94 131.104C1223.23 132.286 1223.29 133.428 1222.69 133.979C1222.61 134.049 1222.53 134.118 1222.45 134.188C1219.85 150.498 1214.97 181.45 1209.31 217.793C1202.41 262.068 1196.49 299.591 1196.16 301.178C1195.59 303.924 1195.69 304.031 1198.36 303.363C1204.67 301.778 1372.42 235.494 1371.12 235.1C1370.66 234.96 1347.44 240.579 1319.53 247.588C1291.61 254.596 1268.78 260.191 1268.78 260.021C1268.78 259.852 1284.07 240.969 1302.75 218.061C1321.44 195.152 1336.59 176.272 1336.42 176.105C1336.25 175.939 1324.23 179.8 1309.7 184.686C1295.17 189.572 1283.14 193.441 1282.96 193.285C1282.62 192.969 1393.95 95.5037 1434.28 60.8242C1463.21 35.9415 1468.64 32.0695 1486.15 23.8359C1492.82 20.6982 1499.4 17.5959 1500.78 16.9414L1503.28 15.752ZM195.994 21.8125C138.395 21.7911 139.026 21.7364 133.595 27.2207C132.12 28.7102 120.369 46.2113 107.482 66.1113C84.8532 101.054 83.9931 102.567 82.3454 110.293C81.4071 114.693 80.4337 119.02 80.1833 119.908C79.8213 121.192 81.013 121.765 86.0017 122.705C97.9498 124.957 110.991 133.505 115.355 141.943C117.076 145.272 118.124 145.52 119.375 142.9C119.871 141.86 131.524 123.635 145.269 102.4L170.261 63.793H197.05C226.135 63.793 226.436 63.8541 223.98 69.2441C222.125 73.3166 171.772 150.948 165.91 158.773C153.158 175.796 141.924 183.89 128.175 185.959C124.381 186.53 120.377 187.161 119.277 187.361C118.03 187.589 116.147 189.904 114.277 193.506C110.541 200.702 100.457 211.505 92.5466 216.787L86.5485 220.793L121.914 220.771C168.867 220.744 171.229 220.211 181.621 207.293C187.836 199.566 273.339 66.9214 276.429 60.2109C279.729 53.0467 280.327 47.1925 278.426 40.6953C275.367 30.2434 268.289 24.5812 256.07 22.8145C252.31 22.2708 225.48 21.8235 195.994 21.8125ZM624.277 48.7363L619.193 54.4043L614.111 60.0703V56.7734C614.111 54.4253 613.328 52.8027 611.388 51.1348C608.685 48.8094 608.485 48.7933 582.97 48.8105C553.934 48.8302 547.464 49.7101 537.547 54.9941C528.921 59.5898 522.284 66.4615 513.566 79.8223C509.45 86.1308 497.913 103.837 487.929 119.17C461.421 159.88 460.4 157.793 506.816 157.793C543.495 157.793 543.648 157.768 550.662 150.754C552.375 149.04 553.777 147.931 553.777 148.289C553.777 149.743 539.39 169.952 537.037 171.803C535.642 172.9 532.2 174.576 529.388 175.527C524.645 177.133 513.023 177.279 368.277 177.576L212.277 177.896L199.527 197.734C192.515 208.645 186.777 218.082 186.777 218.705C186.777 219.546 230.299 219.767 355.527 219.564L524.277 219.293L532.277 216.568C542.627 213.044 551.617 207.721 559.345 200.541C566.537 193.859 563.004 198.962 607.293 131.293C644.57 74.336 646.367 71.7341 657.461 58.6895C661.485 53.9579 664.777 49.7954 664.777 49.4395C664.777 49.0835 655.665 48.7809 644.527 48.7656L624.277 48.7363ZM715.976 48.8516C685.899 48.8022 679.191 49.0448 676.834 50.2637C673.869 51.7965 663.447 67.449 664.383 68.9629C664.664 69.4191 677.131 69.7996 692.086 69.8066C707.041 69.8141 720.29 70.0922 721.527 70.4238C722.765 70.7555 723.777 71.7696 723.777 72.6777C723.777 74.9709 719.202 81.4776 716.508 83.0176C714.935 83.9163 706.883 84.4405 689.22 84.793L664.164 85.293L656.601 89.0332C650.997 91.8048 647.355 94.5564 642.541 99.6602C635.616 107.001 621.651 127.139 616.744 136.859C611.513 147.221 613.366 154.08 622.277 157.338C625.366 158.467 630.492 158.738 644.777 158.527C665.281 158.226 666.223 157.983 674.004 150.986L678.111 147.293L675.328 151.518C670.736 158.488 671.341 158.793 689.795 158.793C701.676 158.793 706.589 158.424 708.603 157.383C712.068 155.591 755.61 88.8687 763.826 72.7617C770.288 60.0916 767.773 51.4603 757.107 49.707C754.45 49.2703 735.941 48.8844 715.976 48.8516ZM815.746 48.8809V48.8829V48.8849L815.744 48.8869L815.742 48.8889C800.237 48.8851 798.243 49.2752 795.777 50.6135C793.106 52.0628 789.364 56.9872 779.984 71.4025C735.372 139.959 724.68 156.826 725.252 157.75C725.639 158.377 730.592 158.793 737.701 158.793C747.776 158.793 749.861 158.514 751.918 156.897C753.243 155.854 766.241 136.731 780.802 114.403L807.277 73.8049L820.558 73.799C835.356 73.792 836.177 74.1836 833.255 79.8341C832.339 81.6056 821.668 98.1833 809.543 116.674C783.273 156.733 783.446 156.45 784.255 157.76C784.69 158.464 837.075 158.793 948.634 158.793H1112.37L1113.27 156.315C1112.49 155.169 1111.61 154.074 1110.75 152.965C1109.6 153.786 1107.54 153.793 1101.64 153.793C1099.55 153.793 1098.02 153.754 1096.75 153.688C1095.26 156.15 1092.41 156.078 1089.76 155.25C1089.32 155.267 1088.89 155.272 1088.45 155.225C1088.27 155.163 1088.09 155.1 1087.91 155.039C1087.08 154.82 1086.15 154.716 1085.43 154.551C1085.18 154.474 1084.9 154.394 1084.74 154.336C1084.74 154.335 1084.74 154.333 1084.73 154.332C1083.53 154.334 1082.42 154.337 1081.35 154.332C1081.26 154.33 1081.17 154.328 1081.09 154.324C1081.05 154.323 1080.95 154.327 1080.98 154.318C1080.08 154.437 1079.11 154.44 1078.26 154.109C1078.15 154.109 1078.02 154.171 1077.92 154.109C1077.91 154.101 1077.93 154.099 1077.94 154.094C1077.06 154.123 1076.1 154.125 1075.33 154.146C1075.07 154.1 1074.8 154.065 1074.54 154.006C1074.41 153.976 1074.14 154.001 1074.14 153.894C1074.01 153.894 1073.87 153.894 1073.73 153.888C1073.66 153.885 1073.58 153.88 1073.51 153.875C1072.35 154.146 1071.42 153.811 1070.45 153.441C1070.27 153.413 1070.04 153.377 1070.04 153.376C1069.93 153.345 1069.82 153.324 1069.72 153.283C1069.71 153.279 1069.74 153.252 1069.73 153.25C1069.61 153.226 1069.49 153.215 1069.36 153.201C1068.94 153.199 1068.51 153.196 1068.09 153.193L1068.05 153.292L1062.33 153.595C1059.72 153.733 1058.33 153.785 1057.63 153.579C1056.47 153.794 1055.36 153.903 1054.1 153.824C1052.45 153.824 1050.81 153.822 1049.16 153.824C1046.46 153.828 1043.74 153.825 1041.04 153.814C1039.25 153.812 1037.47 153.944 1035.7 153.773C1035.46 153.742 1035.11 153.712 1035.09 153.669C1034.19 154.378 1033.41 154.779 1031.93 153.782C1029.96 153.782 1027.99 154.448 1026.03 154.448C1024.11 154.449 1022.2 154.442 1020.29 154.44C1018.57 154.443 1016.85 154.474 1015.14 154.423C1014.15 154.405 1013.11 154.302 1012.13 154.411C1011.61 154.469 1011.1 154.572 1010.57 154.597C1010.07 154.621 1009.57 154.571 1009.07 154.558C1007.2 154.328 1006.71 154.309 1004.71 153.782C1004.5 153.785 1004.29 153.796 1004.07 153.78C1004.05 153.778 1004.01 153.734 1004.03 153.724C1004.15 153.663 1004.54 153.59 1004.41 153.606C1003.68 153.697 1002.96 154.058 1002.23 153.944C1001.49 153.828 1000.78 153.58 1000.08 153.311C1000.03 153.309 999.957 153.301 999.922 153.3C998.983 153.266 998.021 153.146 997.082 153.007C996.707 153.021 996.332 153.039 995.957 153.046C995.559 153.017 994.97 153.303 994.762 152.962C994.725 152.902 994.703 152.834 994.668 152.772C993.665 152.772 992.661 152.772 991.658 152.772C991.23 152.772 990.803 152.768 990.375 152.772C989.973 152.775 989.572 152.774 989.17 152.755C988.886 152.765 988.589 152.841 988.307 152.825C987.612 152.785 987.366 152.706 987.088 152.548C987.014 152.546 986.94 152.544 986.842 152.54C986.808 152.539 986.769 152.531 986.74 152.528C985.584 152.649 984.413 152.667 983.274 152.399C982.184 152.087 983.681 152.502 982.395 152.206C982.361 152.198 982.337 152.158 982.303 152.155C981.727 152.105 981.141 152.147 980.6 151.897C980.492 151.899 980.38 151.895 980.258 151.882C980.057 151.882 979.856 151.879 979.655 151.903C979.628 151.904 979.599 151.908 979.573 151.909C977.911 152.381 976.231 152.68 974.492 152.558C972.935 152.558 971.378 152.558 969.821 152.558C968.502 152.558 967.182 152.558 965.864 152.558C963.978 152.557 962.093 152.564 960.207 152.569C958.496 152.571 956.784 152.548 955.073 152.556C953.452 152.588 951.789 152.73 950.17 152.641C949.699 152.616 949.229 152.572 948.76 152.522C948.728 152.532 948.698 152.549 948.666 152.558C947 153.002 945.751 153.286 944.125 153.192C942.972 153.192 941.819 153.192 940.666 153.192C938.853 153.192 937.04 153.192 935.227 153.192C929.969 152.478 925.043 153.762 920.653 153.788C919.266 153.788 918.544 153.66 918.164 153.136C918.127 153.133 918.089 153.128 918.051 153.124C918.463 152.964 917.179 153.271 916.739 153.311C916.548 153.329 916.362 153.335 916.174 153.345C915.737 153.701 914.995 153.78 913.703 153.78C912.961 153.78 912.408 153.753 911.989 153.673C911.955 153.682 911.911 153.711 911.881 153.714C911.898 153.706 911.915 153.698 911.918 153.673C911.919 153.671 911.918 153.665 911.918 153.663C911.809 153.639 911.717 153.608 911.627 153.575C911.686 153.658 911.762 153.708 911.866 153.708C911.782 153.737 911.602 153.652 911.481 153.635C911.049 153.591 910.618 153.539 910.198 153.686C909.867 153.75 909.537 153.818 909.205 153.876C909.056 153.902 908.715 153.876 908.623 153.876C907.456 153.945 906.208 153.865 905.141 153.647C905.112 153.758 905.085 153.849 905.055 153.965C905.014 154.127 903.691 153.995 902.344 153.801C901.87 153.818 901.397 153.826 900.92 153.817C897.071 153.817 893.387 153.911 889.87 153.378C889.644 153.296 889.785 153.349 889.598 153.282C887.014 153.17 884.414 153.748 881.932 153.749C881.924 153.755 881.919 153.756 881.91 153.762C881.733 153.894 882.937 153.818 882 153.856C880.568 153.889 879.259 153.871 877.934 153.872C877.437 153.871 876.941 153.872 876.444 153.872C876.05 153.872 875.656 153.872 875.262 153.872C874.852 153.872 874.442 153.872 874.032 153.872H872.938H871.655C865.77 153.643 859.639 153.77 853.662 153.77C836.951 153.77 833.645 153.535 834.086 152.385C834.378 151.624 845.23 134.794 858.2 114.983C871.169 95.1721 882.669 77.0063 883.754 74.6158C884.952 71.9759 885.735 68.0654 885.748 64.6549C885.774 58.0283 883.795 54.8986 877.426 51.4928C873.379 49.3368 872.311 49.275 836.274 48.9928C827.585 48.9247 820.915 48.8808 815.746 48.8795L815.746 48.8809ZM341.133 49.293C302.408 49.293 300.91 49.3637 298.732 51.293C295.754 53.9309 287.777 66.2217 287.777 68.1738C287.777 69.5072 291.519 69.7447 316.695 70C332.6 70.1613 345.928 70.6092 346.314 70.9961C347.625 72.3098 345.726 76.8774 342.324 80.5918L338.933 84.293L313.105 84.793L287.277 85.293L280.363 88.5664C275.364 90.9336 271.486 93.8426 266.363 99.0664C259.011 106.564 245.001 126.444 239.779 136.789C234.511 147.226 236.342 154.071 245.277 157.338C248.366 158.467 253.492 158.738 267.777 158.527C288.281 158.226 289.223 157.983 297.004 150.986L301.111 147.293L298.328 151.518C293.736 158.488 294.341 158.793 312.795 158.793C324.812 158.793 329.578 158.43 331.652 157.357C333.583 156.359 341.282 145.323 356.941 121.107C369.323 101.959 381.309 83.143 383.576 79.293C390.605 67.3566 392.222 60.4889 389.324 54.8848C386.529 49.4805 384.917 49.293 341.133 49.293ZM456.277 49.293C419.829 49.293 418.168 49.3747 415.619 51.293C413.329 53.0164 348.366 151.372 346.652 155.711C346.308 156.581 346.222 157.63 346.461 158.043C346.699 158.455 352.208 158.793 358.701 158.793C368.983 158.793 370.835 158.535 373.045 156.797C374.44 155.699 387.438 136.575 401.929 114.297L428.277 73.791L441.765 74.041C453.802 74.2652 455.29 74.4851 455.595 76.0781C455.962 77.9889 453.718 81.5972 424.465 126.164C414.042 142.044 405.461 155.769 405.396 156.664C405.291 158.114 407.625 158.322 426.672 158.562C444.028 158.782 448.484 158.559 450.281 157.381C452.922 155.651 501.058 82.5814 504.5 75.0781C507.548 68.4328 507.777 60.6202 505.035 56.9102C503.97 55.47 501.115 53.168 498.689 51.793L494.277 49.293H456.277ZM588.017 71.959C596.67 71.9374 602.777 72.0445 602.777 72.2461C602.777 73.1607 580.493 107.273 576.877 111.895C569.601 121.192 560.953 125.827 547.355 127.719C538.125 129.003 518.777 129.148 518.777 127.934C518.777 127.461 526.819 114.748 536.648 99.6836L554.519 72.293L578.648 72.0254C581.966 71.9886 585.133 71.9662 588.017 71.959ZM1430.28 74.3398L1420.24 82.8164C1375.42 120.659 1306.84 179.188 1307.06 179.408C1307.21 179.558 1325.75 172.498 1348.27 163.723C1370.78 154.947 1389.5 147.887 1389.87 148.031C1390.23 148.176 1372.36 164.031 1350.16 183.268C1327.95 202.504 1309.78 218.339 1309.78 218.457C1309.78 218.575 1313.26 216.717 1317.53 214.328C1327.67 208.646 1342.06 202.571 1353.28 199.24C1365.51 195.605 1379.32 195.294 1385.4 198.518C1397.32 204.839 1400.83 217.532 1394.1 229.967C1390.52 236.588 1378.58 248.806 1368.41 256.271C1327.54 286.261 1267.84 307.791 1218.28 310.412C1193.7 311.712 1180.23 306.923 1176.86 295.68C1174.24 286.945 1178.06 278.371 1194.75 255.51C1198.09 250.925 1151.29 285.898 1127.59 305.695C1105.99 323.732 1086.78 341.062 1068.78 358.729C1057.06 370.234 1054.74 372.878 1059.28 369.57C1086.54 349.701 1109.73 336.761 1130.41 329.885C1154.09 322.009 1174.42 321.637 1181.43 328.951C1184.1 331.731 1184.3 332.537 1184.61 341.629C1184.8 346.969 1184.52 353.703 1184 356.594L1183.04 361.852L1185.66 360.135C1216.08 340.195 1258.02 320.267 1283.27 313.748C1312.55 306.188 1330.7 307.493 1336.99 317.613C1340.22 322.801 1340.04 332.046 1336.55 340.586L1333.98 346.879L1337.63 344.168C1344.03 339.411 1363.05 324.537 1369.72 319.074C1374.49 315.163 1376.4 314.12 1377.07 315.045C1377.7 315.925 1377.81 315.798 1377.43 314.615C1377.14 313.693 1377.5 312.436 1378.24 311.822C1379.3 310.949 1379.92 311.38 1381.13 313.801C1381.98 315.503 1382.43 317.659 1382.12 318.594C1381.82 319.528 1382.51 318.83 1383.66 317.043C1384.81 315.255 1386.66 313.725 1387.76 313.643C1388.87 313.56 1390.33 313.448 1391 313.393C1391.67 313.338 1392.79 314.418 1393.48 315.793C1394.18 317.168 1394.75 317.73 1394.76 317.043C1394.77 316.355 1395.45 315.793 1396.28 315.793C1397.1 315.793 1397.78 315.343 1397.78 314.793C1397.78 312.959 1399.96 313.764 1400.49 315.793C1400.79 316.927 1401.85 317.793 1402.95 317.793C1404.02 317.793 1404.61 317.334 1404.27 316.775C1403.92 316.216 1403.18 316.042 1402.63 316.387C1402.07 316.731 1402.34 315.598 1403.24 313.869C1405.11 310.258 1407.16 310.759 1406.58 314.686C1406.24 316.985 1406.53 317.327 1408.74 317.238C1410.44 317.17 1411.71 316.257 1412.59 314.461C1414.27 311.009 1413.27 309.493 1409.66 310.023C1407.63 310.322 1406.78 310.023 1406.78 309.012C1406.78 308.149 1407.38 307.808 1408.28 308.154C1409.19 308.506 1410.4 307.771 1411.39 306.268C1413.2 303.497 1412.61 300.538 1410.41 301.383C1408.56 302.091 1407.47 298.852 1408.36 295.305C1408.85 293.354 1408.67 292.697 1407.66 292.838C1404.8 293.236 1403.91 292.732 1404.05 290.793C1404.14 289.693 1404.75 288.793 1405.42 288.793C1406.09 288.793 1406.91 287.951 1407.24 286.924C1407.56 285.896 1408.8 284.209 1409.97 283.174C1411.92 281.47 1412.06 281.459 1411.48 283.043C1411.13 284.005 1411.11 285.513 1411.46 286.393C1411.92 287.598 1412.46 287.14 1413.67 284.537C1414.56 282.638 1415.9 280.345 1416.65 279.439C1417.69 278.195 1417.72 277.793 1416.78 277.793C1415.79 277.793 1415.79 277.487 1416.77 276.303C1417.84 275.009 1418.25 275.124 1419.87 277.182C1420.89 278.485 1422.83 279.761 1424.18 280.018C1426.53 280.468 1426.56 280.399 1425.08 278.139C1424.24 276.848 1423.2 275.793 1422.77 275.793C1421.14 275.793 1420.8 272.435 1422.28 270.898C1423.13 270.015 1424.75 268.051 1425.88 266.533C1427.01 265.015 1428.35 264.029 1428.86 264.342C1429.36 264.654 1429.78 264.301 1429.78 263.557C1429.78 262.812 1433.14 257.723 1437.24 252.248C1454.59 229.112 1461.93 207.941 1458.42 191.154C1455.46 176.986 1449.83 170.083 1438.41 166.611C1429.48 163.9 1414.7 164.484 1400.78 168.098C1395.55 169.454 1391.14 170.435 1390.96 170.279C1390.79 170.123 1416.66 151.668 1448.46 129.268C1480.26 106.867 1506.72 88.1337 1507.25 87.6387C1507.79 87.1437 1506.89 87.1791 1505.25 87.7188C1497.46 90.2871 1389.76 121.793 1388.78 121.793C1388.16 121.793 1393.62 115.155 1400.92 107.043C1408.22 98.9305 1417.81 88.2533 1422.23 83.3164L1430.28 74.3398ZM315.217 98.793C326.833 98.793 329.67 99.0687 330.121 100.244C330.441 101.078 326.916 107.374 321.845 115.027C312.684 128.855 308.78 132.648 300.927 135.354C298.75 136.104 292.305 137.018 286.605 137.387C278.057 137.939 276.025 137.797 275.004 136.566C273.747 135.052 274.145 134.351 291.99 106.75C293.961 103.701 296.766 100.664 298.222 100C299.897 99.2368 306.144 98.793 315.217 98.793ZM691.5 98.793C706.086 98.793 706.777 98.8828 706.777 100.783C706.777 103.49 693.052 124.39 688.207 129.061C686.057 131.133 681.958 133.704 679.095 134.775C675.755 136.025 670.199 136.911 663.584 137.248C653.244 137.775 650.777 137.467 650.777 135.648C650.777 133.902 671.998 101.752 674.142 100.25C675.744 99.1284 679.739 98.793 691.5 98.793ZM79.3884 110.178C78.59 110.437 75.0333 115.533 72.9021 119.543C71.788 121.639 71.9099 121.793 74.6716 121.793C77.4647 121.793 77.7013 121.47 78.7927 116.213C79.4297 113.144 79.754 110.436 79.5114 110.193C79.484 110.166 79.4416 110.16 79.3884 110.178V110.178ZM76.1091 124.113C75.4498 124.075 74.1118 124.189 72.6657 124.424C69.6211 124.918 68.5435 125.96 64.4685 132.352C61.8879 136.399 59.7771 139.943 59.7771 140.227C59.7771 140.511 60.7896 140.361 62.0271 139.893C63.2646 139.425 66.5672 138.729 69.3669 138.346L74.4567 137.648L75.6638 131.102C76.3273 127.5 76.7134 124.395 76.5212 124.203C76.4732 124.155 76.3289 124.126 76.1091 124.113V124.113ZM81.1989 124.557C80.0995 124.576 79.3881 124.772 79.2595 125.182C78.7099 126.93 76.7771 136.786 76.7771 137.842C76.7771 138.365 77.5973 138.793 78.5993 138.793C87.2548 138.793 100.047 149.07 103.197 158.553C104.154 161.435 105.071 163.793 105.232 163.793C105.394 163.793 107.882 160.205 110.761 155.818L115.996 147.842L113.457 143.51C109.953 137.53 102.676 131.081 96.2087 128.221C91.2761 126.039 84.4973 124.5 81.1989 124.557ZM69.9353 150.863C68.777 150.912 66.7861 151.565 63.5642 152.771C57.0016 155.229 51.3648 159.798 47.6345 165.68C44.1206 171.22 44.0413 172.793 47.2771 172.793C48.8885 172.793 49.7771 173.355 49.7771 174.373C49.7771 175.603 49.1222 175.808 46.8142 175.301C44.1827 174.723 43.7736 174.959 43.1579 177.412C42.3092 180.794 44.1609 188.118 46.8024 191.828C47.8779 193.339 50.6744 195.533 53.0173 196.705C58.7465 199.572 62.1777 199.157 62.5935 195.543C62.7675 194.03 63.4764 192.793 64.1696 192.793C65.011 192.793 65.2788 193.826 64.9743 195.9C64.5246 198.964 64.5666 198.998 67.8981 198.277C76.6398 196.386 85.5191 189.381 89.6521 181.117L91.7399 176.943L88.7595 176.289C84.8186 175.423 84.9604 173.998 89.0271 173.605C91.5842 173.359 92.3484 172.782 92.6149 170.896C93.5987 163.937 87.6832 154.715 80.5837 152.143C75.2796 150.221 74.0867 150.497 73.4274 153.793C73.0974 155.443 72.3099 156.793 71.6774 156.793C70.933 156.793 70.7383 155.735 71.1267 153.793C71.5375 151.739 71.4244 150.8 69.9353 150.863ZM949.818 152.113C949.709 152.152 949.604 152.202 949.498 152.248C949.541 152.238 949.586 152.234 949.629 152.223C949.7 152.205 949.887 152.089 949.818 152.113V152.113ZM998.258 152.652C998.181 152.629 998.392 152.741 998.459 152.785C998.42 152.746 998.41 152.729 998.375 152.693C998.335 152.681 998.297 152.665 998.258 152.652V152.652ZM995.718 152.773C995.632 152.775 995.561 152.781 995.461 152.781C995.505 152.962 995.692 152.91 995.904 152.813C995.842 152.799 995.78 152.787 995.718 152.774V152.773ZM1036.38 153.139C1035.97 153.087 1035.51 153.428 1035.14 153.641C1035.53 153.438 1035.97 153.293 1036.38 153.139ZM70.1696 162.988C70.2067 162.98 70.2427 162.982 70.2771 162.992C71.3778 163.323 71.3779 163.436 70.3298 169.543L69.6013 173.793H75.1892C78.2625 173.793 80.7771 174.243 80.7771 174.793C80.7771 175.347 78.1334 175.793 74.8474 175.793H68.9196L67.7771 181.293C66.4899 187.493 64.1456 189.097 65.2185 183.043C65.584 180.981 66.1154 178.506 66.3981 177.543C66.8443 176.024 66.1749 175.793 61.3435 175.793C57.1557 175.793 55.7771 175.435 55.7771 174.348C55.7771 173.234 57.0845 172.947 61.4841 173.098L67.1911 173.293L68.2341 167.992C68.7718 165.259 69.6133 163.11 70.1696 162.988L70.1696 162.988ZM1128.39 164.646C1108.4 164.665 1088.64 165.201 1087.16 166.234C1084.25 168.275 1074.46 183.473 1075.24 184.74C1075.67 185.436 1085.45 185.798 1104.09 185.809C1119.59 185.817 1132.89 186.211 1133.63 186.684C1136.17 188.287 1131.51 196.243 1126.42 199C1125.04 199.747 1115.17 200.367 1098.78 200.74L1073.28 201.32L1066.78 204.807C1057.7 209.676 1049.82 218.004 1038.87 234.293C1028.1 250.321 1024.8 256.784 1024.79 261.908C1024.77 266.208 1027.78 270.449 1032.19 272.371C1035.97 274.015 1069.34 274.319 1074.95 272.762C1076.97 272.201 1080.9 269.688 1083.7 267.176C1086.49 264.663 1088.78 262.787 1088.78 263.006C1088.78 263.225 1087.65 264.929 1086.28 266.793C1084.9 268.657 1083.78 270.993 1083.78 271.986C1083.78 273.658 1085.07 273.793 1101.22 273.793C1117.92 273.793 1118.77 273.697 1121.11 271.543C1123.22 269.601 1138.59 246.298 1164.04 206.453C1180.25 181.063 1182.04 170.803 1171.06 166.154C1168.63 165.125 1148.39 164.628 1128.39 164.646ZM830.033 164.707L827.009 167.25C823.502 170.201 759.637 268.069 758.982 271.496C758.544 273.787 758.567 273.793 770.525 273.793C780.974 273.793 782.832 273.539 785.039 271.803C786.431 270.708 799.429 251.594 813.924 229.33L840.277 188.852L852.828 188.822C860.841 188.804 865.784 189.2 866.504 189.92C868.514 191.93 868.957 191.184 834.621 243.461C824.806 258.404 816.777 271.341 816.777 272.211C816.777 273.605 819.38 273.793 838.72 273.793C860.076 273.793 860.732 273.733 863.144 271.543C866.811 268.216 914.813 194.202 916.947 188.586C920.523 179.175 918.597 171.512 911.595 167.293C908.451 165.398 906.218 165.278 869.154 165L830.033 164.707ZM947.888 164.793L945.414 167.043C942.445 169.742 852.777 307.31 852.777 309.166C852.777 309.878 853.076 310.76 853.443 311.127C854.674 312.358 885.509 311.871 888.351 310.576C890.172 309.747 895.829 302.046 906.148 286.348C916.882 270.019 921.365 263.943 921.58 265.438C921.747 266.596 923.021 268.612 924.41 269.918C926.924 272.281 927.063 272.295 954.254 272.588C979.731 272.863 981.991 272.742 987.754 270.801C998.877 267.054 1009.91 258.675 1017.19 248.455C1025.25 237.129 1056.88 187.79 1058.82 183.514C1061.15 178.373 1061.31 172.999 1059.22 170.01C1055.54 164.764 1055.87 164.793 999.883 164.793H947.888ZM762.402 164.893C758.307 164.91 753.697 164.948 748.5 165C713.809 165.346 712.039 165.456 706.674 167.594C703.592 168.821 699.465 171.28 697.502 173.059C692.865 177.259 638.741 261.239 638.091 265.24C637.741 267.403 638.228 269.096 639.759 271.043L641.922 273.793H682.875C721.291 273.793 724.181 273.669 729.529 271.789C742.136 267.358 757.22 254.813 765.597 241.793C768.605 237.118 777.939 222.718 786.34 209.793C794.74 196.868 801.924 185.051 802.304 183.535C803.382 179.242 801.962 174.073 798.677 170.332C794.584 165.669 791.07 164.767 762.402 164.893ZM613.466 164.897C605.67 164.912 603.154 165.281 601.277 166.275C599.065 167.447 590.525 179.737 568.777 213.045C529.899 272.587 530.53 271.585 531.261 272.768C531.66 273.413 539.213 273.793 551.613 273.793C567.464 273.793 571.749 273.501 573.459 272.303C574.629 271.483 583.828 258.096 593.902 242.553C614.191 211.25 620.24 204.151 631.234 198.738C635.164 196.804 640.452 195.216 645.168 194.555L652.767 193.488L657.961 196.715C662.325 199.428 663.526 199.773 665.498 198.875C667.937 197.764 686.983 169.615 687.172 166.842C687.259 165.559 685.558 165.237 677.277 164.967C659.44 164.384 650.337 167.215 639.623 176.682C637.063 178.943 634.688 180.793 634.343 180.793C633.999 180.793 635.769 177.796 638.277 174.133C640.785 170.47 642.674 166.982 642.474 166.383C642.235 165.662 635.706 165.189 623.195 164.988C619.251 164.925 616.065 164.891 613.466 164.897ZM30.3962 184.74L25.1657 192.969C20.1008 200.937 19.9808 201.288 21.4118 204.055C23.4309 207.959 29.465 214.53 34.1774 217.957C37.8229 220.608 38.7081 220.793 47.7575 220.793H57.4392L58.4724 216.277C59.4798 211.875 59.4419 211.75 56.8923 211.209C44.253 208.529 35.5683 201.15 32.0993 190.145L30.3962 184.74ZM717.808 186.793H734.824C749.09 186.793 751.933 187.036 752.42 188.305C753.286 190.563 727.594 229.553 719.396 238.42C711.163 247.326 706.288 250.367 697.14 252.305C682.558 255.394 673.17 253.697 675.935 248.473C679.652 241.45 712.443 191.832 714.881 189.543L717.808 186.793ZM990.773 186.793C1002.08 186.793 1008.9 187.176 1009.3 187.834C1010.36 189.545 984.241 229.213 979.047 233.785C973.055 239.059 963.99 243.444 955.277 245.281C947.294 246.965 935.19 247.271 934.289 245.813C933.956 245.274 934.134 243.993 934.685 242.963C938.074 236.63 968.382 190.894 970.416 189.043C972.786 186.886 973.625 186.793 990.773 186.793ZM100.873 187.793L97.8513 192.184C91.0875 202.015 79.9523 209.077 68.1228 211.037C62.437 211.979 61.677 212.379 61.1657 214.693C60.85 216.123 60.3778 218.081 60.1169 219.043C59.6865 220.63 60.6382 220.793 70.363 220.793C80.8326 220.793 81.2401 220.708 87.6814 217.139C95.6685 212.713 108.153 200.387 112.09 193.041L114.902 187.793H107.886H100.873ZM18.2849 204.475C17.5258 204.584 16.4023 206.258 13.8356 210.578C11.4665 214.566 9.8161 218.451 10.1364 219.285C10.6064 220.51 12.9195 220.793 22.4782 220.793H34.2419L30.5466 218.283C27.2427 216.038 22.1825 210.201 19.195 205.192C18.8999 204.697 18.6299 204.425 18.2849 204.475ZM1086.15 214.793H1101.96C1116.38 214.793 1117.78 214.948 1117.78 216.549C1117.78 217.515 1113.95 224.038 1109.27 231.045C1099.97 244.973 1094.56 249.729 1085.78 251.723C1080.01 253.032 1063.08 253.097 1062.29 251.812C1061.96 251.274 1062.2 249.87 1062.83 248.691C1065.62 243.475 1081.23 220.03 1083.57 217.543L1086.15 214.793ZM1464.85 234.936C1464.56 234.928 1464.21 235.024 1463.83 235.262C1463.23 235.63 1463.03 236.389 1463.37 236.949C1463.79 237.632 1464.36 237.614 1465.07 236.897C1466.04 235.934 1465.72 234.961 1464.85 234.936V234.936ZM1474.15 239.232C1473.87 239.253 1473.6 239.307 1473.35 239.402C1471.76 240.011 1471.21 242.894 1472.44 244.127C1474.02 245.703 1478.78 244.271 1478.78 242.221C1478.78 240.651 1476.14 239.088 1474.15 239.232ZM1453.72 254.297C1453.25 254.27 1453.16 254.619 1453.44 255.344C1454.08 257.024 1454.45 257.139 1455.21 255.898C1455.52 255.406 1455.12 254.754 1454.32 254.449C1454.08 254.357 1453.88 254.306 1453.72 254.297ZM1433.78 263.793C1433.23 263.793 1432.78 264.243 1432.78 264.793C1432.78 265.343 1433.23 265.793 1433.78 265.793C1434.33 265.793 1434.78 265.343 1434.78 264.793C1434.78 264.243 1434.33 263.793 1433.78 263.793ZM525.066 281.793L520.857 287.793L516.65 293.793H605.213C653.923 293.793 693.777 294.025 693.777 294.309C693.777 294.592 689.727 301.085 684.777 308.738C679.827 316.392 675.777 322.91 675.777 323.223C675.777 324.038 1085.93 323.79 1087.99 322.973C1089.42 322.402 1114.78 283.931 1114.78 282.326C1114.78 282.033 1069.63 281.793 1014.45 281.793H914.129L904.203 296.49C898.744 304.574 893.008 312.111 891.457 313.24C888.914 315.091 886.914 315.323 871.131 315.607C856.45 315.872 853.234 315.668 851.201 314.336C847.077 311.634 848.006 308.068 856.086 295.584C860.105 289.373 863.732 283.73 864.144 283.043C864.743 282.045 830.645 281.793 694.98 281.793H525.066ZM1424.48 286.162C1424.19 286.133 1423.88 286.286 1423.55 286.619C1423 287.169 1422.88 288.147 1423.28 288.793C1423.76 289.576 1424.34 289.633 1425 288.967C1425.55 288.417 1425.68 287.439 1425.28 286.793C1425.04 286.402 1424.77 286.191 1424.48 286.162ZM822.076 288.783C823.269 288.815 822.587 289.802 814.283 303.555L806.289 316.793H801.533C798.917 316.793 796.777 316.68 796.777 316.543C796.778 316.405 798.103 311.355 799.722 305.32C801.342 299.286 802.519 294.201 802.338 294.02C802.156 293.838 798.964 298.887 795.244 305.24C790.179 313.891 787.977 316.793 786.474 316.793C784.654 316.793 784.606 316.631 785.978 315.043C786.81 314.08 790.764 307.78 794.763 301.043L802.035 288.793H806.972C811.207 288.793 811.839 289.043 811.394 290.543C809.541 296.799 806.746 309.094 807.097 309.445C807.329 309.677 810.325 305.126 813.756 299.33C817.193 293.523 820.653 288.793 821.466 288.793C821.697 288.793 821.905 288.783 822.076 288.783V288.783ZM709.119 288.793H712.974H716.83L713.332 293.988C711.408 296.846 710.034 299.385 710.281 299.631C710.527 299.878 713.658 297.506 717.238 294.363C721.591 290.542 724.44 288.756 725.838 288.971C727.603 289.243 727.166 289.871 723.023 293.02L718.121 296.746L716.281 306.77L714.441 316.793H710.109C707.726 316.793 705.782 316.681 705.789 316.543C705.796 316.406 706.465 313.818 707.277 310.793C708.089 307.768 708.758 305.103 708.765 304.869C708.803 303.532 703.279 309.886 701.66 313.043C699.934 316.408 699.336 316.793 695.832 316.793H691.925L700.523 302.793L709.119 288.793ZM738.871 288.793H742.59L733.996 302.793C725.433 316.743 725.389 316.793 721.683 316.793H717.965L726.558 302.793C735.121 288.843 735.165 288.793 738.871 288.793ZM792.847 288.793H796.595L788.101 302.793C779.781 316.508 779.537 316.793 776.109 316.793C774.184 316.793 772.76 316.412 772.943 315.946C773.126 315.479 776.837 309.179 781.189 301.946C789.083 288.823 789.109 288.793 792.847 288.793ZM838.414 288.793C843.014 288.793 846.769 289.131 846.761 289.543C846.709 292.107 844.563 293.075 838.709 293.18L832.429 293.293L827.179 301.793C824.291 306.468 821.893 310.631 821.851 311.043C821.81 311.456 822.871 311.793 824.209 311.793C825.752 311.793 827.397 310.732 828.709 308.889C831.138 305.477 831.394 303.342 829.277 304.155C827.442 304.859 827.402 303.872 829.17 301.543C830.153 300.248 831.934 299.793 836.029 299.793H841.558L836.492 308.293C832.003 315.823 831.096 316.793 828.543 316.793C826.701 316.793 825.903 316.396 826.338 315.694C826.832 314.894 826.457 314.894 824.963 315.694C822.715 316.896 815.509 317.193 814.443 316.127C814.076 315.76 813.777 314.767 813.777 313.92C813.777 311.765 824.028 294.816 827.326 291.518C829.857 288.986 830.642 288.793 838.414 288.793ZM920.127 288.793H923.929H927.732L924.756 293.488C921.083 299.279 921.056 300.009 924.527 299.61C926.688 299.361 927.879 298.168 930.09 294.043C932.744 289.09 933.124 288.793 936.799 288.793H940.695L932.736 302.043C928.36 309.331 924.655 315.664 924.504 316.117C924.352 316.571 922.571 316.796 920.547 316.617L916.867 316.293L920.299 310.793C922.186 307.768 923.741 304.926 923.754 304.477C923.766 304.028 922.542 303.803 921.033 303.977C918.839 304.23 917.585 305.541 914.783 310.516C911.445 316.441 911.093 316.74 907.443 316.766C905.335 316.781 903.76 316.456 903.943 316.043C904.126 315.631 907.842 309.331 912.201 302.043L920.127 288.793ZM972.041 288.793H981.41C987.189 288.793 990.777 289.189 990.777 289.826C990.777 292.249 985.539 300.908 982.888 302.867C980.676 304.503 979.716 306.371 978.756 310.897L977.504 316.793H973.64C969.21 316.793 969.051 316.275 971.388 309.416C974.25 301.017 971.181 302.094 966.277 311.209C963.432 316.496 963.077 316.786 959.412 316.789C955.638 316.792 955.581 316.74 957.006 314.543C957.808 313.306 961.52 307.006 965.254 300.543L972.041 288.793ZM1001.78 288.793C1004.53 288.793 1006.78 289.19 1006.78 289.674C1006.78 290.159 1005.66 293.534 1004.28 297.174C1002.91 300.815 1001.98 303.793 1002.22 303.793C1002.45 303.793 1005.43 300.418 1008.84 296.293C1014.97 288.885 1015.1 288.793 1019.79 288.793H1024.54L1016.66 302.043C1012.33 309.331 1008.66 315.664 1008.51 316.117C1008.35 316.571 1006.57 316.796 1004.54 316.617L1000.85 316.293L1003.63 311.793C1007.83 304.984 1012.97 295.793 1012.57 295.793C1012.38 295.793 1008.41 300.499 1003.75 306.252C997.622 313.817 994.654 316.723 993.027 316.752C991.79 316.774 990.777 316.428 990.777 315.981C990.777 315.534 992.124 311.182 993.771 306.309C995.418 301.436 996.602 297.284 996.4 297.082C996.198 296.881 993.452 301.233 990.299 306.754C987.145 312.275 983.938 316.793 983.172 316.793C982.405 316.793 981.777 316.624 981.777 316.418C981.777 316.213 985.152 310.262 989.277 303.194C993.402 296.125 996.777 289.993 996.777 289.567C996.777 289.141 999.028 288.793 1001.78 288.793ZM1039.47 288.793C1046.59 288.793 1047.78 289.032 1047.78 290.479C1047.78 293.26 1036.99 311.438 1033.69 314.213C1030.99 316.48 1029.72 316.793 1023.17 316.793C1017.45 316.793 1015.58 316.442 1015.14 315.287C1014.42 313.425 1023.85 296.488 1028.08 292.043C1031.08 288.886 1031.4 288.793 1039.47 288.793ZM1059.13 288.793H1064.49L1062.1 298.928C1060.79 304.502 1059.9 309.249 1060.13 309.479C1060.36 309.708 1063.19 305.156 1066.41 299.362C1070.25 292.461 1072.86 288.82 1073.98 288.809C1075.27 288.796 1073.73 292.159 1067.6 302.793L1059.53 316.793H1055.15C1049.94 316.793 1049.97 316.961 1052.88 304.6C1054.03 299.682 1054.8 295.48 1054.58 295.264C1054.05 294.734 1042.78 314.212 1042.78 315.656C1042.78 316.282 1041.88 316.793 1040.78 316.793C1039.68 316.793 1038.78 316.639 1038.78 316.451C1038.78 316.264 1042.15 310.328 1046.28 303.26C1050.4 296.192 1053.78 290.044 1053.78 289.6C1053.78 289.156 1056.19 288.793 1059.13 288.793ZM1083.25 288.793H1087.73L1087.19 292.043C1086.89 293.831 1086.42 296.418 1086.15 297.793C1085.72 299.907 1086.55 299.404 1091.49 294.543C1094.85 291.237 1098.22 288.793 1099.43 288.793C1101.03 288.793 1099.42 290.847 1092.58 297.541C1087.66 302.353 1082.29 308.653 1080.63 311.541C1077.93 316.271 1077.29 316.793 1074.2 316.793C1072.32 316.793 1070.78 316.587 1070.78 316.336C1070.78 316.085 1072.1 313.638 1073.71 310.897C1076.21 306.657 1078.78 295.94 1078.78 289.721C1078.78 289.211 1080.79 288.793 1083.25 288.793ZM752.086 288.826C754.879 288.802 755.691 289.126 755.131 290.043C754.71 290.731 751.541 295.793 748.09 301.293L741.814 311.293L746.324 311.793C750.777 312.287 750.813 312.321 749.248 314.543C747.828 316.558 746.824 316.793 739.636 316.793C735.222 316.793 731.76 316.436 731.943 316C732.126 315.564 735.877 309.279 740.277 302.033C748.271 288.87 748.28 288.86 752.086 288.826ZM772.027 288.84C774.09 288.814 775.777 288.965 775.777 289.174C775.777 289.383 772.855 294.221 769.283 299.924C765.711 305.627 762.786 310.631 762.783 311.043C762.78 311.456 764.577 311.793 766.777 311.793C771.176 311.793 771.72 312.631 768.949 315.139C767.579 316.378 765.18 316.793 759.392 316.793H751.664L753.97 312.996C755.239 310.909 758.977 304.63 762.277 299.043C768.166 289.074 768.346 288.886 772.027 288.84ZM956.634 288.85C960.088 288.804 960.873 289.101 960.422 290.276C960.109 291.091 958.184 297.391 956.144 304.276L952.435 316.793H948.158H943.879L945.328 313.325C946.125 311.417 946.777 309.617 946.777 309.325C946.777 309.032 944.791 308.793 942.365 308.793C938.667 308.793 937.535 309.29 935.365 311.87C933.941 313.562 932.777 315.362 932.777 315.87C932.777 316.377 931.604 316.793 930.17 316.793C927.783 316.793 928.273 316.024 935.92 307.766C940.517 302.802 946.077 296.528 948.277 293.825C951.933 289.332 952.653 288.903 956.634 288.85ZM1417 289.868C1416.93 289.856 1416.84 289.856 1416.75 289.87C1416.51 289.905 1416.2 290.033 1415.83 290.262C1415.23 290.63 1415.03 291.399 1415.39 291.969C1415.8 292.641 1416.32 292.538 1416.85 291.678C1417.5 290.625 1417.5 289.949 1417 289.868V289.868ZM979.492 292.793C977.515 292.793 973.777 296.983 973.777 299.198C973.777 300.949 978.742 299.495 980.162 297.329C982.364 293.967 982.19 292.793 979.492 292.793ZM1036.17 292.793C1034.37 292.793 1032.83 294.596 1028.84 301.387C1026.05 306.114 1023.78 310.389 1023.78 310.887C1023.78 311.385 1025.03 311.793 1026.57 311.793C1029.03 311.793 1029.95 310.747 1034.47 302.86C1037.28 297.947 1039.32 293.672 1039.01 293.36C1038.7 293.048 1037.42 292.793 1036.17 292.793ZM1413.78 292.793C1413.23 292.793 1412.78 293.468 1412.78 294.293C1412.78 295.118 1413.23 295.793 1413.78 295.793C1414.33 295.793 1414.78 295.118 1414.78 294.293C1414.78 293.468 1414.33 292.793 1413.78 292.793ZM950.918 295.293L946.847 299.247C944.609 301.421 942.777 303.558 942.777 303.997C942.777 304.435 943.886 304.793 945.242 304.793C947.842 304.793 949.045 303.218 950.209 298.293L950.918 295.293ZM1410.78 295.793C1410.23 295.793 1409.78 296.243 1409.78 296.793C1409.78 297.343 1410.23 297.793 1410.78 297.793C1411.33 297.793 1411.78 297.343 1411.78 296.793C1411.78 296.243 1411.33 295.793 1410.78 295.793ZM1437.78 301.793C1437.23 301.793 1436.78 302.468 1436.78 303.293C1436.78 304.118 1437.23 304.793 1437.78 304.793C1438.33 304.793 1438.78 304.118 1438.78 303.293C1438.78 302.468 1438.33 301.793 1437.78 301.793ZM1405.34 312.793C1405.09 312.793 1404.62 313.243 1404.28 313.793C1403.94 314.343 1404.14 314.793 1404.72 314.793C1405.3 314.793 1405.78 314.343 1405.78 313.793C1405.78 313.243 1405.58 312.793 1405.34 312.793ZM1326.84 314.793C1326.25 314.793 1325.78 315.243 1325.78 315.793C1325.78 316.343 1325.98 316.793 1326.22 316.793C1326.46 316.793 1326.94 316.343 1327.28 315.793C1327.62 315.243 1327.42 314.793 1326.84 314.793ZM1330.55 319.854C1330.04 319.854 1329.78 320.167 1329.78 320.793C1329.78 321.343 1330.79 321.786 1332.03 321.778C1333.85 321.765 1333.99 321.577 1332.78 320.793C1331.81 320.167 1331.06 319.854 1330.55 319.854ZM1423.78 320.793C1423.23 320.793 1422.78 321.243 1422.78 321.793C1422.78 322.343 1423.23 322.793 1423.78 322.793C1424.33 322.793 1424.78 322.343 1424.78 321.793C1424.78 321.243 1424.33 320.793 1423.78 320.793ZM1372.4 322.182C1372.03 322.194 1371.78 322.592 1371.78 323.235C1371.78 324.991 1372.38 325.249 1373.23 323.862C1373.55 323.35 1373.35 322.649 1372.79 322.303C1372.65 322.217 1372.52 322.178 1372.4 322.182ZM1424.98 326.163C1424.66 326.186 1424.38 326.674 1423.86 327.645C1423.26 328.754 1422.78 330.232 1422.78 330.928C1422.78 331.864 1423.07 331.9 1423.9 331.071C1424.52 330.454 1425.64 330.188 1426.4 330.479C1428.15 331.15 1428.11 329.824 1426.32 327.461C1425.66 326.579 1425.3 326.139 1424.98 326.163H1424.98ZM1440.84 329.77C1440.63 329.75 1440.4 329.835 1440.18 330.059C1439.85 330.389 1439.93 331.231 1440.36 331.928C1440.99 332.948 1441.23 332.946 1441.56 331.932C1441.93 330.845 1441.47 329.831 1440.84 329.77V329.77ZM1386.19 340.071C1385.88 340.085 1385.78 340.627 1385.78 341.793C1385.78 343.66 1386.04 343.926 1386.98 342.993C1387.91 342.059 1387.91 341.526 1386.98 340.592C1386.63 340.242 1386.37 340.062 1386.19 340.071ZM1407.78 341.793C1407.23 341.793 1406.78 342.693 1406.78 343.793C1406.78 344.893 1407.23 345.793 1407.78 345.793C1408.33 345.793 1408.78 344.893 1408.78 343.793C1408.78 342.693 1408.33 341.793 1407.78 341.793ZM1393.78 343.793C1393.23 343.793 1392.78 344.495 1392.78 345.352C1392.78 346.21 1393.23 346.633 1393.78 346.293C1394.33 345.954 1394.78 345.252 1394.78 344.735C1394.78 344.217 1394.33 343.793 1393.78 343.793Z" fill="black"/>
<path d="M1074.18 354.372C1106.06 324.343 1129.24 304.527 1160.07 280.963C1184.65 262.17 1189.48 258.721 1190.2 259.44C1190.48 259.725 1188.71 262.942 1186.25 266.589C1172.43 287.114 1172.51 299.629 1186.51 306.841C1191.86 309.6 1194.49 310.028 1208.46 310.411C1233.94 311.11 1267.89 304.777 1298.17 293.673C1315.72 287.238 1346.08 272.074 1360.06 262.762C1374.59 253.08 1391.62 236.685 1395.09 229.03C1399.32 219.705 1398.2 209.337 1392.26 202.963C1387.39 197.729 1382.64 196.069 1372.6 196.092C1361.02 196.118 1350.93 198.677 1333.86 205.914C1326.63 208.978 1320.51 211.282 1320.26 211.033C1320.01 210.784 1334.65 197.616 1352.79 181.772C1370.92 165.928 1386.89 151.682 1388.27 150.115L1390.78 147.265L1387.65 148.227C1385.92 148.756 1368.49 155.335 1348.92 162.848C1329.34 170.361 1313.1 176.287 1312.83 176.016C1312.4 175.588 1342.8 149.375 1400.8 100.167C1409.76 92.566 1417.31 86.5658 1417.58 86.8338C1417.85 87.1019 1413.32 92.5609 1407.52 98.9649C1393.09 114.888 1388.9 119.902 1388.9 121.243C1388.9 121.871 1391.58 121.617 1394.86 120.678C1398.13 119.739 1423.29 112.389 1450.76 104.346C1478.24 96.3026 1500.95 89.9566 1501.24 90.2437C1501.52 90.5309 1478.13 107.495 1449.25 127.942C1420.37 148.388 1395.4 166.287 1393.76 167.717L1390.78 170.316L1394.54 169.774C1396.61 169.476 1403.66 168.259 1410.22 167.069C1428.26 163.791 1441.45 165.989 1449.4 173.6C1453.23 177.269 1457.19 186.762 1458.46 195.295C1459.54 202.509 1456.68 216.206 1451.92 226.682C1447.81 235.72 1429.9 262.692 1426.32 265.226C1423.55 267.185 1420.39 273.06 1421.08 274.97C1421.35 275.717 1420.57 276.281 1419.34 276.224C1418.11 276.168 1416.98 276.55 1416.82 277.075C1416.67 277.599 1415.66 279.715 1414.6 281.777C1412.61 285.628 1410.63 287.006 1411.92 283.644C1413.09 280.591 1410.88 281.485 1407.29 285.514C1403.59 289.666 1402.93 293.048 1405.83 293.048C1407.14 293.048 1407.71 294.372 1407.71 297.437C1407.71 300.502 1408.27 301.826 1409.59 301.826C1412.7 301.826 1411.73 304.742 1407.25 308.85C1404.93 310.98 1402.71 313.515 1402.33 314.484C1401.73 315.987 1401.44 315.981 1400.38 314.445C1399.32 312.932 1398.8 312.914 1397.09 314.329C1395.55 315.605 1394.71 315.661 1393.61 314.562C1391.55 312.499 1386.92 312.766 1384.6 315.081C1383.52 316.165 1382.63 316.555 1382.63 315.947C1382.63 315.34 1381.89 313.835 1380.99 312.602C1379.43 310.468 1379.21 310.486 1376.29 312.993C1370.45 318.007 1336.86 344.218 1336.6 343.966C1336.45 343.827 1337.15 340.97 1338.16 337.617C1346.18 310.981 1326.14 302.027 1283.57 313.222C1262 318.897 1225.06 335.5 1199.02 351.225C1191.49 355.779 1185.22 359.504 1185.09 359.504C1184.97 359.504 1184.89 353.301 1184.92 345.718C1184.96 333.09 1184.73 331.679 1182.13 328.914C1176.69 323.117 1164.38 321.782 1146.91 325.094C1127.28 328.818 1101.93 340.206 1077.38 356.331C1070.52 360.835 1064.6 364.495 1064.21 364.465C1063.83 364.435 1068.31 359.893 1074.18 354.372V354.372Z" fill="black" stroke="black" stroke-width="1.25388"/>
<path d="M1406.69 314.281C1406.65 312.818 1406.6 311.372 1406.58 311.067C1406.55 310.672 1407.43 310.513 1409.64 310.513H1412.74L1412.7 312.409C1412.65 315.022 1410.85 316.941 1408.45 316.941H1406.76L1406.69 314.281Z" fill="black" stroke="black" stroke-width="0.443314"/>
<path d="M1183.15 361.478C1183.25 361.131 1184.21 355.668 1184.23 355.312C1184.24 355.122 1184.28 356.021 1184.32 357.31C1184.37 359.442 1184.4 359.675 1184.6 359.897C1184.78 360.099 1184.89 360.128 1185.26 360.069C1185.54 360.025 1185.67 360.037 1185.6 360.1C1185.44 360.246 1183.22 361.672 1183.15 361.672C1183.12 361.672 1183.12 361.584 1183.15 361.478Z" fill="black" stroke="black" stroke-width="0.110828"/>
<path d="M1057.2 370.787C1057.2 370.561 1058.64 368.974 1061.05 366.548C1063.24 364.337 1063.62 363.996 1063.56 364.292C1063.51 364.557 1063.55 364.696 1063.73 364.874C1064.16 365.307 1064.53 365.177 1066.99 363.697C1067.65 363.302 1068.21 363.002 1068.24 363.03C1068.27 363.058 1066.83 364.113 1065.05 365.376C1063.26 366.638 1060.92 368.303 1059.85 369.076C1057.76 370.581 1057.2 370.938 1057.2 370.787Z" fill="#AA0000" stroke="#AA0000" stroke-width="0.110828"/>
<path d="M1189.87 262.129C1189.87 262.094 1190.09 261.592 1190.36 261.013C1190.96 259.763 1191 259.282 1190.57 258.941C1190.2 258.651 1189.7 258.649 1189.03 258.936C1188.74 259.06 1188.49 259.141 1188.46 259.118C1188.4 259.059 1192.95 256.075 1193.88 255.56C1194.29 255.333 1194.69 255.165 1194.75 255.187C1194.82 255.209 1194.34 255.974 1193.68 256.887C1193.02 257.799 1191.94 259.319 1191.27 260.263C1190.01 262.047 1189.87 262.234 1189.87 262.129V262.129Z" fill="black" stroke="black" stroke-width="0.110828"/>
<path d="M1428.92 264.347C1428.76 264.253 1428.54 264.243 1428.34 264.321C1428.25 264.352 1428.18 264.37 1428.17 264.36C1428.16 264.35 1428.33 264.131 1428.55 263.873C1429.15 263.183 1430.22 261.831 1431.16 260.591C1431.62 259.989 1432 259.507 1432.01 259.519C1432.02 259.531 1431.8 259.899 1431.51 260.337C1430.46 261.952 1429.75 263.245 1429.75 263.567C1429.75 264.217 1429.35 264.592 1428.92 264.347V264.347Z" fill="black" stroke="black" stroke-width="0.0554142"/>
<path d="M1425.15 280.165C1423.62 279.939 1422.64 279.527 1421.38 278.583C1420.88 278.204 1419.85 277.195 1419.72 276.956C1419.67 276.852 1419.68 276.843 1419.87 276.843C1420.31 276.842 1420.92 276.611 1421.27 276.314C1421.49 276.13 1421.7 275.771 1421.75 275.501L1421.79 275.295L1421.96 275.467C1422.15 275.656 1422.42 275.79 1422.62 275.792C1423.18 275.797 1424.27 276.921 1425.37 278.631C1426.32 280.11 1426.28 280.332 1425.15 280.165H1425.15Z" fill="black" stroke="black" stroke-width="0.0554142"/>
<path d="M1411.76 286.859C1411.64 286.73 1411.51 286.483 1411.45 286.289C1411.41 286.186 1411.43 286.177 1411.7 286.177C1411.92 286.177 1412.06 286.139 1412.25 286.029C1412.51 285.878 1413.04 285.382 1413.28 285.057C1413.53 284.735 1413.48 284.913 1413.16 285.516C1412.46 286.835 1412.08 287.206 1411.76 286.859Z" fill="black" stroke="black" stroke-width="0.0554142"/>
<path d="M1416.41 279.635C1416.48 279.374 1417.21 277.896 1417.27 277.896C1417.31 277.896 1417.36 277.947 1417.4 278.009C1417.48 278.157 1417.29 278.57 1416.94 279.032C1416.6 279.465 1416.39 279.713 1416.41 279.635Z" fill="black" stroke="black" stroke-width="0.0554142"/>
<path d="M1405.78 288.549C1405.97 288.182 1407.35 286.342 1407.4 286.391C1407.43 286.424 1406.99 287.463 1406.85 287.692C1406.63 288.042 1406.32 288.367 1406.04 288.545C1405.73 288.741 1405.68 288.742 1405.78 288.55V288.549Z" fill="black" stroke="black" stroke-width="0.0554142"/>
<path d="M1408.16 294.933C1408.01 294.189 1407.79 293.611 1407.48 293.21L1407.27 292.925L1407.43 292.892C1407.53 292.873 1407.73 292.858 1407.89 292.858C1408.24 292.858 1408.43 292.986 1408.53 293.284C1408.62 293.56 1408.57 294.35 1408.41 295.032L1408.28 295.571L1408.16 294.933Z" fill="black" stroke="black" stroke-width="0.0554142"/>
<path d="M1410.53 297.725C1410.42 297.695 1410.27 297.622 1410.19 297.563C1410 297.43 1409.8 297.038 1409.8 296.793C1409.8 296.547 1410 296.155 1410.18 296.023C1410.68 295.669 1411.37 295.825 1411.63 296.352C1412.01 297.089 1411.32 297.95 1410.53 297.725Z" fill="black" stroke="black" stroke-width="0.0554142"/>
<path d="M1413.3 295.545C1412.56 294.878 1412.69 293.262 1413.51 292.9C1413.92 292.717 1414.28 292.896 1414.56 293.433C1414.69 293.686 1414.71 293.777 1414.71 294.275C1414.71 294.786 1414.7 294.859 1414.54 295.16C1414.23 295.767 1413.72 295.925 1413.3 295.545Z" fill="black" stroke="black" stroke-width="0.0554142"/>
<path d="M1415.63 292.222C1415.4 292.022 1415.22 291.569 1415.25 291.247C1415.3 290.675 1415.75 290.225 1416.53 289.97C1416.96 289.829 1417.18 289.88 1417.29 290.152C1417.42 290.462 1417.13 291.259 1416.68 291.863C1416.3 292.373 1415.95 292.491 1415.63 292.222Z" fill="black" stroke="black" stroke-width="0.0554142"/>
<path d="M1423.85 289.316C1423.41 289.121 1423.08 288.516 1423.08 287.926C1423.08 287.433 1423.23 287.046 1423.53 286.706C1424.11 286.064 1424.67 286.038 1425.12 286.634C1425.54 287.174 1425.59 287.859 1425.26 288.516C1425.07 288.916 1424.68 289.268 1424.33 289.365C1424.08 289.436 1424.12 289.439 1423.85 289.316V289.316Z" fill="black" stroke="black" stroke-width="0.0554142"/>
<path d="M1409.29 307.743C1410.6 306.362 1411.52 305.011 1411.89 303.969C1412.03 303.555 1412.06 302.8 1411.94 302.452C1411.82 302.077 1411.43 301.659 1411.03 301.464L1410.72 301.309L1411 301.291C1411.43 301.264 1411.62 301.324 1411.88 301.563C1412.23 301.886 1412.37 302.244 1412.4 302.913C1412.44 303.759 1412.23 304.629 1411.79 305.52C1411.26 306.573 1410.35 307.598 1409.64 307.949C1409.41 308.061 1409.14 308.169 1409.03 308.189C1408.84 308.226 1408.84 308.223 1409.29 307.743V307.743Z" fill="black" stroke="black" stroke-width="0.0554142"/>
<path d="M1406.57 317.005C1406.55 316.936 1406.53 316.082 1406.51 315.107C1406.49 314.131 1406.45 312.797 1406.42 312.142C1406.36 310.804 1406.37 310.774 1406.76 310.579C1407.14 310.391 1407.59 310.359 1410.29 310.331L1412.97 310.303L1412.94 311.292C1412.89 312.851 1412.86 313.144 1412.72 313.709C1412.35 315.168 1411.39 316.306 1410.08 316.834C1409.48 317.078 1409.09 317.127 1407.8 317.128L1406.59 317.129L1406.57 317.005Z" fill="black" stroke="black" stroke-width="0.0554142"/>
<path d="M1406.32 311.772C1406.31 311.663 1405.98 311.459 1405.77 311.425L1405.57 311.393L1406.33 310.636L1407.1 309.88L1407.36 309.996C1407.73 310.161 1408.57 310.187 1409.53 310.061C1410.49 309.934 1411.49 309.931 1411.96 310.054C1412.65 310.237 1412.55 310.254 1410.77 310.256C1408.82 310.258 1407.42 310.331 1407 310.453C1406.84 310.498 1406.63 310.599 1406.54 310.677C1406.38 310.812 1406.37 310.838 1406.35 311.327C1406.34 311.607 1406.33 311.807 1406.32 311.771L1406.32 311.772Z" fill="black" stroke="black" stroke-width="0.0554142"/>
<path d="M1412.63 314.247C1412.63 314.231 1412.69 313.969 1412.77 313.665C1412.89 313.205 1412.92 312.914 1412.96 311.935C1412.98 311.287 1413.01 310.743 1413.03 310.726C1413.05 310.71 1413.12 310.812 1413.19 310.954C1413.43 311.459 1413.39 312.255 1413.08 313.195C1412.93 313.628 1412.64 314.315 1412.63 314.247H1412.63Z" fill="black" stroke="black" stroke-width="0.0554142"/>
<path d="M1404.29 314.611C1404.02 314.338 1404.16 313.89 1404.71 313.291C1404.89 313.094 1405.11 312.9 1405.21 312.86C1405.38 312.792 1405.4 312.796 1405.51 312.933C1405.63 313.074 1405.76 313.504 1405.76 313.782C1405.76 313.952 1405.62 314.292 1405.49 314.432C1405.2 314.759 1404.53 314.857 1404.29 314.611V314.611Z" fill="black" stroke="black" stroke-width="0.0554142"/>
<path d="M1402.63 317.727C1401.72 317.612 1400.8 316.766 1400.52 315.801C1400.48 315.668 1400.49 315.669 1400.68 315.842C1401.24 316.332 1401.78 316.368 1402.22 315.945L1402.37 315.803L1402.34 316.105C1402.3 316.481 1402.38 316.527 1402.76 316.36C1403.28 316.139 1403.81 316.255 1404.14 316.664C1404.56 317.173 1404.21 317.638 1403.33 317.73C1403.13 317.751 1402.81 317.75 1402.63 317.727L1402.63 317.727Z" fill="black" stroke="black" stroke-width="0.0554142"/>
<path d="M1396.45 315.574C1396.62 315.476 1396.94 315.256 1397.16 315.085C1397.85 314.56 1397.79 314.583 1397.75 314.834C1397.66 315.323 1397.16 315.684 1396.51 315.728L1396.14 315.753L1396.45 315.574Z" fill="black" stroke="black" stroke-width="0.0554142"/>
<path d="M1394.36 317.117C1394.14 316.875 1393.92 316.54 1393.59 315.938C1393.45 315.663 1393.27 315.346 1393.2 315.232C1393.13 315.119 1393.07 315.012 1393.07 314.996C1393.07 314.979 1393.24 315.105 1393.44 315.275C1394 315.736 1394.42 315.923 1394.96 315.954L1395.4 315.98L1395.21 316.14C1394.94 316.363 1394.8 316.619 1394.75 316.968C1394.69 317.332 1394.6 317.368 1394.36 317.117V317.117Z" fill="black" stroke="black" stroke-width="0.0554142"/>
<path d="M1382.12 318.758C1382.27 317.933 1382.27 317.376 1382.12 316.63L1382.08 316.437L1382.28 316.616C1382.4 316.714 1382.55 316.811 1382.63 316.83C1382.89 316.895 1383.31 316.816 1383.65 316.639C1383.83 316.543 1383.98 316.479 1383.98 316.497C1383.98 316.568 1382.84 318.203 1382.55 318.549C1382.16 319.011 1382.07 319.057 1382.12 318.758H1382.12Z" fill="black" stroke="black" stroke-width="0.0554142"/>
<path d="M1374.06 315.67C1374.11 315.629 1374.57 315.25 1375.09 314.827C1375.61 314.404 1376.36 313.775 1376.76 313.431C1377.17 313.086 1377.5 312.823 1377.5 312.847C1377.5 312.871 1377.46 313.012 1377.41 313.162C1377.29 313.585 1377.31 314.232 1377.47 314.838C1377.55 315.125 1377.61 315.415 1377.6 315.482C1377.58 315.596 1377.57 315.588 1377.39 315.384C1376.77 314.674 1376.63 314.615 1376.02 314.765C1375.65 314.857 1374.86 315.23 1374.36 315.555C1374.05 315.749 1373.92 315.801 1374.07 315.67L1374.06 315.67Z" fill="black" stroke="black" stroke-width="0.0554142"/>
<path d="M1372.07 324.576C1371.93 324.393 1371.86 324.143 1371.81 323.612C1371.72 322.584 1372.13 321.997 1372.72 322.306C1373.23 322.572 1373.49 323.262 1373.26 323.743C1373.04 324.202 1372.52 324.721 1372.29 324.721C1372.23 324.721 1372.14 324.656 1372.07 324.576Z" fill="black" stroke="black" stroke-width="0.0554142"/>
<path d="M1422.9 331.508C1422.77 331.302 1422.83 330.442 1423.02 329.792C1423.35 328.657 1424.17 326.963 1424.63 326.452C1424.89 326.167 1425.05 326.136 1425.31 326.322C1425.66 326.569 1426.94 328.297 1427.29 328.999C1427.61 329.629 1427.73 330.178 1427.59 330.43C1427.47 330.661 1427.04 330.674 1426.45 330.464C1426.06 330.325 1425.66 330.303 1425.22 330.395C1424.64 330.517 1424.3 330.691 1423.79 331.137C1423.13 331.703 1423.05 331.736 1422.9 331.508V331.508Z" fill="black" stroke="black" stroke-width="0.0554142"/>
<path d="M1423.41 322.681C1423.16 322.563 1422.9 322.289 1422.85 322.082C1422.83 322.006 1422.82 321.822 1422.84 321.673C1422.89 321.178 1423.27 320.842 1423.79 320.842C1424.22 320.842 1424.57 321.106 1424.71 321.537C1424.95 322.272 1424.11 323.011 1423.4 322.681H1423.41Z" fill="black" stroke="black" stroke-width="0.0554142"/>
<path d="M1407.49 345.67C1406.66 345.165 1406.58 342.785 1407.36 342.052C1407.77 341.671 1408.17 341.823 1408.48 342.471C1408.97 343.515 1408.74 345.217 1408.05 345.677C1407.85 345.806 1407.71 345.805 1407.49 345.67V345.67Z" fill="black" stroke="black" stroke-width="0.0554142"/>
<path d="M1393.19 346.319C1392.87 346.164 1392.71 345.446 1392.87 344.836C1393.05 344.139 1393.38 343.817 1393.89 343.854C1394.22 343.879 1394.41 343.996 1394.61 344.287C1394.94 344.771 1394.52 345.767 1393.79 346.23C1393.53 346.398 1393.4 346.418 1393.19 346.319V346.319Z" fill="black" stroke="black" stroke-width="0.0554142"/>
<path d="M1386.04 343.392C1385.86 343.201 1385.79 342.613 1385.82 341.543C1385.86 340.209 1385.98 339.953 1386.46 340.204C1386.69 340.32 1387.38 341.062 1387.52 341.329C1387.76 341.807 1387.62 342.278 1387.05 342.87C1386.5 343.435 1386.22 343.583 1386.04 343.392Z" fill="black" stroke="black" stroke-width="0.0554142"/>
<path d="M1440.8 332.465C1440.35 331.988 1440.07 331.39 1440.02 330.815C1439.99 330.389 1440.07 330.182 1440.36 329.961C1440.75 329.659 1441.22 329.823 1441.48 330.355C1441.62 330.634 1441.64 330.743 1441.64 331.149C1441.64 331.856 1441.34 332.646 1441.07 332.646C1441.01 332.646 1440.89 332.565 1440.8 332.465Z" fill="black" stroke="black" stroke-width="0.0554142"/>
<path d="M1437.46 304.67C1437.03 304.445 1436.74 303.73 1436.82 303.085C1436.96 301.791 1438.03 301.385 1438.55 302.43C1438.85 303.04 1438.77 303.979 1438.39 304.415C1438.07 304.775 1437.8 304.851 1437.46 304.67Z" fill="black" stroke="black" stroke-width="0.0554142"/>
<path d="M1331.3 321.688C1330.77 321.605 1330.23 321.383 1330 321.15C1329.74 320.89 1329.77 320.407 1330.07 320.107C1330.29 319.884 1330.34 319.871 1330.72 319.915C1331.21 319.971 1332.34 320.515 1333.03 321.022C1333.54 321.397 1333.63 321.568 1333.34 321.638C1332.97 321.725 1331.73 321.756 1331.3 321.688L1331.3 321.688Z" fill="black" stroke="black" stroke-width="0.0783676"/>
<path d="M1326.03 316.595C1325.83 316.372 1325.78 315.676 1325.95 315.357C1326.15 314.959 1326.69 314.759 1327.15 314.906C1327.58 315.041 1327.4 315.724 1326.76 316.375C1326.35 316.794 1326.24 316.828 1326.03 316.595H1326.03Z" fill="black" stroke="black" stroke-width="0.0783676"/>
<path d="M1334.14 346.641C1334.14 346.544 1336.52 340.737 1336.55 340.765C1336.56 340.778 1336.45 341.297 1336.3 341.918C1335.76 344.092 1335.83 344.503 1336.76 344.592C1336.96 344.611 1336.87 344.694 1335.89 345.411C1335.3 345.85 1334.66 346.32 1334.47 346.456C1334.29 346.592 1334.14 346.675 1334.14 346.641Z" fill="black" stroke="black" stroke-width="0.0783676"/>
<path d="M1433.22 265.55C1432.71 265.119 1432.69 264.516 1433.16 264.097C1434.1 263.276 1435.32 264.649 1434.41 265.501C1434.29 265.62 1434.09 265.693 1433.84 265.717C1433.52 265.748 1433.43 265.724 1433.22 265.55H1433.22Z" fill="black" stroke="black" stroke-width="0.0783676"/>
<path d="M1454.06 256.461C1453.74 256.089 1453.32 255.063 1453.35 254.701C1453.38 254.434 1453.4 254.41 1453.65 254.386C1454.07 254.346 1454.49 254.509 1454.87 254.854C1455.32 255.266 1455.37 255.526 1455.11 255.973C1454.92 256.301 1454.5 256.724 1454.36 256.724C1454.32 256.724 1454.19 256.606 1454.06 256.461Z" fill="black" stroke="black" stroke-width="0.0783676"/>
<path d="M1473.44 244.629C1472.38 244.275 1471.91 243.633 1471.85 242.442C1471.8 241.379 1472.08 240.551 1472.72 239.895C1473.17 239.425 1473.59 239.286 1474.5 239.293C1475.75 239.303 1477.02 239.838 1477.96 240.749C1479.16 241.908 1478.95 243.034 1477.36 243.987C1476.58 244.455 1475.78 244.669 1474.69 244.703C1474.05 244.724 1473.66 244.7 1473.44 244.629V244.629Z" fill="black" stroke="black" stroke-width="0.0783676"/>
<path d="M1463.87 237.367C1463.65 237.282 1463.4 236.956 1463.29 236.618C1463.11 236.09 1463.48 235.452 1464.13 235.159C1464.6 234.949 1465.04 234.944 1465.31 235.145C1465.89 235.582 1465.62 236.46 1464.68 237.158C1464.38 237.383 1464.1 237.456 1463.87 237.367V237.367Z" fill="black" stroke="black" stroke-width="0.0783676"/>
<path d="M1437.59 251.609C1437.59 251.577 1438.25 250.554 1439.06 249.337C1444.09 241.797 1449.43 233.099 1451.26 229.464C1451.42 229.147 1451.57 228.907 1451.59 228.93C1451.64 228.979 1449.77 232.659 1448.8 234.428C1446.04 239.443 1442.83 244.465 1439 249.78C1437.85 251.37 1437.59 251.705 1437.59 251.609Z" fill="black" stroke="black" stroke-width="0.0783676"/>
<path d="M1451.6 228.899C1451.57 228.881 1451.63 228.749 1451.84 228.324C1452.92 226.152 1454.14 223.178 1455.16 220.195C1456.73 215.626 1457.96 210.732 1458.66 206.3C1458.72 205.904 1458.78 205.539 1458.78 205.489C1458.8 205.424 1458.81 205.399 1458.85 205.399C1458.92 205.399 1458.92 205.442 1458.87 205.885C1458.04 212.325 1456.07 219.072 1452.93 226.152C1452.4 227.347 1451.67 228.924 1451.64 228.922C1451.64 228.922 1451.62 228.911 1451.6 228.899L1451.6 228.899Z" fill="#AA0000" stroke="#AA0000" stroke-width="0.0277071"/>
<path d="M1458.8 205.385C1458.8 205.384 1458.83 205.109 1458.88 204.774C1458.96 204.187 1459.06 203.319 1459.14 202.504L1459.18 202.116L1459.17 202.49C1459.15 203.024 1459.07 204.047 1458.96 205.071C1458.93 205.382 1458.92 205.393 1458.86 205.389C1458.83 205.387 1458.8 205.385 1458.8 205.384L1458.8 205.385Z" fill="#AA0000" stroke="#AA0000" stroke-width="0.0277071"/>
<path d="M1458.72 193.056C1458.65 192.673 1458.4 191.548 1458.25 190.922C1456.78 184.748 1454.14 178.587 1451.43 174.98C1450.75 174.07 1449.89 173.153 1449.01 172.385C1444.99 168.897 1440.01 166.698 1433.7 165.626C1433.31 165.559 1433.04 165.504 1433.11 165.503C1433.34 165.5 1434.86 165.76 1435.87 165.976C1438.25 166.485 1440.82 167.345 1443.05 168.381C1445.4 169.469 1447.5 170.838 1449.26 172.437C1449.74 172.869 1450.68 173.825 1451.09 174.298C1454.13 177.798 1456.28 182.369 1457.84 188.652C1458.25 190.302 1458.79 192.98 1458.76 193.19C1458.76 193.223 1458.74 193.162 1458.72 193.056H1458.72Z" fill="#AA0000" stroke="#AA0000" stroke-width="0.0277071"/>
<path d="M1401.77 167.858C1409.65 165.876 1418.3 164.823 1425.72 164.941C1428.17 164.979 1430.26 165.117 1432.26 165.372C1432.6 165.415 1432.93 165.456 1432.98 165.462C1433.05 165.47 1433.09 165.483 1433.09 165.5C1433.09 165.515 1433.09 165.527 1433.08 165.527C1433.08 165.527 1432.92 165.505 1432.74 165.479C1427.02 164.651 1420.31 164.822 1412.83 165.987C1411.94 166.125 1410.85 166.31 1409.65 166.527C1407.65 166.888 1407.03 167 1404.94 167.37C1402.86 167.739 1401.15 168.035 1401.12 168.033C1401.1 168.032 1401.39 167.953 1401.77 167.858L1401.77 167.858Z" fill="#AA0000" stroke="#AA0000" stroke-width="0.0195919"/>
<path d="M1404.52 96.1532C1404.52 96.1292 1412.26 89.5795 1426.42 77.6233C1428.3 76.0335 1429.85 74.7394 1429.86 74.7476C1429.87 74.7558 1428.38 76.4276 1426.56 78.4628C1419.19 86.6848 1416.15 90.0617 1416.13 90.0444C1416.12 90.0344 1416.29 89.8087 1416.5 89.5429C1417.34 88.5015 1417.89 87.7384 1418.09 87.3389C1418.32 86.8867 1418.23 86.4907 1417.85 86.2872C1417.74 86.228 1417.6 86.1799 1417.54 86.1804C1417.21 86.1832 1416.6 86.5659 1415.01 87.7543C1412.91 89.3278 1408.55 92.8392 1405.14 95.6892C1404.6 96.1388 1404.52 96.2002 1404.52 96.1532Z" fill="#AA0000" stroke="#AA0000" stroke-width="0.0391838"/>
<path d="M1482.61 104.949C1482.76 104.833 1485.11 103.125 1487.82 101.155C1498.21 93.6058 1501.74 90.9217 1501.85 90.4827C1501.95 90.0814 1501.8 89.7964 1501.43 89.6661C1501.01 89.5194 1499.9 89.7548 1495.67 90.8868C1494.08 91.3125 1492.73 91.6455 1492.68 91.6268C1492.62 91.6082 1494.24 91.1003 1496.26 90.4981C1498.29 89.8959 1501.4 88.959 1503.17 88.416C1504.94 87.873 1506.6 87.3986 1506.87 87.3618C1507.87 87.2246 1508.37 86.844 1496.19 95.4888C1484.03 104.119 1482.53 105.173 1482.43 105.166C1482.38 105.163 1482.46 105.065 1482.61 104.949Z" fill="#AA0000" stroke="#AA0000" stroke-width="0.110828"/>
<path d="M1310.5 217.848C1312.4 216.108 1333.64 197.624 1333.69 197.672C1333.71 197.691 1332.72 198.601 1331.51 199.694C1324.03 206.396 1320.14 210.009 1319.77 210.602C1319.66 210.782 1319.65 210.878 1319.71 211.165C1319.89 211.962 1320.52 211.863 1324.36 210.433C1325.18 210.126 1325.89 209.876 1325.93 209.877C1325.97 209.878 1324.59 210.595 1322.86 211.47C1321.14 212.345 1318.58 213.697 1317.18 214.474C1313.24 216.66 1310.26 218.26 1310.13 218.26C1310.09 218.26 1310.25 218.074 1310.5 217.848Z" fill="#AA0000" stroke="#AA0000" stroke-width="0.0783676"/>
<path d="M1307.47 179.054C1311.05 175.841 1333.23 156.774 1333.3 156.844C1333.32 156.864 1331.93 158.096 1330.21 159.58C1317.43 170.635 1312.34 175.228 1312.2 175.81C1312.08 176.313 1312.59 176.712 1313.22 176.612C1313.89 176.505 1317.63 175.22 1323.83 172.966C1325.87 172.224 1327.55 171.632 1327.57 171.652C1327.66 171.743 1307.55 179.322 1307.26 179.308C1307.22 179.306 1307.32 179.192 1307.47 179.054Z" fill="#AA0000" stroke="#AA0000" stroke-width="0.0783676"/>
</svg>
