<svg width="110" height="74" viewBox="0 0 110 74" fill="none" xmlns="http://www.w3.org/2000/svg">
<rect width="47" height="8" transform="matrix(0.95502 -0.296542 0.707107 0.707107 12.3052 23.6089)" fill="url(#paint0_linear)" fill-opacity="0.4"/>
<rect width="47" height="10" transform="matrix(0.95502 -0.296542 0.707107 0.707107 20.0835 31.3867)" fill="url(#paint1_linear)" fill-opacity="0.4"/>
<rect width="47" height="10" transform="matrix(0.95502 -0.296542 0.707107 0.707107 42.4629 55.0181)" fill="url(#paint2_linear)" fill-opacity="0.4"/>
<rect width="47" height="10" transform="matrix(0.95502 -0.296542 0.707107 0.707107 35.6396 46.9434)" fill="url(#paint3_linear)" fill-opacity="0.4"/>
<rect width="47" height="10" transform="matrix(0.95502 -0.296542 0.707107 0.707107 27.8618 39.165)" fill="url(#paint4_linear)" fill-opacity="0.4"/>
<rect x="3.32425" y="0.82113" width="51" height="77" transform="matrix(0.95502 -0.296542 0.707107 0.707107 -0.431102 17.5359)" stroke="white" stroke-width="4"/>
<rect width="11" height="3" transform="matrix(0.95502 -0.296542 0.707107 0.707107 16.1255 22.4224)" fill="white"/>
<rect width="11" height="3" transform="matrix(0.95502 -0.296542 0.707107 0.707107 46.4014 17.6548)" fill="white"/>
<rect width="11" height="3" transform="matrix(0.95502 -0.296542 0.707107 0.707107 33.0312 21.8066)" fill="white"/>
<rect width="11" height="3" transform="matrix(0.95502 -0.296542 0.707107 0.707107 19.6611 25.958)" fill="white"/>
<rect width="11" height="3" transform="matrix(0.95502 -0.296542 0.707107 0.707107 42.8662 14.1191)" fill="white"/>
<rect width="11" height="3" transform="matrix(0.95502 -0.296542 0.707107 0.707107 29.4956 18.271)" fill="white"/>
<defs>
<linearGradient id="paint0_linear" x1="47" y1="3.99999" x2="1" y2="3.99999" gradientUnits="userSpaceOnUse">
<stop stop-color="white" stop-opacity="0"/>
<stop offset="0.510417" stop-color="white"/>
<stop offset="1" stop-color="white" stop-opacity="0"/>
</linearGradient>
<linearGradient id="paint1_linear" x1="47" y1="4.99999" x2="1" y2="4.99999" gradientUnits="userSpaceOnUse">
<stop stop-color="white" stop-opacity="0"/>
<stop offset="0.359375" stop-color="white"/>
<stop offset="0.682292" stop-color="white"/>
<stop offset="1" stop-color="white" stop-opacity="0"/>
</linearGradient>
<linearGradient id="paint2_linear" x1="47" y1="4.99999" x2="1" y2="4.99999" gradientUnits="userSpaceOnUse">
<stop stop-color="white" stop-opacity="0"/>
<stop offset="0.359375" stop-color="white"/>
<stop offset="0.682292" stop-color="white"/>
<stop offset="1" stop-color="white" stop-opacity="0"/>
</linearGradient>
<linearGradient id="paint3_linear" x1="47" y1="4.99999" x2="1" y2="4.99999" gradientUnits="userSpaceOnUse">
<stop stop-color="white" stop-opacity="0"/>
<stop offset="0.359375" stop-color="white"/>
<stop offset="0.682292" stop-color="white"/>
<stop offset="1" stop-color="white" stop-opacity="0"/>
</linearGradient>
<linearGradient id="paint4_linear" x1="47" y1="4.99999" x2="1" y2="4.99999" gradientUnits="userSpaceOnUse">
<stop stop-color="white" stop-opacity="0"/>
<stop offset="0.359375" stop-color="white"/>
<stop offset="0.682292" stop-color="white"/>
<stop offset="1" stop-color="white" stop-opacity="0"/>
</linearGradient>
</defs>
</svg>
