<svg width="108" height="35" viewBox="0 0 108 35" fill="none" xmlns="http://www.w3.org/2000/svg">
<path fill-rule="evenodd" clip-rule="evenodd" d="M20.3613 25.4503L22.015 21.957L20.6196 21.7474L24.1506 15.39C23.9946 15.1904 23.8248 14.9982 23.6412 14.8146C22.4241 13.6009 20.8367 13 19.2453 13C18.6467 13 18.0481 13.0853 17.4683 13.2548L21.2109 16.9942C21.618 18.8673 18.8979 21.615 16.9997 21.2005L13.2571 17.4622C13.0864 18.0413 13 18.6402 13 19.2391C13 20.8277 13.6016 22.4142 14.8157 23.6279C16.1579 24.9676 17.9567 25.5695 19.7119 25.4336C19.9301 25.4168 20.1476 25.4227 20.3613 25.4503Z" fill="white"/>
<path d="M26.3712 22.1961C25.714 21.5406 25.3765 20.6284 25.4479 19.7032C25.4859 19.2148 25.4663 18.7229 25.3894 18.2383L24.4572 19.9168L25.106 20.1009L20.8796 25.5615C21.3754 25.712 21.8331 25.9827 22.2076 26.3568L23.5746 27.7213L27.7363 23.5596L26.3712 22.1961Z" fill="white"/>
<path d="M0.399902 0.44839V34.0004H17.1999C21.8079 34.0004 25.9839 32.1284 29.0079 29.1044C29.3919 28.7684 29.6799 28.3844 29.9679 28.0484C32.4639 25.1204 33.9519 21.3284 33.9519 17.2004C33.9519 7.93639 26.4159 0.44839 17.1999 0.44839H0.399902ZM6.3519 17.3679C6.3519 11.3767 11.2087 6.44839 17.1999 6.44839C23.1039 6.44839 27.9519 11.2964 27.9519 17.2004C27.9519 23.2004 23.1039 28.0484 17.1999 28.0484H16.9624C11.1024 28.0484 6.3519 23.2279 6.3519 17.3679Z" fill="white"/>
<path d="M67.5905 14.4164C68.5025 12.9764 69.0305 11.2964 69.0305 9.52039C69.0305 4.48039 64.9505 0.44839 59.9585 0.44839H38.7905V34.0004H61.6385C67.5425 34.0004 72.3425 29.2484 72.3425 23.2964C72.3425 19.6004 70.4705 16.3364 67.5905 14.4164ZM44.7425 6.40039H59.9585C61.6385 6.40039 63.0305 7.79239 63.0305 9.52039C63.0305 11.2004 61.6385 12.5924 59.9585 12.5924H44.7425V6.40039ZM61.6385 28.0484H44.7425V18.5924H61.6385C64.2305 18.5924 66.3905 20.7044 66.3905 23.2964C66.3905 25.9364 64.2305 28.0484 61.6385 28.0484Z" fill="white"/>
<path d="M99.5012 18.4964C100.413 18.4004 101.277 18.1604 102.093 17.7764C105.261 16.3364 107.421 13.1684 107.421 9.52039C107.421 7.02439 106.413 4.72039 104.781 3.08839C103.149 1.45639 100.893 0.400391 98.3492 0.400391H77.1812V34.0484H83.1332V18.5924H89.1332C91.2932 18.5924 93.2132 19.7444 94.2212 21.4724L94.3652 21.7124L100.653 34.0004H107.373L104.349 28.0004L99.5012 18.4964ZM83.1332 12.5924V6.40039H98.3492C99.4052 6.40039 100.125 6.92839 100.509 7.26439C100.845 7.64839 101.421 8.41639 101.421 9.52039C101.421 10.7204 100.749 11.8244 99.5972 12.3044C99.2132 12.4964 98.7812 12.5924 98.3492 12.5924H83.1332Z" fill="white"/>
</svg>
