<svg width="124" height="124" viewBox="0 0 124 124" fill="none" xmlns="http://www.w3.org/2000/svg">
<path fill-rule="evenodd" clip-rule="evenodd" d="M62 0C62.7223 0 63.4418 0.012353 64.1582 0.0368594C67.3198 0.145016 70.4214 0.489894 73.4457 1.05433C73.5403 1.07198 73.6348 1.08985 73.7293 1.10794C102.363 6.59051 124 31.7684 124 62C124 96.2417 96.2417 124 62 124C27.7583 124 0 96.2417 0 62C0 27.7583 27.7583 0 62 0ZM72.2693 3.89058L83.4393 15.0607L85.5607 12.9393L77.7457 5.1244C102.686 12.0138 121 34.8682 121 62C121 94.5848 94.5848 121 62 121C29.4152 121 3 94.5848 3 62C3 32.154 25.1614 7.484 53.9265 3.54781L90.9393 40.5607L93.0607 38.4393L57.7706 3.14926C59.1675 3.05031 60.5779 3 62 3C62.2956 3 62.5906 3.00217 62.8852 3.00651L90.9393 31.0607L93.0607 28.9393L67.3617 3.24034C69.0182 3.38957 70.655 3.60726 72.2693 3.89058Z" fill="white"/>
</svg>
