<svg width="80" height="73" viewBox="0 0 80 73" fill="none" xmlns="http://www.w3.org/2000/svg">
<path d="M43.7656 48.7116C42.985 47.9309 42.4476 47.0994 42.1534 46.2169C41.8593 45.3344 41.7971 44.469 41.9668 43.6204C42.1591 42.7719 42.6003 42.0026 43.2905 41.3124L48.6362 35.9667C48.8398 35.7857 49.0605 35.7008 49.298 35.7121C49.547 35.7121 49.7619 35.8026 49.9429 35.9837C50.124 36.1647 50.2145 36.3796 50.2145 36.6286C50.2145 36.8775 50.1183 37.0981 49.926 37.2904L47.5161 39.7002L50.2823 42.4664C51.0177 43.2018 51.5325 43.9768 51.8267 44.7914C52.1321 45.6173 52.2 46.4206 52.0303 47.2012C51.8719 47.9932 51.4816 48.7003 50.8593 49.3225C50.2371 49.9448 49.513 50.3408 48.6871 50.5105C47.8838 50.6802 47.0523 50.618 46.1924 50.3238C45.3439 50.0183 44.535 49.4809 43.7656 48.7116ZM44.9706 47.5067C45.7059 48.2421 46.4866 48.6833 47.3125 48.8304C48.1384 48.9775 48.8908 48.7116 49.5696 48.0328C50.2031 47.3992 50.4803 46.6921 50.4011 45.9114C50.3219 45.1308 49.9033 44.3615 49.1453 43.6035L46.3791 40.8372L44.5972 42.6192C44.1673 43.0491 43.8844 43.5469 43.7487 44.1126C43.6355 44.6783 43.6751 45.2496 43.8675 45.8266C44.0711 46.4149 44.4388 46.9749 44.9706 47.5067Z" fill="white"/>
<path fill-rule="evenodd" clip-rule="evenodd" d="M67.4348 48.5354C67.0443 48.1449 66.4111 48.1449 66.0206 48.5354L63.8993 50.6567L75.213 61.9704L77.3343 59.8491C77.7249 59.4586 77.7249 58.8254 77.3343 58.4349L75.9201 57.0207L75.213 57.7278C74.8225 58.1183 74.1893 58.1183 73.7988 57.7278C73.4083 57.3373 73.4083 56.7041 73.7988 56.3136L74.5059 55.6065L70.2633 51.3638L69.5562 52.0709C69.1656 52.4615 68.5325 52.4615 68.1419 52.0709C67.7514 51.6804 67.7514 51.0472 68.1419 50.6567L68.849 49.9496L67.4348 48.5354ZM70.2633 48.5354L68.849 47.1212C67.6775 45.9496 65.778 45.9496 64.6064 47.1212L54.7069 57.0207C53.5353 58.1922 53.5353 60.0917 54.7069 61.2633L64.6064 71.1628C65.778 72.3344 67.6775 72.3344 68.849 71.1628L75.9193 64.0926L75.9201 64.0917L75.9209 64.0909L78.7485 61.2633C79.9201 60.0917 79.9201 58.1922 78.7485 57.0207L77.3343 55.6065L78.0414 54.8994C78.432 54.5088 78.432 53.8757 78.0414 53.4851C77.6509 53.0946 77.0177 53.0946 76.6272 53.4851L75.9201 54.1922L71.6775 49.9496L72.3846 49.2425C72.7751 48.852 72.7751 48.2188 72.3846 47.8283C71.9941 47.4378 71.3609 47.4378 70.9704 47.8283L70.2633 48.5354ZM73.7988 63.3846L62.4851 52.0709L56.1211 58.4349C55.7306 58.8254 55.7306 59.4586 56.1211 59.8491L66.0206 69.7486C66.4111 70.1391 67.0443 70.1391 67.4348 69.7486L73.7988 63.3846Z" fill="white"/>
<path fill-rule="evenodd" clip-rule="evenodd" d="M20.2304 23.8187C20.5472 24.9274 21.1638 25.94 22.0802 26.8564C22.6119 27.3882 23.2681 27.8407 24.0488 28.2141C24.8407 28.5761 25.5818 28.7854 26.2719 28.842C26.5208 28.8646 26.7188 28.7911 26.8659 28.6214C27.0243 28.463 27.0978 28.2424 27.0865 27.9595C27.0639 27.7559 26.9677 27.5805 26.798 27.4334C26.6396 27.275 26.4473 27.1845 26.221 27.1619C25.7571 27.128 25.2424 26.9752 24.6767 26.7037C24.1336 26.4322 23.6584 26.0927 23.2512 25.6855C22.5723 25.0066 22.1254 24.2543 21.9105 23.4284C21.6955 22.6025 21.7012 21.7709 21.9275 20.9337C22.1151 20.2812 22.4441 19.6711 22.9142 19.1034L29.7679 25.957C29.9489 26.138 30.1469 26.2342 30.3618 26.2455C30.5881 26.2455 30.7917 26.155 30.9728 25.974C31.8552 25.0915 32.4662 24.1298 32.8056 23.089C33.145 22.0481 33.1846 21.0129 32.9244 19.9833C32.6868 18.9538 32.1381 18.0091 31.2782 17.1493C30.4071 16.2781 29.4341 15.7124 28.3593 15.4522C27.2845 15.192 26.1984 15.2259 25.1009 15.554C24.0261 15.8821 23.0249 16.51 22.0972 17.4378C21.1807 18.3542 20.5641 19.3667 20.2474 20.4755C19.9419 21.5955 19.9362 22.7099 20.2304 23.8187ZM24.024 18.0409C23.7834 18.224 23.5484 18.4303 23.319 18.6596C23.1789 18.7998 23.048 18.9428 22.9265 19.0886C22.9224 19.0935 22.9183 19.0984 22.9142 19.1034L22.5554 18.7445L23.6415 17.6584L24.024 18.0409ZM30.2398 24.2567L24.024 18.0409C24.5074 17.673 25.0134 17.3984 25.5422 17.2171C26.3568 16.9456 27.16 16.9004 27.952 17.0814C28.744 17.2624 29.4624 17.6753 30.1073 18.3202C30.7408 18.9538 31.1368 19.6439 31.2952 20.3906C31.4649 21.1487 31.414 21.9123 31.1425 22.6817C30.9456 23.2394 30.6447 23.7644 30.2398 24.2567Z" fill="white"/>
<path d="M23.6415 17.6584L22.5554 18.7445L22.9142 19.1034L22.9265 19.0886C23.048 18.9428 23.1789 18.7998 23.319 18.6596C23.5484 18.4303 23.7834 18.224 24.024 18.0409L23.6415 17.6584Z" fill="white"/>
<path fill-rule="evenodd" clip-rule="evenodd" d="M36.0174 40.2845C36.0287 40.5221 36.1305 40.7371 36.3229 40.9294C36.5152 41.1217 36.7245 41.2179 36.9508 41.2179C37.1884 41.2066 37.409 41.0991 37.6126 40.8955L45.5718 32.9363C45.7755 32.7326 45.8773 32.5177 45.8773 32.2914C45.8886 32.0538 45.7981 31.8388 45.6058 31.6465C45.4134 31.4542 45.1928 31.358 44.9439 31.358C44.7063 31.3467 44.4857 31.4429 44.2821 31.6465L40.9219 35.0067L34.9313 29.0161L38.2914 25.6559C38.4951 25.4522 38.5913 25.2316 38.5799 24.994C38.5913 24.7564 38.5008 24.5415 38.3084 24.3492C38.1161 24.1568 37.8955 24.0607 37.6466 24.0607C37.4203 24.0607 37.2053 24.1625 37.0017 24.3661L29.0425 32.3253C28.8388 32.529 28.7314 32.7496 28.7201 32.9872C28.7314 33.2248 28.8332 33.4397 29.0255 33.6321C29.2179 33.8244 29.4272 33.9206 29.6534 33.9206C29.9023 33.9206 30.1286 33.8187 30.3323 33.6151L33.7603 30.187L39.7509 36.1776L36.3229 39.6057C36.1192 39.8093 36.0174 40.0356 36.0174 40.2845ZM33.7603 30.187L33.5397 29.9664L34.7107 28.7954L34.9313 29.0161L33.7603 30.187Z" fill="white"/>
<path d="M34.7107 28.7954L33.5397 29.9664L33.7603 30.187L34.9313 29.0161L34.7107 28.7954Z" fill="white"/>
<path fill-rule="evenodd" clip-rule="evenodd" d="M6.49822 8.62705L14.6315 16.7603L14.139 17.931L15.7682 18.508L15.9478 18.0766L16.5828 18.7116C16.7864 18.9153 16.8826 19.1359 16.8713 19.3735C16.8826 19.6111 16.7864 19.8317 16.5828 20.0353L13.7657 22.8524C13.562 23.0561 13.3414 23.1522 13.1038 23.1409C12.8662 23.1522 12.6456 23.0561 12.442 22.8524C12.2383 22.6488 12.1365 22.4225 12.1365 22.1736C12.1365 21.9473 12.2383 21.7324 12.442 21.5287L14.6821 19.2886L3.99063 8.59716L1.75051 10.8373C1.54687 11.0409 1.32625 11.1371 1.08866 11.1258C0.851072 11.1371 0.630455 11.0409 0.426808 10.8373C0.223161 10.6336 0.121338 10.4074 0.121338 10.1585C0.121338 9.93218 0.223161 9.71722 0.426808 9.51357L3.24392 6.69646C3.44757 6.49281 3.66253 6.39099 3.8888 6.39099C4.1377 6.39099 4.36398 6.49281 4.56763 6.69646L5.14487 7.2737L21.4703 0.48523C21.9115 0.315524 22.2736 0.372093 22.5564 0.654935C22.8619 0.960406 22.9241 1.3281 22.7431 1.75802L15.9478 18.0766L14.6315 16.7603L20.5698 2.64363L6.49822 8.62705Z" fill="white"/>
<path d="M14.139 17.931L15.7682 18.508L15.9478 18.0766L14.6315 16.7603L14.139 17.931Z" fill="white"/>
</svg>
