<svg width="342" height="313" viewBox="0 0 342 313" fill="none" xmlns="http://www.w3.org/2000/svg">
<path d="M141 302.586L13.9998 175.586M141 302.586L150.5 312.086M141 302.586L138.586 305M141 302.586L335.086 108.5M141 302.586L131.5 312.086M-1.58596 160L13.9998 175.586M13.9998 175.586L-3.91431 193.5M13.9998 175.586L129.586 60M256.293 186.707L129.586 60M129.586 60L65.2928 -4.29285M129.586 60L180.586 9.00003M307.293 135.707L180.586 9.00003M180.586 9.00003L170.293 -1.29285M180.586 9.00003L190.293 -0.707067M335.086 108.5L219.133 -7.45215M335.086 108.5L340.586 103M335.086 108.5L341.086 114.5" stroke="white" stroke-width="2"/>
</svg>
