<svg width="68" height="63" viewBox="0 0 68 63" fill="none" xmlns="http://www.w3.org/2000/svg">
<path d="M14.293 62.3589C14.078 62.5738 13.8404 62.6983 13.5802 62.7322C13.32 62.7435 13.088 62.6474 12.8844 62.4437L0.954088 50.5134C0.761755 50.3211 0.665588 50.1005 0.665588 49.8516C0.665589 49.6027 0.761755 49.382 0.954089 49.1897L5.07794 45.0659C5.75676 44.387 6.51478 43.9232 7.35199 43.6743C8.18921 43.4027 9.01511 43.3575 9.82969 43.5385C10.6556 43.7082 11.3966 44.1212 12.0528 44.7774C12.6638 45.3883 13.0428 46.0954 13.1899 46.8987C13.3369 47.702 13.2691 48.4939 12.9862 49.2746C13.9479 48.7202 14.9435 48.4939 15.973 48.5957C16.9913 48.6862 17.9303 49.1614 18.7901 50.0213C19.5595 50.7906 20.0629 51.6448 20.3005 52.5838C20.5381 53.5229 20.5155 54.4732 20.2326 55.4349C19.9498 56.3739 19.4124 57.2394 18.6204 58.0314L14.293 62.3589ZM13.5972 60.5091L17.3477 56.7586C17.8907 56.2155 18.2641 55.6272 18.4677 54.9936C18.6714 54.3601 18.694 53.7265 18.5356 53.0929C18.3772 52.4594 18.0265 51.8711 17.4834 51.328C16.9743 50.8189 16.4143 50.4964 15.8033 50.3607C15.1811 50.2136 14.5588 50.2475 13.9366 50.4625C13.303 50.6661 12.7147 51.0395 12.1716 51.5826L8.42114 55.3331L13.5972 60.5091ZM7.14834 54.0603L10.6103 50.5983C11.2892 49.9194 11.6569 49.1671 11.7134 48.3412C11.77 47.5153 11.4532 46.7573 10.7631 46.0671C10.0843 45.3883 9.34886 45.0941 8.5569 45.1847C7.76494 45.2752 7.02955 45.6598 6.35073 46.3387L2.88873 49.8007L7.14834 54.0603Z" fill="white"/>
<path d="M29.8093 54.7847C29.6057 54.9883 29.3794 55.0902 29.1305 55.0902C28.9043 55.0902 28.6893 54.9883 28.4856 54.7847L20.4755 46.7746C19.6044 45.8808 19.0217 44.8795 18.7276 43.7708C18.4334 42.6394 18.4334 41.5194 18.7276 40.4106C19.033 39.2906 19.627 38.2893 20.5095 37.4068C21.4146 36.5017 22.4328 35.9021 23.5642 35.608C24.6842 35.3025 25.8043 35.3025 26.9244 35.608C28.0557 35.9021 29.074 36.5017 29.9791 37.4068C30.8728 38.3006 31.4725 39.3075 31.7779 40.4276C32.0947 41.5363 32.1173 42.6451 31.8458 43.7538C31.563 44.8513 30.986 45.8356 30.1148 46.7067C29.3568 47.4647 28.5083 47.9965 27.5692 48.3019C26.6302 48.5848 25.7081 48.647 24.803 48.4886L29.7924 53.478C29.996 53.6816 30.0922 53.9022 30.0809 54.1398C30.0922 54.3774 30.0017 54.5924 29.8093 54.7847ZM28.7741 45.6715C29.4303 45.0153 29.8659 44.2743 30.0809 43.4484C30.2958 42.6225 30.2845 41.7966 30.0469 40.9707C29.8093 40.1221 29.3568 39.3641 28.6893 38.6966C28.0105 38.0178 27.2525 37.5652 26.4152 37.339C25.5893 37.1014 24.7634 37.0901 23.9375 37.305C23.1003 37.5087 22.3536 37.9386 21.6974 38.5948C21.0525 39.2397 20.6283 39.9807 20.4246 40.8179C20.2097 41.6438 20.221 42.4697 20.4586 43.2956C20.6962 44.1215 21.1544 44.8739 21.8332 45.5527C22.5007 46.2202 23.2531 46.6784 24.0903 46.9273C24.9162 47.1649 25.7421 47.1762 26.568 46.9613C27.3939 46.7463 28.1293 46.3164 28.7741 45.6715Z" fill="white"/>
<path d="M41.4687 35.3529C40.5522 36.2693 39.5397 36.8859 38.4309 37.2027C37.3222 37.4968 36.2078 37.4912 35.0877 37.1857C33.979 36.8689 32.9664 36.2523 32.05 35.3359C31.1223 34.4082 30.4944 33.4069 30.1663 32.3321C29.8382 31.2347 29.8042 30.1486 30.0644 29.0738C30.3246 27.999 30.8903 27.026 31.7615 26.1548C32.6213 25.295 33.566 24.7463 34.5956 24.5087C35.6251 24.2485 36.6603 24.2881 37.7012 24.6275C38.7421 24.9669 39.7037 25.5778 40.5862 26.4603C40.7672 26.6413 40.8577 26.845 40.8577 27.0712C40.8464 27.2862 40.7502 27.4842 40.5692 27.6652L33.3567 34.8777L32.2706 33.7916L39.6189 26.4433L39.4152 27.6991C38.7703 27.0316 38.0632 26.5621 37.2939 26.2906C36.5246 26.0191 35.7609 25.9681 35.0029 26.1379C34.2562 26.2962 33.566 26.6922 32.9325 27.3258C32.2876 27.9707 31.8746 28.6891 31.6936 29.4811C31.5126 30.273 31.5578 31.0763 31.8294 31.8909C32.1009 32.6828 32.5817 33.4239 33.2719 34.114C33.962 34.8042 34.72 35.268 35.5459 35.5056C36.3831 35.7319 37.2147 35.7375 38.0406 35.5226C38.8665 35.3076 39.6189 34.8607 40.2977 34.1819C40.705 33.7746 41.0444 33.2994 41.3159 32.7564C41.5874 32.1907 41.7402 31.6759 41.7741 31.2121C41.7968 30.9858 41.8873 30.7934 42.0457 30.6351C42.1927 30.4653 42.3681 30.3692 42.5717 30.3466C42.8546 30.3352 43.0752 30.4088 43.2336 30.5672C43.4033 30.7143 43.4768 30.9122 43.4542 31.1611C43.3976 31.8513 43.1883 32.5923 42.8263 33.3843C42.4529 34.1649 42.0004 34.8211 41.4687 35.3529Z" fill="white"/>
<path d="M48.2613 28.3906C48.0576 28.5942 47.837 28.7017 47.5994 28.713C47.3618 28.7017 47.1412 28.5942 46.9375 28.3906L38.9784 20.4314C38.7747 20.2277 38.6729 20.0128 38.6729 19.7865C38.6729 19.5376 38.7747 19.3113 38.9784 19.1077C39.2725 18.8135 39.6459 18.7117 40.0984 18.8022L49.2795 20.4823L47.5994 11.3012C47.5089 10.8487 47.6107 10.4753 47.9049 10.1811C48.1085 9.9775 48.3291 9.88134 48.5667 9.89265C48.8043 9.88134 49.0249 9.9775 49.2286 10.1812L57.1878 18.1403C57.3914 18.344 57.4932 18.5703 57.4932 18.8192C57.4932 19.0454 57.3914 19.2604 57.1878 19.464C56.9841 19.6677 56.7692 19.7695 56.5429 19.7695C56.3053 19.7582 56.0847 19.6507 55.881 19.4471L48.7704 12.3364L49.3304 12.0479L50.9426 20.9235C51.0218 21.3648 50.9426 21.7042 50.705 21.9417C50.4674 22.1793 50.1337 22.2529 49.7038 22.1624L40.8791 20.6011L41.1845 20.0241L48.2443 27.0838C48.4479 27.2875 48.5554 27.5081 48.5667 27.7457C48.5667 27.972 48.4649 28.1869 48.2613 28.3906Z" fill="white"/>
<path d="M67.0337 9.61807C66.8527 9.79909 66.6434 9.89526 66.4058 9.90657C66.1682 9.89526 65.9476 9.78777 65.744 9.58413L63.1984 7.03854L60.4831 9.75384L60.3134 9.58413C59.7364 10.1611 59.1028 10.5571 58.4127 10.7721C57.7113 10.9757 57.0211 10.987 56.3423 10.806C55.6635 10.625 55.0412 10.2516 54.4755 9.68595C53.8872 9.09764 53.5026 8.44145 53.3215 7.71737C53.1405 6.97066 53.1688 6.2183 53.4064 5.46029C53.644 4.70227 54.0852 4.00081 54.7301 3.35593L57.7508 0.335176C57.9545 0.131529 58.1751 0.0353597 58.4127 0.0466736C58.6503 0.03536 58.8709 0.131526 59.0746 0.335173L67.0507 8.31134C67.2317 8.51498 67.3222 8.74126 67.3222 8.99016C67.3222 9.21644 67.2261 9.42574 67.0337 9.61807ZM60.517 15.7954C60.2568 15.8067 60.0532 15.7388 59.9061 15.5917C59.7703 15.4333 59.6855 15.2353 59.6516 14.9977L59.0067 9.6011L60.7207 7.95496L61.4165 14.7602C61.4504 15.0656 61.3599 15.3145 61.145 15.5069C60.9526 15.6992 60.7433 15.7954 60.517 15.7954ZM59.6855 8.31134L62.0783 5.91849L58.3279 2.16799L55.935 4.56084C55.358 5.13784 55.0469 5.78838 55.0016 6.51246C54.945 7.22522 55.1939 7.85879 55.7483 8.41316C56.3479 9.01279 57.0098 9.28997 57.7339 9.24472C58.458 9.19946 59.1085 8.88834 59.6855 8.31134Z" fill="white"/>
</svg>
